<svg width="42" height="12" viewBox="0 0 42 12" fill="none" xmlns="http://www.w3.org/2000/svg">
<path d="M7.66406 9.6875V11H0.992188V9.87207L4.23242 6.33789C4.58789 5.93685 4.86816 5.59049 5.07324 5.29883C5.27832 5.00716 5.42188 4.74512 5.50391 4.5127C5.59049 4.27572 5.63379 4.04557 5.63379 3.82227C5.63379 3.50781 5.57454 3.2321 5.45605 2.99512C5.34212 2.75358 5.1735 2.56445 4.9502 2.42773C4.72689 2.28646 4.45573 2.21582 4.13672 2.21582C3.76758 2.21582 3.45768 2.29557 3.20703 2.45508C2.95638 2.61458 2.76725 2.83561 2.63965 3.11816C2.51204 3.39616 2.44824 3.71517 2.44824 4.0752H0.800781C0.800781 3.49642 0.932943 2.96777 1.19727 2.48926C1.46159 2.00618 1.8444 1.62337 2.3457 1.34082C2.84701 1.05371 3.45085 0.910156 4.15723 0.910156C4.82259 0.910156 5.3877 1.02181 5.85254 1.24512C6.31738 1.46842 6.67057 1.78516 6.91211 2.19531C7.1582 2.60547 7.28125 3.09082 7.28125 3.65137C7.28125 3.96126 7.23112 4.26888 7.13086 4.57422C7.0306 4.87956 6.88704 5.1849 6.7002 5.49023C6.5179 5.79102 6.30143 6.09408 6.05078 6.39941C5.80013 6.7002 5.52441 7.00553 5.22363 7.31543L3.07031 9.6875H7.66406ZM10.6787 6.37207L9.36621 6.05078L9.90625 1.04688H15.2725V2.44141H11.2734L11 4.88184C11.1549 4.79069 11.3691 4.70182 11.6426 4.61523C11.916 4.52409 12.2282 4.47852 12.5791 4.47852C13.0485 4.47852 13.4678 4.55599 13.8369 4.71094C14.2106 4.86133 14.5273 5.08236 14.7871 5.37402C15.0469 5.66113 15.2451 6.01204 15.3818 6.42676C15.5186 6.83691 15.5869 7.29948 15.5869 7.81445C15.5869 8.27474 15.5186 8.7054 15.3818 9.10645C15.2497 9.50749 15.0492 9.86068 14.7803 10.166C14.5114 10.4714 14.1719 10.7106 13.7617 10.8838C13.3561 11.0524 12.8753 11.1367 12.3193 11.1367C11.9046 11.1367 11.5059 11.0775 11.123 10.959C10.7448 10.8359 10.4053 10.6559 10.1045 10.4189C9.80371 10.1774 9.56217 9.88118 9.37988 9.53027C9.19759 9.1748 9.09277 8.76693 9.06543 8.30664H10.6787C10.7197 8.63021 10.8086 8.90592 10.9453 9.13379C11.0866 9.3571 11.2734 9.52799 11.5059 9.64648C11.7383 9.76497 12.0072 9.82422 12.3125 9.82422C12.5905 9.82422 12.8298 9.77637 13.0303 9.68066C13.2308 9.5804 13.3971 9.43913 13.5293 9.25684C13.666 9.06999 13.7663 8.85124 13.8301 8.60059C13.8984 8.34993 13.9326 8.07194 13.9326 7.7666C13.9326 7.47493 13.8939 7.20833 13.8164 6.9668C13.7435 6.72526 13.6318 6.51562 13.4814 6.33789C13.3356 6.16016 13.151 6.02344 12.9277 5.92773C12.7044 5.82747 12.4469 5.77734 12.1553 5.77734C11.7633 5.77734 11.4626 5.83431 11.2529 5.94824C11.0479 6.06217 10.8564 6.20345 10.6787 6.37207ZM24.7471 8.0127V1.04688H26.4561V8.0127C26.4561 8.6735 26.3148 9.23633 26.0322 9.70117C25.7497 10.166 25.3646 10.5215 24.877 10.7676C24.3893 11.0137 23.8356 11.1367 23.2158 11.1367C22.5824 11.1367 22.0195 11.0296 21.5273 10.8154C21.0397 10.6012 20.6569 10.2731 20.3789 9.83105C20.1009 9.389 19.9619 8.82845 19.9619 8.14941H21.6846C21.6846 8.54134 21.7461 8.85807 21.8691 9.09961C21.9967 9.33659 22.1745 9.50977 22.4023 9.61914C22.6348 9.72396 22.9059 9.77637 23.2158 9.77637C23.512 9.77637 23.7741 9.71029 24.002 9.57812C24.2344 9.44141 24.4167 9.24316 24.5488 8.9834C24.681 8.71908 24.7471 8.39551 24.7471 8.0127ZM32.4375 9.5166V5.98926C32.4375 5.72493 32.3896 5.49707 32.2939 5.30566C32.1982 5.11426 32.0524 4.96615 31.8564 4.86133C31.665 4.75651 31.4235 4.7041 31.1318 4.7041C30.863 4.7041 30.6305 4.74967 30.4346 4.84082C30.2386 4.93197 30.0859 5.05501 29.9766 5.20996C29.8672 5.36491 29.8125 5.54036 29.8125 5.73633H28.1719C28.1719 5.44466 28.2425 5.16211 28.3838 4.88867C28.5251 4.61523 28.7301 4.37142 28.999 4.15723C29.2679 3.94303 29.5892 3.77441 29.9629 3.65137C30.3366 3.52832 30.7559 3.4668 31.2207 3.4668C31.7767 3.4668 32.2689 3.56022 32.6973 3.74707C33.1302 3.93392 33.4697 4.21647 33.7158 4.59473C33.9665 4.96842 34.0918 5.43783 34.0918 6.00293V9.29102C34.0918 9.62826 34.1146 9.93132 34.1602 10.2002C34.2103 10.4645 34.2809 10.6947 34.3721 10.8906V11H32.6836C32.6061 10.8223 32.5446 10.5967 32.499 10.3232C32.458 10.0452 32.4375 9.77637 32.4375 9.5166ZM32.6768 6.50195L32.6904 7.52051H31.5078C31.2025 7.52051 30.9336 7.55013 30.7012 7.60938C30.4688 7.66406 30.2751 7.74609 30.1201 7.85547C29.9652 7.96484 29.849 8.09701 29.7715 8.25195C29.694 8.4069 29.6553 8.58236 29.6553 8.77832C29.6553 8.97428 29.7008 9.1543 29.792 9.31836C29.8831 9.47786 30.0153 9.60319 30.1885 9.69434C30.3662 9.78548 30.5804 9.83105 30.8311 9.83105C31.1683 9.83105 31.4622 9.7627 31.7129 9.62598C31.9681 9.4847 32.1686 9.3138 32.3145 9.11328C32.4603 8.9082 32.5378 8.71452 32.5469 8.53223L33.0801 9.26367C33.0254 9.45052 32.932 9.65104 32.7998 9.86523C32.6676 10.0794 32.4945 10.2845 32.2803 10.4805C32.0706 10.6719 31.8177 10.8291 31.5215 10.9521C31.2298 11.0752 30.8926 11.1367 30.5098 11.1367C30.0267 11.1367 29.596 11.041 29.2178 10.8496C28.8395 10.6536 28.5433 10.3916 28.3291 10.0635C28.1149 9.73079 28.0078 9.35482 28.0078 8.93555C28.0078 8.54362 28.0807 8.19727 28.2266 7.89648C28.377 7.59115 28.5957 7.33594 28.8828 7.13086C29.1745 6.92578 29.5299 6.77083 29.9492 6.66602C30.3685 6.55664 30.847 6.50195 31.3848 6.50195H32.6768ZM37.4482 5.18262V11H35.8008V3.60352H37.3525L37.4482 5.18262ZM37.1543 7.02832L36.6211 7.02148C36.6257 6.4974 36.6986 6.0166 36.8398 5.5791C36.9857 5.1416 37.1862 4.76562 37.4414 4.45117C37.7012 4.13672 38.0111 3.89518 38.3711 3.72656C38.7311 3.55339 39.1322 3.4668 39.5742 3.4668C39.9297 3.4668 40.251 3.51693 40.5381 3.61719C40.8298 3.71289 41.0781 3.87012 41.2832 4.08887C41.4928 4.30762 41.6523 4.59245 41.7617 4.94336C41.8711 5.28971 41.9258 5.71582 41.9258 6.22168V11H40.2715V6.21484C40.2715 5.85938 40.2191 5.5791 40.1143 5.37402C40.014 5.16439 39.8659 5.01628 39.6699 4.92969C39.4785 4.83854 39.2393 4.79297 38.9521 4.79297C38.6696 4.79297 38.4167 4.85221 38.1934 4.9707C37.9701 5.08919 37.7809 5.25098 37.626 5.45605C37.4756 5.66113 37.3594 5.89811 37.2773 6.16699C37.1953 6.43587 37.1543 6.72298 37.1543 7.02832Z" fill="#F1B41C"/>
</svg>
