<svg width="24" height="24" viewBox="0 0 24 24" fill="none" xmlns="http://www.w3.org/2000/svg">
<path d="M11.9994 10.2859C11.0566 10.2859 10.2852 11.0574 10.2852 12.0002C10.2852 12.9431 11.0566 13.7145 11.9994 13.7145C12.9423 13.7145 13.7137 12.9431 13.7137 12.0002C13.7137 11.0574 12.9423 10.2859 11.9994 10.2859ZM11.9994 5.14307C11.0566 5.14307 10.2852 5.91449 10.2852 6.85735C10.2852 7.80021 11.0566 8.57164 11.9994 8.57164C12.9423 8.57164 13.7137 7.80021 13.7137 6.85735C13.7137 5.91449 12.9423 5.14307 11.9994 5.14307ZM11.9994 15.4288C11.0566 15.4288 10.2852 16.2002 10.2852 17.1431C10.2852 18.0859 11.0566 18.8574 11.9994 18.8574C12.9423 18.8574 13.7137 18.0859 13.7137 17.1431C13.7137 16.2002 12.9423 15.4288 11.9994 15.4288Z" fill="#123D59" fill-opacity="0.4"/>
<circle cx="12" cy="12" r="11.3571" stroke="#123D59" stroke-opacity="0.4" stroke-width="1.28571"/>
</svg>
