<svg width="21" height="24" viewBox="0 0 21 24" fill="none" xmlns="http://www.w3.org/2000/svg">
<path d="M10.5 11.4C9.6 11.4 9 12 9 12.9C9 13.5 9.45 13.95 9.9 14.1L9.45 16.2H11.4L10.95 14.1C11.55 13.95 11.85 13.5 11.85 12.9C12 12 11.4 11.4 10.5 11.4ZM10.65 4.95C9.6 4.95 8.55 5.7 8.55 6.75V9H12.6V6.75C12.45 5.7 11.7 4.95 10.65 4.95ZM10.5 0L0 4.5V9C0.15 15.6 4.35 21.45 10.5 23.85C16.65 21.45 20.85 15.6 21 9V4.5L10.5 0ZM16.5 16.5C16.5 17.4 15.9 18 15 18H6C5.1 18 4.5 17.4 4.5 16.5V10.5C4.5 9.6 5.1 9 6 9H6.45V6.75C6.6 4.65 8.4 3 10.5 3C12.6 3 14.4 4.65 14.55 6.75V9H15C15.9 9 16.5 9.6 16.5 10.5V16.5Z" fill="#113D59"/>
</svg>
