<svg width="27" height="29" viewBox="0 0 27 29" fill="none" xmlns="http://www.w3.org/2000/svg">
<path d="M13.48 13.4468C12.3246 13.4468 11.5543 14.1546 11.5543 15.2161C11.5543 15.9239 12.132 16.4547 12.7097 16.6316L12.132 19.1086H14.6354L14.0577 16.6316C14.828 16.4547 15.2131 15.9239 15.2131 15.2161C15.4057 14.1546 14.6354 13.4468 13.48 13.4468ZM13.6726 5.83875C12.3246 5.83875 10.9766 6.72341 10.9766 7.96194V10.6159H16.176V7.96194C15.9834 6.72341 15.0206 5.83875 13.6726 5.83875ZM13.48 0L0 5.30796V10.6159C0.192571 18.4009 5.58457 25.3013 13.48 28.1322C21.3754 25.3013 26.7674 18.4009 26.96 10.6159V5.30796L13.48 0ZM21.1829 19.4625C21.1829 20.5241 20.4126 21.2318 19.2571 21.2318H7.70286C6.54743 21.2318 5.77714 20.5241 5.77714 19.4625V12.3852C5.77714 11.3236 6.54743 10.6159 7.70286 10.6159H8.28057V7.96194C8.47314 5.48489 10.784 3.53864 13.48 3.53864C16.176 3.53864 18.4869 5.48489 18.6794 7.96194V10.6159H19.2571C20.4126 10.6159 21.1829 11.3236 21.1829 12.3852V19.4625Z" fill="#113D59"/>
</svg>
