<svg width="23" height="23" viewBox="0 0 23 23" fill="none" xmlns="http://www.w3.org/2000/svg">
<path d="M10 14.5C10.0012 13.3761 10.3461 12.2795 10.9886 11.3573C11.631 10.4351 12.5401 9.73154 13.594 9.341C13.8557 8.76218 13.994 8.1352 14 7.5C14 5.015 14 3 11 3C8 3 8 5.015 8 7.5C8 9.048 8.898 10.595 10 11.216V12.041C6.608 12.318 4 13.985 4 16H10.208C10.0698 15.512 9.99984 15.0072 10 14.5V14.5Z" fill="#F2B41C"/>
<path d="M15.5 10C14.3065 10 13.1619 10.4741 12.318 11.318C11.4741 12.1619 11 13.3065 11 14.5C11 15.6935 11.4741 16.8381 12.318 17.682C13.1619 18.5259 14.3065 19 15.5 19C16.6935 19 17.8381 18.5259 18.682 17.682C19.5259 16.8381 20 15.6935 20 14.5C20 13.3065 19.5259 12.1619 18.682 11.318C17.8381 10.4741 16.6935 10 15.5 10ZM18 15H16V17H15V15H13V14H15V12H16V14H18V15Z" fill="#F2B41C"/>
<rect x="0.5" y="0.5" width="22" height="22" rx="11" stroke="#F2B41C"/>
</svg>
