<svg width="51" height="51" viewBox="0 0 51 51" fill="none" xmlns="http://www.w3.org/2000/svg">
<path d="M42.6265 25.301C42.6265 28.7371 41.6076 32.0961 39.6986 34.9532C37.7895 37.8102 35.0762 40.037 31.9016 41.352C28.727 42.667 25.2337 43.011 21.8636 42.3406C18.4935 41.6703 15.3978 40.0156 12.9681 37.5859C10.5384 35.1562 8.88371 32.0605 8.21335 28.6904C7.54299 25.3203 7.88705 21.827 9.202 18.6524C10.517 15.4778 12.7438 12.7645 15.6008 10.8554C18.4579 8.94642 21.8169 7.92749 25.253 7.92749C28.3067 7.92732 31.3052 8.74121 33.9398 10.2853L34.5602 9.16845C31.7225 7.55542 28.5171 6.70064 25.253 6.68652C20.3271 6.72193 15.613 8.69446 12.1297 12.1777C8.6465 15.6609 6.67397 20.3751 6.63856 25.301C6.67397 30.2269 8.6465 34.941 12.1297 38.4243C15.613 41.9075 20.3271 43.88 25.253 43.9154C30.1789 43.88 34.8931 41.9075 38.3763 38.4243C41.8595 34.941 43.8321 30.2269 43.8675 25.301H42.6265Z" fill="#123D59"/>
<path d="M25.253 0.481445C20.3442 0.481445 15.5457 1.93707 11.4642 4.66425C7.38267 7.39142 4.20152 11.2677 2.32301 15.8028C0.444496 20.3379 -0.0470082 25.3283 0.910649 30.1427C1.86831 34.9572 4.23211 39.3796 7.70315 42.8506C11.1742 46.3216 15.5966 48.6854 20.411 49.6431C25.2255 50.6008 30.2158 50.1093 34.751 48.2307C39.2861 46.3522 43.1623 43.1711 45.8895 39.0896C48.6167 35.0081 50.0723 30.2095 50.0723 25.3007C50.053 18.7242 47.4319 12.4225 42.7816 7.77218C38.1312 3.12184 31.8296 0.500761 25.253 0.481445V0.481445ZM25.253 46.3971C21.0806 46.3971 17.0018 45.1598 13.5325 42.8417C10.0632 40.5236 7.35925 37.2288 5.76251 33.374C4.16578 29.5191 3.748 25.2773 4.56201 21.185C5.37602 17.0927 7.38525 13.3337 10.3356 10.3833C13.286 7.43294 17.045 5.42371 21.1373 4.6097C25.2296 3.79569 29.4714 4.21347 33.3263 5.8102C37.1811 7.40694 40.4759 10.1109 42.794 13.5802C45.1121 17.0495 46.3494 21.1283 46.3494 25.3007C46.3517 28.0718 45.8076 30.8161 44.7482 33.3767C43.6888 35.9372 42.135 38.2638 40.1755 40.2232C38.2161 42.1826 35.8895 43.7365 33.329 44.7959C30.7684 45.8553 28.0241 46.3994 25.253 46.3971Z" fill="#123D59"/>
<path d="M10.3615 25.3007C10.3615 28.246 11.2348 31.1252 12.8711 33.5741C14.5074 36.023 16.8332 37.9317 19.5543 39.0588C22.2753 40.1859 25.2695 40.4808 28.1582 39.9062C31.0469 39.3316 33.7003 37.9133 35.7829 35.8307C37.8656 33.748 39.2839 31.0946 39.8584 28.2059C40.433 25.3173 40.1381 22.3231 39.011 19.602C37.8839 16.8809 35.9752 14.5552 33.5263 12.9189C31.0774 11.2826 28.1983 10.4092 25.253 10.4092C21.3071 10.4206 17.526 11.9932 14.7358 14.7835C11.9455 17.5737 10.3729 21.3548 10.3615 25.3007ZM38.9036 25.3007C38.9036 28.0006 38.103 30.6398 36.6031 32.8846C35.1031 35.1294 32.9712 36.8791 30.4769 37.9123C27.9826 38.9454 25.2379 39.2158 22.5899 38.6891C19.942 38.1623 17.5097 36.8623 15.6006 34.9532C13.6915 33.0441 12.3914 30.6118 11.8647 27.9638C11.338 25.3159 11.6083 22.5712 12.6415 20.0769C13.6747 17.5826 15.4243 15.4506 17.6692 13.9507C19.914 12.4507 22.5532 11.6501 25.253 11.6501C27.0471 11.6449 28.8245 11.9944 30.4831 12.6786C32.1416 13.3627 33.6485 14.368 34.9171 15.6366C36.1858 16.9052 37.1911 18.4122 37.8752 20.0707C38.5594 21.7292 38.9089 23.5067 38.9036 25.3007Z" fill="#123D59"/>
<path d="M32.6988 16.6143H28.9759V33.9878H32.6988V16.6143Z" fill="#123D59"/>
<path d="M20.2892 16.6143L15.3253 33.9878H19.0482L19.9169 30.8853H24.3843L25.253 33.9878H28.9759L24.0121 16.6143H20.2892ZM21.0337 27.1624L22.1506 23.0673L23.2675 27.1624H21.0337Z" fill="#123D59"/>
</svg>
