<svg width="16" height="16" viewBox="0 0 16 16" fill="none" xmlns="http://www.w3.org/2000/svg">
<g opacity="0.4">
<path d="M7.81096 4.48231C8.05413 4.24102 8.44477 4.23918 8.6902 4.47563L8.70048 4.48577L11.7479 7.55702C11.9878 7.7988 11.9912 8.18673 11.7581 8.43263L11.7479 8.44308L8.70048 11.5143C8.4558 11.7609 8.05755 11.7625 7.81096 11.5178C7.5678 11.2765 7.56291 10.8859 7.79745 10.6386L7.8075 10.6283L10.4153 8.00005L7.8075 5.37183C7.56622 5.12866 7.56438 4.73802 7.80083 4.49259L7.81096 4.48231Z" fill="#141E28"/>
<path d="M10.8781 7.37109C11.2255 7.37109 11.5071 7.6527 11.5071 8.00009C11.5071 8.34333 11.2321 8.62236 10.8905 8.62896L10.8781 8.62908H4.69833C4.35095 8.62908 4.06934 8.34747 4.06934 8.00009C4.06934 7.65684 4.34428 7.37781 4.68595 7.37121L4.69833 7.37109H10.8781Z" fill="#141E28"/>
<path fill-rule="evenodd" clip-rule="evenodd" d="M0 8C0 3.58321 3.58321 0 8 0C12.4168 0 16 3.58321 16 8C16 12.4168 12.4168 16 8 16C3.58321 16 0 12.4168 0 8ZM14.742 8C14.742 4.27797 11.722 1.25799 8 1.25799C4.27797 1.25799 1.25799 4.27797 1.25799 8C1.25799 11.722 4.27797 14.742 8 14.742C11.722 14.742 14.742 11.722 14.742 8Z" fill="#141E28"/>
</g>
</svg>
