<svg width="24" height="24" viewBox="0 0 24 24" fill="none" xmlns="http://www.w3.org/2000/svg">
<path d="M15.8627 2C19.0587 2 20.9697 3.92 20.9997 7.132V16.791C20.9997 20.048 19.0837 22 15.8627 22H8.1377C7.72571 22 7.33471 21.968 6.96671 21.905L6.74871 21.864C4.37771 21.371 2.99971 19.555 2.99971 16.791V7.209C2.99971 6.875 3.01971 6.555 3.05971 6.249C3.40871 3.564 5.25371 2 8.1377 2H15.8627ZM15.8537 3.457H8.1377C5.68171 3.457 4.43671 4.72 4.43671 7.209V16.791C4.43671 19.28 5.68171 20.543 8.1377 20.543H15.8537C18.3087 20.543 19.5457 19.28 19.5457 16.791V7.209C19.5457 4.72 18.3087 3.457 15.8537 3.457ZM15.5927 15.51C15.9867 15.51 16.3057 15.834 16.3057 16.234C16.3057 16.634 15.9867 16.958 15.5927 16.958H8.3817C7.98771 16.958 7.66771 16.634 7.66771 16.234C7.66771 15.834 7.98771 15.51 8.3817 15.51H15.5927ZM15.5927 11.271C15.8677 11.241 16.1367 11.373 16.2837 11.61C16.4307 11.849 16.4307 12.151 16.2837 12.39C16.1367 12.627 15.8677 12.759 15.5927 12.729H8.3817C8.01571 12.687 7.73871 12.374 7.73871 12C7.73871 11.626 8.01571 11.312 8.3817 11.271H15.5927ZM11.1337 7.042C11.4997 7.083 11.7767 7.397 11.7767 7.771C11.7767 8.144 11.4997 8.458 11.1337 8.499H8.3907C8.02371 8.458 7.74671 8.144 7.74671 7.771C7.74671 7.397 8.02371 7.083 8.3907 7.042H11.1337Z" fill="#666666"/>
</svg>
