<svg width="17" height="19" viewBox="0 0 17 19" fill="none" xmlns="http://www.w3.org/2000/svg">
<path d="M4.45884 18.0911C3.29582 18.0911 2.20656 17.5919 1.42042 16.7959C-0.104178 15.2524 -0.528728 12.5585 1.60841 10.3953L10.3765 1.5175C11.2651 0.618029 12.3958 0.269935 13.4778 0.564061C14.5419 0.851891 15.4126 1.73427 15.6977 2.81094C15.9874 3.90829 15.6447 5.05331 14.7569 5.95278L6.37111 14.4438C5.89259 14.9286 5.35111 15.2155 4.80783 15.2731C4.26905 15.3306 3.75545 15.1562 3.39566 14.7919C2.74445 14.1299 2.6509 12.8877 3.73566 11.7903L9.6254 5.82686C9.86735 5.5822 10.2595 5.5822 10.5015 5.82686C10.7434 6.07151 10.7434 6.46908 10.5015 6.71373L4.61085 12.6781C4.10175 13.1926 4.05497 13.6846 4.27175 13.905C4.36709 14.0003 4.51101 14.0444 4.67741 14.0255C4.93196 13.9994 5.22249 13.8312 5.49503 13.5569L13.8808 5.0668C14.4565 4.48395 14.6768 3.79855 14.5014 3.13744C14.4137 2.81415 14.244 2.51899 14.0088 2.28056C13.7735 2.04213 13.4806 1.86852 13.1585 1.77655C12.5055 1.59935 11.8273 1.82332 11.2516 2.40617L2.4836 11.2839C0.85016 12.9381 1.24143 14.8422 2.29561 15.9099C3.35069 16.9776 5.22968 17.3751 6.86402 15.7192L15.6321 6.84146C15.6892 6.78331 15.7574 6.73713 15.8326 6.70561C15.9078 6.67409 15.9886 6.65785 16.0701 6.65785C16.1516 6.65785 16.2324 6.67409 16.3076 6.70561C16.3828 6.73713 16.451 6.78331 16.5081 6.84146C16.6245 6.95988 16.6898 7.11929 16.6898 7.28535C16.6898 7.4514 16.6245 7.61081 16.5081 7.72923L7.74011 16.607C6.70661 17.6522 5.549 18.0911 4.45884 18.0911Z" fill="white"/>
</svg>
