<svg width="33" height="30" viewBox="0 0 33 30" fill="none" xmlns="http://www.w3.org/2000/svg">
<path d="M16.8712 29.1185H2.02455C0.908347 29.1185 0 28.2427 0 27.1665V25.8651C0 24.7889 0.908347 23.9131 2.02455 23.9131H16.8712C17.9874 23.9131 18.8958 24.7889 18.8958 25.8651V27.1665C18.8958 28.2427 17.9874 29.1185 16.8712 29.1185ZM2.02455 25.2144C1.65203 25.2144 1.3497 25.5072 1.3497 25.8651V27.1665C1.3497 27.5243 1.65203 27.8171 2.02455 27.8171H16.8712C17.2437 27.8171 17.5461 27.5243 17.5461 27.1665V25.8651C17.5461 25.5072 17.2437 25.2144 16.8712 25.2144H2.02455Z" fill="#C6C6C6"/>
<path d="M14.4321 16.4333C14.1176 16.4333 13.8166 16.3448 13.5683 16.1054L8.83084 11.5377C8.00213 10.7387 8.91317 9.35665 9.21146 8.90379C9.77158 8.05532 10.6435 7.04287 11.6692 6.05386C12.6964 5.06223 13.7478 4.21897 14.6278 3.67891C15.1002 3.38871 16.5349 2.51031 17.3636 3.30933L22.101 7.87703C22.9311 8.67736 22.0173 10.062 21.7177 10.5161C21.1562 11.3659 20.2816 12.3797 19.2532 13.37C18.2274 14.359 17.1773 15.1997 16.2987 15.7384C15.9707 15.9414 15.1677 16.4333 14.4321 16.4333V16.4333ZM16.4107 4.22938C16.1745 4.23849 14.6939 4.97895 12.6289 6.9687C10.5639 8.95975 9.79453 10.3886 9.84311 10.7113L14.5238 15.1854C14.7614 15.1762 16.242 14.4358 18.3084 12.4447C20.2951 10.5279 21.0807 9.13413 21.0942 8.74372L16.4107 4.22938Z" fill="#C6C6C6"/>
<path d="M12.1516 19.4138C11.636 19.4138 11.1191 19.2238 10.7263 18.8452L5.98886 14.2775C5.60825 13.9118 5.39905 13.4238 5.39905 12.9046C5.39905 12.3854 5.60825 11.8974 5.99021 11.5304L6.9377 10.6169C7.72322 9.85948 9.00138 9.85948 9.7869 10.6169L14.5243 15.1845C15.3099 15.9419 15.3099 17.1742 14.5243 17.9316L13.5768 18.8452C13.1827 19.2238 12.6672 19.4138 12.1516 19.4138ZM8.36163 11.3495C8.19157 11.3495 8.0215 11.4133 7.89058 11.5382L6.94445 12.4504C6.81758 12.5728 6.74874 12.7328 6.74874 12.9046C6.74874 13.0764 6.81758 13.2364 6.94445 13.3588L11.6819 17.9264C11.9424 18.1763 12.3635 18.175 12.6226 17.9264L13.5701 17.0129C13.8292 16.763 13.8292 16.3557 13.5701 16.1059L8.83267 11.5382C8.70175 11.4133 8.53169 11.3495 8.36163 11.3495V11.3495Z" fill="#C6C6C6"/>
<path d="M22.5737 9.3638C22.0581 9.3638 21.5412 9.1738 21.1484 8.79511L16.411 4.22741C15.6255 3.47003 15.6255 2.23896 16.411 1.48158L17.3585 0.568035C18.144 -0.189345 19.4221 -0.189345 20.2077 0.568035L24.9451 5.13574C25.7306 5.89312 25.7306 7.12549 24.9451 7.88287L23.9976 8.79641C23.6049 9.17511 23.0893 9.3638 22.5737 9.3638ZM18.7837 1.30199C18.6137 1.30199 18.4436 1.36446 18.3127 1.48938L17.3652 2.40293C17.1061 2.65278 17.1061 3.0588 17.3652 3.30866L22.1026 7.87637C22.3618 8.12492 22.7842 8.12492 23.0434 7.87637L23.9909 6.96413C24.25 6.71427 24.25 6.30695 23.9909 6.05709L19.2534 1.48938C19.1239 1.36446 18.9538 1.30199 18.7837 1.30199V1.30199ZM24.4673 7.4235H24.4808H24.4673Z" fill="#C6C6C6"/>
<path d="M29.8245 26.0303C29.0106 26.0303 28.1346 25.5813 27.2033 24.6834C26.272 23.7855 20.7963 17.975 17.3977 14.1113C17.1561 13.8381 17.1912 13.4268 17.476 13.1952C17.7594 12.9623 18.1859 12.9948 18.4275 13.2707C21.9719 17.2996 27.3531 22.9877 28.1576 23.7633C29.6773 25.2313 30.2699 24.66 30.6235 24.3216C30.7854 24.1655 31.0081 23.952 31.0392 23.6462C31.0851 23.2025 30.7409 22.6143 30.0458 21.9428C29.2481 21.1724 23.358 15.9918 19.1631 12.5588C18.8783 12.3259 18.8433 11.916 19.0849 11.6427C19.3278 11.3655 19.753 11.3356 20.0364 11.5672C24.0599 14.8583 30.0796 20.1313 31.0027 21.0227C32.0083 21.9922 32.4739 22.9188 32.3848 23.7751C32.3052 24.5415 31.8153 25.0139 31.5804 25.2404C31.0324 25.7674 30.4467 26.0303 29.8245 26.0303V26.0303Z" fill="#C6C6C6"/>
</svg>
