<svg width="48" height="51" viewBox="0 0 48 51" fill="none" xmlns="http://www.w3.org/2000/svg">
<path d="M7.98796 15.3725C12.1002 15.3725 15.4337 13.7057 15.4337 11.6496C15.4337 9.59355 12.1002 7.92676 7.98796 7.92676C3.87577 7.92676 0.542175 9.59355 0.542175 11.6496C0.542175 13.7057 3.87577 15.3725 7.98796 15.3725Z" fill="#123D59"/>
<path d="M24.1205 15.3725C28.2327 15.3725 31.5663 13.7057 31.5663 11.6496C31.5663 9.59355 28.2327 7.92676 24.1205 7.92676C20.0083 7.92676 16.6747 9.59355 16.6747 11.6496C16.6747 13.7057 20.0083 15.3725 24.1205 15.3725Z" fill="#123D59"/>
<path d="M40.253 15.3725C44.3652 15.3725 47.6988 13.7057 47.6988 11.6496C47.6988 9.59355 44.3652 7.92676 40.253 7.92676C36.1408 7.92676 32.8073 9.59355 32.8073 11.6496C32.8073 13.7057 36.1408 15.3725 40.253 15.3725Z" fill="#123D59"/>
<path d="M15.4337 22.8188C19.5459 22.8188 22.8795 21.152 22.8795 19.0959C22.8795 17.0398 19.5459 15.373 15.4337 15.373C11.3215 15.373 7.98795 17.0398 7.98795 19.0959C7.98795 21.152 11.3215 22.8188 15.4337 22.8188Z" fill="#123D59"/>
<path d="M31.5663 22.8188C35.6785 22.8188 39.012 21.152 39.012 19.0959C39.012 17.0398 35.6785 15.373 31.5663 15.373C27.4541 15.373 24.1205 17.0398 24.1205 19.0959C24.1205 21.152 27.4541 22.8188 31.5663 22.8188Z" fill="#123D59"/>
<path d="M15.4337 7.92723C19.5459 7.92723 22.8795 6.26043 22.8795 4.20434C22.8795 2.14824 19.5459 0.481445 15.4337 0.481445C11.3215 0.481445 7.98795 2.14824 7.98795 4.20434C7.98795 6.26043 11.3215 7.92723 15.4337 7.92723Z" fill="#123D59"/>
<path d="M31.5663 7.92723C35.6785 7.92723 39.012 6.26043 39.012 4.20434C39.012 2.14824 35.6785 0.481445 31.5663 0.481445C27.4541 0.481445 24.1205 2.14824 24.1205 4.20434C24.1205 6.26043 27.4541 7.92723 31.5663 7.92723Z" fill="#123D59"/>
<path d="M7.98795 21.7012V50.1192H22.8795V21.7012C21.3904 23.1903 18.6602 24.059 15.4337 24.059C12.7508 24.1805 10.1119 23.3449 7.98795 21.7012Z" fill="#123D59"/>
<path d="M24.1205 21.7012V50.1192H39.012V21.7012C37.5229 23.1903 34.7928 24.059 31.5663 24.059C28.8833 24.1805 26.2445 23.3449 24.1205 21.7012Z" fill="#123D59"/>
<path d="M0.542175 49.9957H6.74699V19.0957C6.76919 18.6004 6.89044 18.1146 7.10359 17.667C7.31674 17.2194 7.61745 16.8191 7.98796 16.4897C5.30501 16.6112 2.66616 15.7755 0.542175 14.1318L0.542175 49.9957Z" fill="#123D59"/>
<path d="M38.888 16.4897C39.2951 16.7951 39.6289 17.1876 39.8651 17.6384C40.1012 18.0892 40.2338 18.5871 40.2531 19.0957V49.9957H47.6988V14.1318C46.2097 15.621 43.4796 16.4897 40.2531 16.4897H38.888Z" fill="#123D59"/>
</svg>
