<svg width="17" height="22" viewBox="0 0 17 22" fill="none" xmlns="http://www.w3.org/2000/svg">
<path d="M9.54352 22C14.1459 22 17 19.5756 17 15.7038C17 12.791 14.8496 10.6119 11.9212 10.3822V10.2595C13.0427 10.0872 14.0669 9.51151 14.809 8.63631C15.5512 7.76111 15.9624 6.64404 15.9685 5.48662C15.9685 2.11882 13.4291 0 9.3818 0H0V22H9.54352ZM4.51279 3.43025H8.21918C10.3237 3.43025 11.5344 4.43613 11.5344 6.20479C11.5344 8.06488 10.1598 9.14882 7.7537 9.14882H4.51279V3.42802V3.43025ZM4.51279 18.5697V12.1821H8.29348C10.9531 12.1821 12.402 13.2794 12.402 15.338C12.402 17.4412 10.9968 18.5697 8.39838 18.5697H4.51061H4.51279Z" fill="#F2B41C"/>
</svg>
