<svg width="28" height="22" viewBox="0 0 28 22" fill="none" xmlns="http://www.w3.org/2000/svg">
<path d="M2.11538 4.23077C2.67642 4.23077 3.21448 4.0079 3.61119 3.61119C4.0079 3.21448 4.23077 2.67642 4.23077 2.11538C4.23077 1.55435 4.0079 1.01629 3.61119 0.619582C3.21448 0.22287 2.67642 0 2.11538 0C1.55435 0 1.01629 0.22287 0.619582 0.619582C0.22287 1.01629 0 1.55435 0 2.11538C0 2.67642 0.22287 3.21448 0.619582 3.61119C1.01629 4.0079 1.55435 4.23077 2.11538 4.23077ZM8.46154 2.11538C8.46154 1.77876 8.59526 1.45593 8.83329 1.2179C9.07131 0.979876 9.39415 0.846154 9.73077 0.846154H25.8077C26.1443 0.846154 26.4671 0.979876 26.7052 1.2179C26.9432 1.45593 27.0769 1.77876 27.0769 2.11538C27.0769 2.45201 26.9432 2.77484 26.7052 3.01287C26.4671 3.25089 26.1443 3.38462 25.8077 3.38462H9.73077C9.39415 3.38462 9.07131 3.25089 8.83329 3.01287C8.59526 2.77484 8.46154 2.45201 8.46154 2.11538ZM9.73077 9.30769C9.39415 9.30769 9.07131 9.44141 8.83329 9.67944C8.59526 9.91747 8.46154 10.2403 8.46154 10.5769C8.46154 10.9135 8.59526 11.2364 8.83329 11.4744C9.07131 11.7124 9.39415 11.8462 9.73077 11.8462H25.8077C26.1443 11.8462 26.4671 11.7124 26.7052 11.4744C26.9432 11.2364 27.0769 10.9135 27.0769 10.5769C27.0769 10.2403 26.9432 9.91747 26.7052 9.67944C26.4671 9.44141 26.1443 9.30769 25.8077 9.30769H9.73077ZM9.73077 17.7692C9.39415 17.7692 9.07131 17.903 8.83329 18.141C8.59526 18.379 8.46154 18.7018 8.46154 19.0385C8.46154 19.3751 8.59526 19.6979 8.83329 19.9359C9.07131 20.174 9.39415 20.3077 9.73077 20.3077H25.8077C26.1443 20.3077 26.4671 20.174 26.7052 19.9359C26.9432 19.6979 27.0769 19.3751 27.0769 19.0385C27.0769 18.7018 26.9432 18.379 26.7052 18.141C26.4671 17.903 26.1443 17.7692 25.8077 17.7692H9.73077ZM4.23077 10.5769C4.23077 11.138 4.0079 11.676 3.61119 12.0727C3.21448 12.4694 2.67642 12.6923 2.11538 12.6923C1.55435 12.6923 1.01629 12.4694 0.619582 12.0727C0.22287 11.676 0 11.138 0 10.5769C0 10.0159 0.22287 9.47783 0.619582 9.08112C1.01629 8.68441 1.55435 8.46154 2.11538 8.46154C2.67642 8.46154 3.21448 8.68441 3.61119 9.08112C4.0079 9.47783 4.23077 10.0159 4.23077 10.5769ZM2.11538 21.1538C2.67642 21.1538 3.21448 20.931 3.61119 20.5343C4.0079 20.1376 4.23077 19.5995 4.23077 19.0385C4.23077 18.4774 4.0079 17.9394 3.61119 17.5427C3.21448 17.1459 2.67642 16.9231 2.11538 16.9231C1.55435 16.9231 1.01629 17.1459 0.619582 17.5427C0.22287 17.9394 0 18.4774 0 19.0385C0 19.5995 0.22287 20.1376 0.619582 20.5343C1.01629 20.931 1.55435 21.1538 2.11538 21.1538Z" fill="#F2B41C"/>
</svg>
