<svg width="13" height="11" viewBox="0 0 13 11" fill="none" xmlns="http://www.w3.org/2000/svg">
<path d="M11.4202 1.75324H9.54325V1.56063C9.54325 1.35568 9.50288 1.15274 9.42445 0.963401C9.34602 0.774057 9.23107 0.602015 9.08615 0.457097C8.94123 0.31218 8.76919 0.197224 8.57985 0.118796C8.3905 0.0403667 8.18756 0 7.98262 0H4.99817C4.58426 0 4.18731 0.164423 3.89464 0.457097C3.60196 0.749772 3.43754 1.14672 3.43754 1.56063V1.75324H1.56063C1.14672 1.75324 0.749771 1.91767 0.457097 2.21034C0.164423 2.50301 0 2.89997 0 3.31387L0 8.97853C0 9.39244 0.164423 9.78939 0.457097 10.0821C0.749771 10.3747 1.14672 10.5392 1.56063 10.5392H11.4202C11.8341 10.5392 12.231 10.3747 12.5237 10.0821C12.8164 9.78939 12.9808 9.39244 12.9808 8.97853V3.31387C12.9805 2.90006 12.816 2.50327 12.5234 2.21066C12.2308 1.91805 11.834 1.75353 11.4202 1.75324ZM6.49532 8.91943C5.91218 8.92052 5.34182 8.74858 4.85643 8.4254C4.37104 8.10221 3.99243 7.64229 3.76852 7.10385C3.54461 6.56541 3.48547 5.97264 3.59857 5.40057C3.71167 4.8285 3.99193 4.30284 4.40389 3.89012C4.81586 3.47739 5.34099 3.19615 5.91285 3.08198C6.48471 2.96782 7.07758 3.02586 7.61644 3.24877C8.1553 3.47168 8.61592 3.84943 8.94001 4.33422C9.2641 4.81901 9.43709 5.38905 9.43709 5.97219C9.43507 6.75323 9.1239 7.50169 8.57163 8.05397C8.01935 8.60625 7.27088 8.91741 6.48985 8.91943H6.49532ZM8.05047 5.97219C8.05047 6.28085 7.95894 6.58258 7.78746 6.83923C7.61598 7.09587 7.37224 7.2959 7.08707 7.41402C6.8019 7.53214 6.48811 7.56305 6.18538 7.50283C5.88265 7.44261 5.60457 7.29398 5.38632 7.07572C5.16806 6.85746 5.01942 6.57938 4.95921 6.27665C4.89899 5.97392 4.92989 5.66013 5.04801 5.37496C5.16613 5.0898 5.36616 4.84606 5.62281 4.67458C5.87945 4.50309 6.18118 4.41156 6.48985 4.41156C6.90357 4.41214 7.30019 4.57675 7.59274 4.8693C7.88528 5.16185 8.04989 5.55846 8.05047 5.97219Z" fill="#63C48C"/>
</svg>
