<svg width="51" height="51" viewBox="0 0 51 51" fill="none" xmlns="http://www.w3.org/2000/svg">
<path d="M15.7108 25.3008C15.7108 27.2643 16.2931 29.1837 17.3839 30.8163C18.4748 32.4489 20.0253 33.7214 21.8394 34.4728C23.6534 35.2242 25.6495 35.4208 27.5753 35.0377C29.5011 34.6546 31.2701 33.7091 32.6585 32.3207C34.0469 30.9323 34.9924 29.1633 35.3755 27.2376C35.7585 25.3118 35.5619 23.3156 34.8105 21.5016C34.0591 19.6875 32.7867 18.137 31.1541 17.0462C29.5215 15.9553 27.602 15.373 25.6385 15.373C23.008 15.3809 20.4874 16.4294 18.6273 18.2895C16.7671 20.1496 15.7187 22.6702 15.7108 25.3008ZM31.8433 25.3008C31.8433 26.528 31.4794 27.7276 30.7976 28.748C30.1159 29.7683 29.1468 30.5636 28.013 31.0333C26.8792 31.5029 25.6316 31.6258 24.428 31.3864C23.2244 31.1469 22.1188 30.556 21.2511 29.6882C20.3833 28.8205 19.7923 27.7149 19.5529 26.5113C19.3135 25.3076 19.4364 24.0601 19.906 22.9263C20.3756 21.7925 21.1709 20.8234 22.1913 20.1416C23.2117 19.4598 24.4113 19.0959 25.6385 19.0959C26.4556 19.0878 27.2661 19.2428 28.0226 19.5517C28.7791 19.8606 29.4663 20.3174 30.0441 20.8952C30.6219 21.473 31.0786 22.1602 31.3876 22.9167C31.6965 23.6732 31.8515 24.4837 31.8433 25.3008Z" fill="#123D59"/>
<path d="M11.9879 25.3011C11.9879 28.0009 12.7885 30.6401 14.2885 32.8849C15.7884 35.1298 17.9203 36.8794 20.4147 37.9126C22.909 38.9457 25.6537 39.2161 28.3016 38.6894C30.9496 38.1627 33.3819 36.8626 35.291 34.9535C37.2 33.0444 38.5001 30.6121 39.0268 27.9642C39.5535 25.3162 39.2832 22.5715 38.25 20.0772C37.2168 17.5829 35.4672 15.4509 33.2224 13.951C30.9776 12.451 28.3384 11.6504 25.6385 11.6504C23.8444 11.6452 22.067 11.9947 20.4085 12.6789C18.7499 13.363 17.243 14.3683 15.9744 15.6369C14.7058 16.9055 13.7005 18.4125 13.0163 20.071C12.3322 21.7295 11.9827 23.507 11.9879 25.3011ZM36.8072 25.3011C36.8072 27.51 36.1522 29.6694 34.9249 31.506C33.6977 33.3427 31.9534 34.7742 29.9126 35.6196C27.8718 36.4649 25.6261 36.6861 23.4596 36.2551C21.2931 35.8242 19.303 34.7605 17.7411 33.1985C16.1791 31.6365 15.1154 29.6465 14.6844 27.48C14.2535 25.3134 14.4747 23.0678 15.32 21.027C16.1653 18.9862 17.5969 17.2419 19.4335 16.0146C21.2702 14.7874 23.4296 14.1324 25.6385 14.1324C27.1069 14.1263 28.562 14.411 29.9198 14.9702C31.2775 15.5293 32.5112 16.3517 33.5495 17.3901C34.5878 18.4284 35.4103 19.662 35.9694 21.0198C36.5285 22.3776 36.8133 23.8327 36.8072 25.3011Z" fill="#123D59"/>
<path d="M25.6386 0.481445C20.7298 0.481445 15.9312 1.93707 11.8497 4.66425C7.7682 7.39142 4.58705 11.2677 2.70854 15.8028C0.830029 20.3379 0.338524 25.3283 1.29618 30.1427C2.25384 34.9572 4.61765 39.3796 8.08868 42.8506C11.5597 46.3216 15.9821 48.6854 20.7966 49.6431C25.611 50.6008 30.6014 50.1093 35.1365 48.2307C39.6716 46.3522 43.5479 43.1711 46.275 39.0896C49.0022 35.0081 50.4578 30.2095 50.4578 25.3007C50.4385 18.7242 47.8174 12.4225 43.1671 7.77218C38.5168 3.12184 32.2151 0.500761 25.6386 0.481445V0.481445ZM40.5301 25.3007C40.5301 28.246 39.6568 31.1251 38.0205 33.574C36.3841 36.0229 34.0584 37.9316 31.3373 39.0587C28.6162 40.1858 25.622 40.4807 22.7334 39.9062C19.8447 39.3316 17.1913 37.9133 15.1086 35.8306C13.026 33.748 11.6077 31.0946 11.0331 28.2059C10.4585 25.3172 10.7534 22.323 11.8806 19.602C13.0077 16.8809 14.9163 14.5551 17.3653 12.9188C19.8142 11.2825 22.6933 10.4092 25.6386 10.4092C29.5845 10.4206 33.3656 11.9932 36.1558 14.7835C38.9461 17.5737 40.5187 21.3548 40.5301 25.3007ZM25.6386 43.9152C20.7126 43.8798 15.9985 41.9072 12.5153 38.424C9.03205 34.9408 7.05952 30.2266 7.02411 25.3007C7.05952 20.3748 9.03205 15.6607 12.5153 12.1774C15.9985 8.69421 20.7126 6.72167 25.6386 6.68626C28.9027 6.70038 32.1081 7.55516 34.9458 9.16819L34.3253 10.2851C31.6908 8.74095 28.6923 7.92706 25.6386 7.92723C22.2024 7.92723 18.8434 8.94617 15.9864 10.8552C13.1293 12.7642 10.9025 15.4776 9.58755 18.6522C8.27259 21.8268 7.92854 25.32 8.5989 28.6901C9.26926 32.0602 10.9239 35.1559 13.3536 37.5856C15.7834 40.0154 18.879 41.67 22.2492 42.3404C25.6193 43.0107 29.1125 42.6667 32.2871 41.3517C35.4617 40.0368 38.1751 37.81 40.0841 34.9529C41.9931 32.0959 43.0121 28.7369 43.0121 25.3007H44.253C44.2176 30.2266 42.2451 34.9408 38.7618 38.424C35.2786 41.9072 30.5645 43.8798 25.6386 43.9152Z" fill="#123D59"/>
</svg>
