<svg width="24" height="24" viewBox="0 0 24 24" fill="none" xmlns="http://www.w3.org/2000/svg">
<path d="M12 0C8.8174 0 5.76516 1.26428 3.51472 3.51472C1.26428 5.76516 0 8.8174 0 12C0 15.1826 1.26428 18.2348 3.51472 20.4853C5.76516 22.7357 8.8174 24 12 24C15.1826 24 18.2348 22.7357 20.4853 20.4853C22.7357 18.2348 24 15.1826 24 12C24 8.8174 22.7357 5.76516 20.4853 3.51472C18.2348 1.26428 15.1826 0 12 0ZM18.8414 16.3729L16.3714 18.8429L12 14.47L7.62714 18.8414L5.15714 16.3714L9.53143 12L5.15857 7.62714L7.62857 5.15857L12 9.53L16.3729 5.15714L18.8429 7.62714L14.4686 12L18.8414 16.3729Z" fill="#797980"/>
</svg>
