<svg width="50" height="51" viewBox="0 0 50 51" fill="none" xmlns="http://www.w3.org/2000/svg">
<path d="M0.36145 0.481445V50.12H50V0.481445H0.36145ZM46.2771 46.3971H4.08434V4.20434H46.2771V46.3971Z" fill="#123D59"/>
<path d="M34.0365 6.57167L7.71167 32.8965L8.58916 33.774L34.914 7.44916L34.0365 6.57167Z" fill="#123D59"/>
<path d="M40.7811 19.9101L23.2312 37.46L24.1087 38.3375L41.6586 20.7876L40.7811 19.9101Z" fill="#123D59"/>
<path d="M29.2736 25.539L11.7237 43.0889L12.6012 43.9664L30.1511 26.4165L29.2736 25.539Z" fill="#123D59"/>
<path d="M41.1945 13.68L30.6646 24.21L31.542 25.0875L42.072 14.5575L41.1945 13.68Z" fill="#123D59"/>
<path d="M27.5439 7.47398L17.014 18.0039L17.8915 18.8814L28.4214 8.35147L27.5439 7.47398Z" fill="#123D59"/>
</svg>
