<svg width="22" height="19" viewBox="0 0 22 19" fill="none" xmlns="http://www.w3.org/2000/svg">
<path d="M5.98783 7.31604C5.25217 7.31604 4.65782 7.91047 4.65782 8.64623C4.65782 9.38199 5.25217 9.97641 5.98783 9.97641C6.7235 9.97641 7.31785 9.38199 7.31785 8.64623C7.31785 7.91047 6.7235 7.31604 5.98783 7.31604ZM10.6429 7.31604C9.90722 7.31604 9.31287 7.91047 9.31287 8.64623C9.31287 9.38199 9.90722 9.97641 10.6429 9.97641C11.3786 9.97641 11.9729 9.38199 11.9729 8.64623C11.9729 7.91047 11.3786 7.31604 10.6429 7.31604ZM15.2979 7.31604C14.5623 7.31604 13.9679 7.91047 13.9679 8.64623C13.9679 9.38199 14.5623 9.97641 15.2979 9.97641C16.0336 9.97641 16.628 9.38199 16.628 8.64623C16.628 7.91047 16.0336 7.31604 15.2979 7.31604ZM10.6429 0C4.76588 0 0.00275846 3.87002 0.00275846 8.64623C0.00275846 10.6249 0.829862 12.4373 2.20144 13.8963C1.58215 15.5341 0.2937 16.9225 0.272918 16.9391C-0.00139784 17.2301 -0.0762113 17.6541 0.0817282 18.0199C0.239668 18.3857 0.601266 18.6226 1.00027 18.6226C3.5564 18.6226 5.5722 17.5543 6.78169 16.698C7.98286 17.0763 9.27962 17.2925 10.6429 17.2925C16.5199 17.2925 21.283 13.4224 21.283 8.64623C21.283 3.87002 16.5199 0 10.6429 0ZM10.6429 15.2972C9.53316 15.2972 8.43589 15.1267 7.38435 14.7942L6.44087 14.4949L5.63039 15.0685C5.03604 15.4884 4.2214 15.9581 3.24052 16.274C3.54393 15.771 3.83902 15.2057 4.06762 14.603L4.50819 13.4349L3.65199 12.5287C2.8997 11.7264 1.99778 10.4004 1.99778 8.64623C1.99778 4.97989 5.87561 1.99528 10.6429 1.99528C15.4102 1.99528 19.288 4.97989 19.288 8.64623C19.288 12.3126 15.4102 15.2972 10.6429 15.2972Z" fill="#666666" fill-opacity="0.9"/>
</svg>
