<svg width="23" height="24" viewBox="0 0 23 24" fill="none" xmlns="http://www.w3.org/2000/svg">
<path fill-rule="evenodd" clip-rule="evenodd" d="M22.1447 0.112324C22.2533 0.179517 22.343 0.273344 22.4052 0.384911C22.4674 0.496478 22.5001 0.622087 22.5002 0.749829V23.25C22.5002 23.4489 22.4211 23.6397 22.2805 23.7803C22.1398 23.921 21.9491 24 21.7502 24H17.2501C17.0512 24 16.8604 23.921 16.7198 23.7803C16.5791 23.6397 16.5001 23.4489 16.5001 23.25V21H15.0001V23.25C15.0001 23.4489 14.9211 23.6397 14.7804 23.7803C14.6398 23.921 14.449 24 14.2501 24H0.750006C0.551092 24 0.360325 23.921 0.219672 23.7803C0.0790182 23.6397 0 23.4489 0 23.25V14.9999C0.000119471 14.8426 0.0497225 14.6893 0.141788 14.5617C0.233854 14.4341 0.36372 14.3387 0.513004 14.2889L9.00007 11.4599V6.74987C9.00007 6.6107 9.0388 6.47428 9.11191 6.35587C9.18503 6.23745 9.28965 6.14172 9.41407 6.07937L21.4142 0.0793242C21.5286 0.0220326 21.6558 -0.00501214 21.7837 0.000764226C21.9116 0.0065406 22.0358 0.0449458 22.1447 0.112324V0.112324ZM9.00007 13.0409L1.50001 15.5399V22.5H9.00007V13.0409ZM10.5001 22.5H13.5001V20.25C13.5001 20.0511 13.5791 19.8603 13.7198 19.7196C13.8604 19.579 14.0512 19.5 14.2501 19.5H17.2501C17.449 19.5 17.6398 19.579 17.7805 19.7196C17.9211 19.8603 18.0001 20.0511 18.0001 20.25V22.5H21.0002V1.96334L10.5001 7.21338V22.5Z" fill="#9DA3AF"/>
<path d="M3 16.4998H4.50001V17.9999H3V16.4998ZM6.00002 16.4998H7.50003V17.9999H6.00002V16.4998ZM3 19.4999H4.50001V20.9999H3V19.4999ZM6.00002 19.4999H7.50003V20.9999H6.00002V19.4999ZM12.0001 13.4998H13.5001V14.9998H12.0001V13.4998ZM15.0001 13.4998H16.5001V14.9998H15.0001V13.4998ZM12.0001 16.4998H13.5001V17.9999H12.0001V16.4998ZM15.0001 16.4998H16.5001V17.9999H15.0001V16.4998ZM18.0001 13.4998H19.5001V14.9998H18.0001V13.4998ZM18.0001 16.4998H19.5001V17.9999H18.0001V16.4998ZM12.0001 10.4998H13.5001V11.9998H12.0001V10.4998ZM15.0001 10.4998H16.5001V11.9998H15.0001V10.4998ZM18.0001 10.4998H19.5001V11.9998H18.0001V10.4998ZM12.0001 7.49978H13.5001V8.99979H12.0001V7.49978ZM15.0001 7.49978H16.5001V8.99979H15.0001V7.49978ZM18.0001 7.49978H19.5001V8.99979H18.0001V7.49978ZM18.0001 4.49976H19.5001V5.99977H18.0001V4.49976Z" fill="#9DA3AF"/>
</svg>
