<svg width="17" height="17" viewBox="0 0 17 17" fill="none" xmlns="http://www.w3.org/2000/svg">
<path d="M6.83333 16H10.1667M14.3333 16V2.66667C14.3333 2.22464 14.1577 1.80072 13.8452 1.48816C13.5326 1.17559 13.1087 1 12.6667 1H4.33333C3.89131 1 3.46738 1.17559 3.15482 1.48816C2.84226 1.80072 2.66667 2.22464 2.66667 2.66667V16H14.3333ZM14.3333 16H16H14.3333ZM14.3333 16H10.1667H14.3333ZM2.66667 16H1H2.66667ZM2.66667 16H6.83333H2.66667ZM6 4.33333H6.83333H6ZM6 7.66667H6.83333H6ZM10.1667 4.33333H11H10.1667ZM10.1667 7.66667H11H10.1667ZM6.83333 16V11.8333C6.83333 11.6123 6.92113 11.4004 7.07741 11.2441C7.23369 11.0878 7.44565 11 7.66667 11H9.33333C9.55435 11 9.76631 11.0878 9.92259 11.2441C10.0789 11.4004 10.1667 11.6123 10.1667 11.8333V16H6.83333Z" stroke="#123D59" stroke-linecap="round" stroke-linejoin="round"/>
</svg>
