<svg width="17" height="16" viewBox="0 0 17 16" fill="none" xmlns="http://www.w3.org/2000/svg">
<path d="M16.0702 2.125H14.3437V3.18748H15.9374V14.8748H1.06262V3.18748H2.65634V2.125H0.929809C0.805625 2.12708 0.683065 2.15359 0.569132 2.20304C0.455198 2.25249 0.352122 2.3239 0.26579 2.41319C0.179458 2.50248 0.111563 2.60791 0.0659817 2.72344C0.0204003 2.83898 -0.00197407 2.96236 0.000136556 3.08655V14.9757C-0.00197407 15.0999 0.0204003 15.2233 0.0659817 15.3388C0.111563 15.4544 0.179458 15.5598 0.26579 15.6491C0.352122 15.7384 0.455198 15.8098 0.569132 15.8592C0.683065 15.9087 0.805625 15.9352 0.929809 15.9373H16.0702C16.1944 15.9352 16.3169 15.9087 16.4309 15.8592C16.5448 15.8098 16.6479 15.7384 16.7342 15.6491C16.8205 15.5598 16.8884 15.4544 16.934 15.3388C16.9796 15.2233 17.002 15.0999 16.9999 14.9757V3.08655C17.002 2.96236 16.9796 2.83898 16.934 2.72344C16.8884 2.60791 16.8205 2.50248 16.7342 2.41319C16.6479 2.3239 16.5448 2.25249 16.4309 2.20304C16.3169 2.15359 16.1944 2.12708 16.0702 2.125Z" fill="#F2B41C"/>
<path d="M3.1875 6.375H4.24998V7.43748H3.1875V6.375Z" fill="#F2B41C"/>
<path d="M6.375 6.375H7.43748V7.43748H6.375V6.375Z" fill="#F2B41C"/>
<path d="M9.5625 6.375H10.625V7.43748H9.5625V6.375Z" fill="#F2B41C"/>
<path d="M12.75 6.375H13.8125V7.43748H12.75V6.375Z" fill="#F2B41C"/>
<path d="M3.1875 9.03125H4.24998V10.0937H3.1875V9.03125Z" fill="#F2B41C"/>
<path d="M6.375 9.03125H7.43748V10.0937H6.375V9.03125Z" fill="#F2B41C"/>
<path d="M9.5625 9.03125H10.625V10.0937H9.5625V9.03125Z" fill="#F2B41C"/>
<path d="M12.75 9.03125H13.8125V10.0937H12.75V9.03125Z" fill="#F2B41C"/>
<path d="M3.1875 11.687H4.24998V12.7495H3.1875V11.687Z" fill="#F2B41C"/>
<path d="M6.375 11.687H7.43748V12.7495H6.375V11.687Z" fill="#F2B41C"/>
<path d="M9.5625 11.687H10.625V12.7495H9.5625V11.687Z" fill="#F2B41C"/>
<path d="M12.75 11.687H13.8125V12.7495H12.75V11.687Z" fill="#F2B41C"/>
<path d="M4.24999 4.24993C4.39089 4.24993 4.52601 4.19396 4.62564 4.09433C4.72526 3.99471 4.78123 3.85958 4.78123 3.71869V0.531241C4.78123 0.390347 4.72526 0.255224 4.62564 0.155597C4.52601 0.0559699 4.39089 0 4.24999 0C4.1091 0 3.97397 0.0559699 3.87435 0.155597C3.77472 0.255224 3.71875 0.390347 3.71875 0.531241V3.71869C3.71875 3.85958 3.77472 3.99471 3.87435 4.09433C3.97397 4.19396 4.1091 4.24993 4.24999 4.24993Z" fill="#F2B41C"/>
<path d="M12.749 4.24993C12.8899 4.24993 13.025 4.19396 13.1247 4.09433C13.2243 3.99471 13.2803 3.85958 13.2803 3.71869V0.531241C13.2803 0.390347 13.2243 0.255224 13.1247 0.155597C13.025 0.0559699 12.8899 0 12.749 0C12.6081 0 12.473 0.0559699 12.3734 0.155597C12.2737 0.255224 12.2178 0.390347 12.2178 0.531241V3.71869C12.2178 3.85958 12.2737 3.99471 12.3734 4.09433C12.473 4.19396 12.6081 4.24993 12.749 4.24993Z" fill="#F2B41C"/>
<path d="M5.84375 2.125H11.1562V3.18748H5.84375V2.125Z" fill="#F2B41C"/>
</svg>
