<svg width="20" height="19" viewBox="0 0 20 19" fill="none" xmlns="http://www.w3.org/2000/svg">
<path d="M18.4243 6.01143C17.9618 4.90981 17.2889 3.9085 16.4431 3.06334C15.5998 2.2167 14.5982 1.54357 13.495 1.08217C12.3648 0.607203 11.1505 0.363737 9.9242 0.36623H9.88296C8.63567 0.372402 7.42962 0.619276 6.29365 1.1048C5.19989 1.57093 4.20763 2.24525 3.37231 3.09008C2.53473 3.93335 1.86953 4.93115 1.41376 6.02789C0.940644 7.16838 0.700915 8.39177 0.708679 9.62609C0.714864 11.0538 1.0571 12.4713 1.6962 13.7386V16.8657C1.6962 17.3882 2.1209 17.812 2.64249 17.812H5.77206C7.04795 18.4545 8.45592 18.7925 9.88503 18.7995H9.92832C11.1612 18.7995 12.3549 18.5609 13.4805 18.0939C14.5782 17.638 15.5761 16.9727 16.4184 16.1354C17.2677 15.2939 17.9357 14.3105 18.4037 13.214C18.8882 12.0784 19.1356 10.8708 19.1418 9.62403C19.1459 8.37114 18.9026 7.15528 18.4243 6.01143ZM5.80917 10.5704C5.2649 10.5704 4.82165 10.1281 4.82165 9.58289C4.82165 9.03771 5.2649 8.59539 5.80917 8.59539C6.35344 8.59539 6.79669 9.03771 6.79669 9.58289C6.79669 10.1281 6.3555 10.5704 5.80917 10.5704ZM9.9242 10.5704C9.37992 10.5704 8.93667 10.1281 8.93667 9.58289C8.93667 9.03771 9.37992 8.59539 9.9242 8.59539C10.4685 8.59539 10.9117 9.03771 10.9117 9.58289C10.9117 10.1281 10.4685 10.5704 9.9242 10.5704ZM14.0392 10.5704C13.495 10.5704 13.0517 10.1281 13.0517 9.58289C13.0517 9.03771 13.495 8.59539 14.0392 8.59539C14.5835 8.59539 15.0267 9.03771 15.0267 9.58289C15.0267 10.1281 14.5835 10.5704 14.0392 10.5704Z" fill="white"/>
</svg>
