<svg width="15" height="15" viewBox="0 0 15 15" fill="none" xmlns="http://www.w3.org/2000/svg">
<path d="M7.5 11.6667C7.94203 11.6667 8.36595 11.8423 8.67851 12.1548C8.99107 12.4674 9.16667 12.8913 9.16667 13.3333C9.16667 13.7754 8.99107 14.1993 8.67851 14.5118C8.36595 14.8244 7.94203 15 7.5 15C7.05797 15 6.63405 14.8244 6.32149 14.5118C6.00893 14.1993 5.83333 13.7754 5.83333 13.3333C5.83333 12.8913 6.00893 12.4674 6.32149 12.1548C6.63405 11.8423 7.05797 11.6667 7.5 11.6667ZM13.3333 11.6667C13.7754 11.6667 14.1993 11.8423 14.5118 12.1548C14.8244 12.4674 15 12.8913 15 13.3333C15 13.7754 14.8244 14.1993 14.5118 14.5118C14.1993 14.8244 13.7754 15 13.3333 15C12.8913 15 12.4674 14.8244 12.1548 14.5118C11.8423 14.1993 11.6667 13.7754 11.6667 13.3333C11.6667 12.8913 11.8423 12.4674 12.1548 12.1548C12.4674 11.8423 12.8913 11.6667 13.3333 11.6667V11.6667ZM1.66667 11.6667C2.10869 11.6667 2.53262 11.8423 2.84518 12.1548C3.15774 12.4674 3.33333 12.8913 3.33333 13.3333C3.33333 13.7754 3.15774 14.1993 2.84518 14.5118C2.53262 14.8244 2.10869 15 1.66667 15C1.22464 15 0.800716 14.8244 0.488155 14.5118C0.175595 14.1993 0 13.7754 0 13.3333C0 12.8913 0.175595 12.4674 0.488155 12.1548C0.800716 11.8423 1.22464 11.6667 1.66667 11.6667V11.6667ZM7.5 5.83333C7.94203 5.83333 8.36595 6.00893 8.67851 6.32149C8.99107 6.63405 9.16667 7.05797 9.16667 7.5C9.16667 7.94203 8.99107 8.36595 8.67851 8.67851C8.36595 8.99107 7.94203 9.16667 7.5 9.16667C7.05797 9.16667 6.63405 8.99107 6.32149 8.67851C6.00893 8.36595 5.83333 7.94203 5.83333 7.5C5.83333 7.05797 6.00893 6.63405 6.32149 6.32149C6.63405 6.00893 7.05797 5.83333 7.5 5.83333V5.83333ZM13.3333 5.83333C13.7754 5.83333 14.1993 6.00893 14.5118 6.32149C14.8244 6.63405 15 7.05797 15 7.5C15 7.94203 14.8244 8.36595 14.5118 8.67851C14.1993 8.99107 13.7754 9.16667 13.3333 9.16667C12.8913 9.16667 12.4674 8.99107 12.1548 8.67851C11.8423 8.36595 11.6667 7.94203 11.6667 7.5C11.6667 7.05797 11.8423 6.63405 12.1548 6.32149C12.4674 6.00893 12.8913 5.83333 13.3333 5.83333V5.83333ZM1.66667 5.83333C2.10869 5.83333 2.53262 6.00893 2.84518 6.32149C3.15774 6.63405 3.33333 7.05797 3.33333 7.5C3.33333 7.94203 3.15774 8.36595 2.84518 8.67851C2.53262 8.99107 2.10869 9.16667 1.66667 9.16667C1.22464 9.16667 0.800716 8.99107 0.488155 8.67851C0.175595 8.36595 0 7.94203 0 7.5C0 7.05797 0.175595 6.63405 0.488155 6.32149C0.800716 6.00893 1.22464 5.83333 1.66667 5.83333V5.83333ZM7.5 0C7.94203 0 8.36595 0.175595 8.67851 0.488155C8.99107 0.800716 9.16667 1.22464 9.16667 1.66667C9.16667 2.10869 8.99107 2.53262 8.67851 2.84518C8.36595 3.15774 7.94203 3.33333 7.5 3.33333C7.05797 3.33333 6.63405 3.15774 6.32149 2.84518C6.00893 2.53262 5.83333 2.10869 5.83333 1.66667C5.83333 1.22464 6.00893 0.800716 6.32149 0.488155C6.63405 0.175595 7.05797 0 7.5 0ZM13.3333 0C13.7754 0 14.1993 0.175595 14.5118 0.488155C14.8244 0.800716 15 1.22464 15 1.66667C15 2.10869 14.8244 2.53262 14.5118 2.84518C14.1993 3.15774 13.7754 3.33333 13.3333 3.33333C12.8913 3.33333 12.4674 3.15774 12.1548 2.84518C11.8423 2.53262 11.6667 2.10869 11.6667 1.66667C11.6667 1.22464 11.8423 0.800716 12.1548 0.488155C12.4674 0.175595 12.8913 0 13.3333 0V0ZM1.66667 0C2.10869 0 2.53262 0.175595 2.84518 0.488155C3.15774 0.800716 3.33333 1.22464 3.33333 1.66667C3.33333 2.10869 3.15774 2.53262 2.84518 2.84518C2.53262 3.15774 2.10869 3.33333 1.66667 3.33333C1.22464 3.33333 0.800716 3.15774 0.488155 2.84518C0.175595 2.53262 0 2.10869 0 1.66667C0 1.22464 0.175595 0.800716 0.488155 0.488155C0.800716 0.175595 1.22464 0 1.66667 0V0Z" fill="#123D59"/>
</svg>
