<svg width="15" height="13" viewBox="0 0 15 13" fill="none" xmlns="http://www.w3.org/2000/svg">
<path d="M6.09375 0C5.72079 0 5.3631 0.158035 5.09938 0.43934C4.83566 0.720644 4.6875 1.10218 4.6875 1.5V2H1.40625C1.03329 2 0.675604 2.15804 0.411881 2.43934C0.148158 2.72064 0 3.10218 0 3.5L0 11.5C0 11.8978 0.148158 12.2794 0.411881 12.5607C0.675604 12.842 1.03329 13 1.40625 13H13.5938C13.9667 13 14.3244 12.842 14.5881 12.5607C14.8518 12.2794 15 11.8978 15 11.5V3.5C15 3.10218 14.8518 2.72064 14.5881 2.43934C14.3244 2.15804 13.9667 2 13.5938 2H10.3125V1.5C10.3125 1.10218 10.1643 0.720644 9.90062 0.43934C9.6369 0.158035 9.27921 0 8.90625 0H6.09375ZM6.09375 1H8.90625C9.03057 1 9.1498 1.05268 9.23771 1.14645C9.32561 1.24021 9.375 1.36739 9.375 1.5V2H5.625V1.5C5.625 1.36739 5.67439 1.24021 5.76229 1.14645C5.8502 1.05268 5.96943 1 6.09375 1V1ZM7.86187 7.914L14.0625 6.151V11.5C14.0625 11.6326 14.0131 11.7598 13.9252 11.8536C13.8373 11.9473 13.7181 12 13.5938 12H1.40625C1.28193 12 1.1627 11.9473 1.07479 11.8536C0.986886 11.7598 0.9375 11.6326 0.9375 11.5V6.15L7.13812 7.914C7.37524 7.98135 7.62476 7.98135 7.86187 7.914V7.914ZM1.40625 3H13.5938C13.7181 3 13.8373 3.05268 13.9252 3.14645C14.0131 3.24021 14.0625 3.36739 14.0625 3.5V5.116L7.62094 6.948C7.5417 6.97057 7.4583 6.97057 7.37906 6.948L0.9375 5.116V3.5C0.9375 3.36739 0.986886 3.24021 1.07479 3.14645C1.1627 3.05268 1.28193 3 1.40625 3V3Z" fill="#123D59"/>
</svg>
