<svg width="13" height="13" viewBox="0 0 13 13" fill="none" xmlns="http://www.w3.org/2000/svg">
<path d="M0.928571 3.71429V12.0714H9.28571V3.71429H0.928571ZM0.464286 2.78571H9.75C9.87314 2.78571 9.99123 2.83463 10.0783 2.9217C10.1654 3.00877 10.2143 3.12686 10.2143 3.25V12.5357C10.2143 12.6588 10.1654 12.7769 10.0783 12.864C9.99123 12.9511 9.87314 13 9.75 13H0.464286C0.341149 13 0.223057 12.9511 0.135986 12.864C0.0489157 12.7769 0 12.6588 0 12.5357V3.25C0 3.12686 0.0489157 3.00877 0.135986 2.9217C0.223057 2.83463 0.341149 2.78571 0.464286 2.78571ZM13 0.464286V10.6786C13 10.8017 12.9511 10.9198 12.864 11.0069C12.7769 11.0939 12.6588 11.1429 12.5357 11.1429H11.1429V10.2143H12.0714V0.928571H4.64286V1.85714H3.71429V0.464286C3.71429 0.341149 3.7632 0.223057 3.85027 0.135986C3.93734 0.0489157 4.05544 0 4.17857 0H12.5357C12.6588 0 12.7769 0.0489157 12.864 0.135986C12.9511 0.223057 13 0.341149 13 0.464286ZM2.78571 8.82143H7.42857V9.75H2.78571V8.82143ZM2.78571 6.03571H7.42857V6.96429H2.78571V6.03571Z" fill="#F1B41C"/>
</svg>
