<svg width="22" height="17" viewBox="0 0 22 17" fill="none" xmlns="http://www.w3.org/2000/svg">
<path d="M14.3102 14.9437L12.1697 12.8018C11.3419 13.0977 10.4471 13.1526 9.58934 12.9598C8.73162 12.7671 7.94626 12.3348 7.32464 11.7132C6.70302 11.0916 6.2707 10.3062 6.07798 9.44847C5.88526 8.59075 5.94007 7.69593 6.23603 6.86814L3.50395 4.13607C1.24402 6.14534 0 8.42914 0 8.42914C0 8.42914 3.97875 15.7235 10.61 15.7235C11.8837 15.7191 13.1431 15.4537 14.3102 14.9437ZM6.90976 1.9146C8.07693 1.40456 9.33626 1.13915 10.61 1.13477C17.2412 1.13477 21.22 8.42914 21.22 8.42914C21.22 8.42914 19.9747 10.7116 17.7174 12.7235L14.9826 9.98881C15.2786 9.16102 15.3334 8.26621 15.1407 7.40849C14.948 6.55076 14.5157 5.7654 13.894 5.14378C13.2724 4.52216 12.4871 4.08984 11.6293 3.89712C10.7716 3.7044 9.87679 3.75921 9.049 4.05517L6.90976 1.91593V1.9146Z" fill="#123D59"/>
<path d="M7.32519 7.9575C7.25223 8.46719 7.29899 8.98687 7.46174 9.47536C7.6245 9.96384 7.89878 10.4077 8.26286 10.7718C8.62694 11.1359 9.07081 11.4102 9.55929 11.5729C10.0478 11.7357 10.5675 11.7824 11.0771 11.7095L7.32386 7.9575H7.32519ZM13.8901 8.89649L10.1382 5.1432C10.6479 5.07024 11.1675 5.117 11.656 5.27975C12.1445 5.44251 12.5884 5.71679 12.9525 6.08087C13.3165 6.44495 13.5908 6.88882 13.7536 7.3773C13.9163 7.86579 13.9631 8.38547 13.8901 8.89516V8.89649ZM18.0957 16.854L2.18066 0.938985L3.11965 0L19.0347 15.915L18.0957 16.854Z" fill="#123D59"/>
</svg>
