<svg width="33" height="33" viewBox="0 0 33 33" fill="none" xmlns="http://www.w3.org/2000/svg">
<path d="M16.6667 1.72646C24.9706 1.72646 31.7261 8.48195 31.7261 16.7858C31.7261 25.0897 24.9706 31.8452 16.6667 31.8452C8.36281 31.8452 1.60732 25.0897 1.60732 16.7858C1.60732 8.48195 8.36281 1.72646 16.6667 1.72646ZM16.6667 0.98584C7.94016 0.98584 0.866699 8.0593 0.866699 16.7858C0.866699 25.5114 7.94016 32.5858 16.6667 32.5858C25.3932 32.5858 32.4667 25.5114 32.4667 16.7858C32.4667 8.0593 25.3932 0.98584 16.6667 0.98584Z" fill="white"/>
<path d="M22.6477 8.81543H10.6852C9.55942 8.81543 8.69141 9.68344 8.69141 10.8092V22.7708C8.69141 23.8965 9.55942 24.7645 10.6852 24.7645H22.6468C23.7725 24.7645 24.6405 23.8965 24.6405 22.7708V10.8092C24.6415 9.68344 23.7725 8.81543 22.6477 8.81543ZM16.6783 13.6571C18.4469 13.6571 19.8808 15.0466 19.8808 16.7599C19.8808 18.4732 18.4469 19.8626 16.6783 19.8626C14.9107 19.8626 13.4768 18.4722 13.4768 16.7599C13.4768 15.0466 14.9107 13.6571 16.6783 13.6571ZM22.6477 22.2731C22.6477 22.6227 22.4986 22.7718 22.1491 22.7718H11.1839C10.8353 22.7718 10.6852 22.6227 10.6852 22.2731V15.2954L11.9274 15.566C11.7941 15.9995 11.722 16.4577 11.722 16.9337C11.722 19.5841 13.9419 21.7359 16.6773 21.7359C19.4147 21.7359 21.6336 19.5851 21.6336 16.9337C21.6336 16.4577 21.5615 15.9995 21.4282 15.566L22.6468 15.2954V22.2731H22.6477ZM22.6477 13.3016C22.6477 13.5772 22.4246 13.8003 22.1491 13.8003H20.1553C19.8798 13.8003 19.6566 13.5772 19.6566 13.3016V11.3079C19.6566 11.0324 19.8798 10.8092 20.1553 10.8092H22.1491C22.4246 10.8092 22.6477 11.0324 22.6477 11.3079V13.3016Z" fill="white"/>
</svg>
