<svg width="32" height="33" viewBox="0 0 32 33" fill="none" xmlns="http://www.w3.org/2000/svg">
<path d="M15.9907 1.73232C24.2946 1.73232 31.05 8.48781 31.05 16.7917C31.05 25.0956 24.2946 31.8511 15.9907 31.8511C7.68679 31.8511 0.931299 25.0956 0.931299 16.7917C0.931299 8.48781 7.68679 1.73232 15.9907 1.73232ZM15.9907 0.991699C7.26414 0.991699 0.190674 8.06516 0.190674 16.7917C0.190674 25.5173 7.26414 32.5917 15.9907 32.5917C24.7172 32.5917 31.7907 25.5173 31.7907 16.7917C31.7907 8.06516 24.7172 0.991699 15.9907 0.991699Z" fill="white"/>
<path d="M13.7103 25.5824H17.3433V16.7897H19.7666L20.0876 13.7601H17.3433L17.3473 12.2433C17.3473 11.4533 17.4223 11.0297 18.556 11.0297H20.0708V7.99902H17.6465C14.7343 7.99902 13.7103 9.46941 13.7103 11.9411V13.7601H11.8953V16.7907H13.7103V25.5824Z" fill="white"/>
</svg>
