<svg width="33" height="33" viewBox="0 0 33 33" fill="none" xmlns="http://www.w3.org/2000/svg">
<path d="M16.3303 1.73184C24.6342 1.73184 31.3896 8.48732 31.3896 16.7912C31.3896 25.0951 24.6342 31.8506 16.3303 31.8506C8.02639 31.8506 1.2709 25.0951 1.2709 16.7912C1.2709 8.48732 8.02639 1.73184 16.3303 1.73184ZM16.3303 0.991211C7.60374 0.991211 0.530273 8.06467 0.530273 16.7912C0.530273 25.5168 7.60374 32.5912 16.3303 32.5912C25.0568 32.5912 32.1303 25.5168 32.1303 16.7912C32.1303 8.06467 25.0568 0.991211 16.3303 0.991211Z" fill="white"/>
<path d="M18.5276 9.76577C16.9575 10.3375 15.9651 11.8109 16.0776 13.4235L16.1152 14.0456L15.4871 13.9696C13.201 13.6773 11.2033 12.6868 9.50681 11.0229L8.67731 10.1973L8.465 10.8066C8.01272 12.1654 8.30206 13.6012 9.24414 14.567C9.74677 15.1003 9.63321 15.1763 8.76717 14.8593C8.46599 14.7576 8.20134 14.6816 8.17665 14.7201C8.08876 14.8089 8.38995 15.9643 8.62892 16.4225C8.95578 17.0585 9.62136 17.6796 10.3501 18.0489L10.9663 18.3412L10.2366 18.3521C9.53347 18.3521 9.5078 18.3649 9.58383 18.6325C9.83466 19.4581 10.8271 20.335 11.9331 20.7162L12.7122 20.9828L12.0338 21.3896C11.0285 21.9752 9.8475 22.3051 8.66645 22.3288C8.10061 22.3416 7.6355 22.392 7.6355 22.4305C7.6355 22.5569 9.16909 23.2679 10.0598 23.5483C12.7359 24.3739 15.9147 24.0174 18.3015 22.6082C19.998 21.6049 21.6935 19.6102 22.4855 17.6786C22.9131 16.6506 23.3397 14.7704 23.3397 13.8688C23.3397 13.2842 23.3772 13.2082 24.0803 12.51C24.4951 12.1032 24.8842 11.6588 24.9602 11.5324C25.0866 11.2905 25.0728 11.2905 24.4329 11.5067C23.3654 11.8879 23.2143 11.8376 23.7426 11.2658C24.1317 10.8589 24.5968 10.1223 24.5968 9.90699C24.5968 9.86946 24.4082 9.93266 24.1949 10.0462C23.9687 10.1736 23.4661 10.3642 23.0889 10.4778L22.4105 10.694L21.7953 10.2733C21.4556 10.0452 20.9796 9.79046 20.7278 9.71442C20.0859 9.53667 19.1063 9.56235 18.5276 9.76577Z" fill="white"/>
</svg>
