<svg width="23" height="23" viewBox="0 0 23 23" fill="none" xmlns="http://www.w3.org/2000/svg">
<path fill-rule="evenodd" clip-rule="evenodd" d="M11.5 23C5.14841 23 0 17.8516 0 11.5C0 5.14841 5.14841 0 11.5 0C17.8516 0 23 5.14841 23 11.5C23 17.8516 17.8516 23 11.5 23ZM11.7013 16.7648C12.4401 17.2759 13.3774 17.5799 14.3923 17.5799C14.6445 17.5799 14.8939 17.5612 15.139 17.5246C15.2231 17.5591 15.3043 17.6015 15.4042 17.659C15.6199 17.7855 15.9081 17.9795 16.2667 18.2412C16.5607 18.4561 16.9769 18.2483 16.9769 17.8868V16.8367C17.1278 16.739 17.2701 16.6333 17.4045 16.519C18.2167 15.8305 18.6875 14.8889 18.6875 13.8791C18.6875 13.2142 18.4863 12.5925 18.1326 12.0556C18.0211 12.4369 17.8701 12.8054 17.682 13.1553C17.7567 13.3874 17.7963 13.6297 17.7963 13.8791C17.7963 14.6222 17.4455 15.3238 16.8245 15.8499C16.6643 15.9852 16.4917 16.1053 16.3092 16.2085C16.2415 16.2467 16.1852 16.3022 16.1459 16.3692C16.1067 16.4363 16.0859 16.5125 16.0856 16.5902V17.0387C15.6594 16.7656 15.3669 16.6369 15.1441 16.6369C15.119 16.637 15.094 16.6391 15.0693 16.6434C14.4449 16.7478 13.8047 16.706 13.1991 16.5212C12.7087 16.6486 12.2075 16.7304 11.702 16.7656L11.7013 16.7648ZM6.33506 14.6647C6.57207 14.8652 6.82281 15.0489 7.08544 15.2145V17.0056C7.08544 17.4584 7.60653 17.7172 7.97381 17.4484C8.98725 16.7081 9.69163 16.2898 9.86772 16.2481C10.2745 16.3128 10.69 16.3451 11.1097 16.3451C14.8472 16.3451 17.9077 13.7526 17.9077 10.5088C17.9077 7.26441 14.8465 4.67188 11.1097 4.67188C7.37294 4.67188 4.3125 7.26441 4.3125 10.5081C4.3125 12.0966 5.05281 13.5779 6.33506 14.6647ZM9.89216 15.1433C9.53062 15.1433 9.00234 15.3985 8.20022 15.9368V14.904C8.19986 14.8068 8.17373 14.7114 8.12449 14.6275C8.07525 14.5437 8.00465 14.4744 7.91991 14.4268C7.61534 14.2544 7.32755 14.0539 7.06028 13.828C6.01594 12.9447 5.42656 11.7631 5.42656 10.5081C5.42656 7.91344 7.95369 5.773 11.1097 5.773C14.2665 5.773 16.7929 7.91344 16.7929 10.5081C16.7929 13.1028 14.2665 15.244 11.1097 15.244C10.7288 15.244 10.3529 15.2123 9.98559 15.1505C9.9547 15.1455 9.92345 15.1431 9.89216 15.1433V15.1433ZM8.21244 11.61C8.70478 11.61 9.10369 11.2147 9.10369 10.7288C9.10369 10.2422 8.70478 9.84759 8.21244 9.84759C7.72009 9.84759 7.32119 10.2422 7.32119 10.7288C7.32119 11.2154 7.72009 11.61 8.21244 11.61ZM11.1097 11.61C11.6021 11.61 12.001 11.2147 12.001 10.7288C12.001 10.2422 11.6021 9.84759 11.1097 9.84759C10.6174 9.84759 10.2185 10.2422 10.2185 10.7288C10.2185 11.2154 10.6174 11.61 11.1097 11.61V11.61ZM14.007 11.61C14.4993 11.61 14.8983 11.2147 14.8983 10.7288C14.8983 10.2422 14.4993 9.84759 14.007 9.84759C13.5147 9.84759 13.1157 10.2422 13.1157 10.7288C13.1157 11.2154 13.5147 11.61 14.007 11.61Z" fill="#8A8A8A"/>
</svg>
