<svg width="21" height="24" viewBox="0 0 21 24" fill="none" xmlns="http://www.w3.org/2000/svg">
<path d="M16.8333 7.33335C18.5823 7.33335 20 5.91558 20 4.16668C20 2.41777 18.5823 1 16.8333 1C15.0844 1 13.6667 2.41777 13.6667 4.16668C13.6667 5.91558 15.0844 7.33335 16.8333 7.33335Z" stroke="#8A8A8A" stroke-width="1.8"/>
<path d="M16.8333 22.1112C18.5823 22.1112 20 20.6934 20 18.9445C20 17.1956 18.5823 15.7778 16.8333 15.7778C15.0844 15.7778 13.6667 17.1956 13.6667 18.9445C13.6667 20.6934 15.0844 22.1112 16.8333 22.1112Z" stroke="#8A8A8A" stroke-width="1.8"/>
<path d="M4.16668 14.7223C5.91558 14.7223 7.33335 13.3045 7.33335 11.5556C7.33335 9.80669 5.91558 8.38892 4.16668 8.38892C2.41777 8.38892 1 9.80669 1 11.5556C1 13.3045 2.41777 14.7223 4.16668 14.7223Z" stroke="#8A8A8A" stroke-width="1.8"/>
<path d="M14.0983 17.349L6.90574 13.1532M14.0983 5.76318L6.90574 9.95903L14.0983 5.76318Z" stroke="#8A8A8A" stroke-width="1.8" stroke-linecap="round" stroke-linejoin="round"/>
</svg>
