<svg width="22" height="24" viewBox="0 0 22 24" fill="none" xmlns="http://www.w3.org/2000/svg">
<path d="M15.5642 7.0514C17.1344 6.67939 18.1058 5.10486 17.7338 3.5346C17.3618 1.96434 15.7872 0.992973 14.217 1.36499C12.6467 1.737 11.6754 3.31152 12.0474 4.88178C12.4194 6.45204 13.9939 7.42341 15.5642 7.0514Z" stroke="white" stroke-width="1.975"/>
<path d="M18.707 20.32C20.2772 19.9479 21.2486 18.3734 20.8766 16.8032C20.5046 15.2329 18.9301 14.2615 17.3598 14.6335C15.7895 15.0056 14.8182 16.5801 15.1902 18.1503C15.5622 19.7206 17.1367 20.692 18.707 20.32Z" stroke="white" stroke-width="1.975"/>
<path d="M5.76338 16.38C7.33364 16.008 8.30501 14.4335 7.933 12.8632C7.56099 11.293 5.98646 10.3216 4.4162 10.6936C2.84595 11.0656 1.87457 12.6401 2.24659 14.2104C2.6186 15.7807 4.19312 16.752 5.76338 16.38Z" stroke="white" stroke-width="1.975"/>
<path d="M15.2387 16.6248L7.88834 14.3875M12.7743 6.2225L7.20891 11.5197L12.7743 6.2225Z" stroke="white" stroke-width="1.975" stroke-linecap="round" stroke-linejoin="round"/>
</svg>
