<svg width="26" height="26" viewBox="0 0 26 26" fill="none" xmlns="http://www.w3.org/2000/svg">
<path d="M25.356 12.678C25.356 16.0404 24.0203 19.2651 21.6427 21.6427C19.2651 24.0203 16.0404 25.356 12.678 25.356C9.31558 25.356 6.09089 24.0203 3.7133 21.6427C1.33571 19.2651 0 16.0404 0 12.678C0 9.31558 1.33571 6.09089 3.7133 3.7133C6.09089 1.33571 9.31558 0 12.678 0C16.0404 0 19.2651 1.33571 21.6427 3.7133C24.0203 6.09089 25.356 9.31558 25.356 12.678ZM8.70978 9.5608H10.0172C10.2359 9.5608 10.4102 9.38172 10.4387 9.16461C10.5814 8.12501 11.2945 7.3675 12.5655 7.3675C13.6526 7.3675 14.6478 7.91107 14.6478 9.21849C14.6478 10.2248 14.0551 10.6876 13.1186 11.3912C12.052 12.1661 11.2074 13.071 11.2676 14.5401L11.2723 14.884C11.274 14.9879 11.3165 15.0871 11.3906 15.16C11.4647 15.233 11.5645 15.2738 11.6685 15.2738H12.9537C13.0588 15.2738 13.1596 15.2321 13.2339 15.1578C13.3082 15.0835 13.3499 14.9827 13.3499 14.8776V14.7112C13.3499 13.5734 13.7826 13.2422 14.9505 12.3563C15.9156 11.6226 16.922 10.808 16.922 9.09805C16.922 6.70349 14.8998 5.54662 12.6859 5.54662C10.678 5.54662 8.47841 6.48163 8.32786 9.16936C8.32569 9.22054 8.33401 9.27162 8.35231 9.31946C8.37062 9.36731 8.39851 9.4109 8.43429 9.44756C8.47006 9.48423 8.51295 9.51318 8.56033 9.53266C8.60771 9.55213 8.65857 9.56171 8.70978 9.5608ZM12.3943 19.7713C13.361 19.7713 14.025 19.1469 14.025 18.3023C14.025 17.4275 13.3594 16.8126 12.3943 16.8126C11.4688 16.8126 10.7953 17.4275 10.7953 18.3023C10.7953 19.1469 11.4688 19.7713 12.3959 19.7713H12.3943Z" fill="#123D59" fill-opacity="0.84"/>
</svg>
