<svg width="19" height="19" viewBox="0 0 19 19" fill="none" xmlns="http://www.w3.org/2000/svg">
<path d="M9.4 0C6.90696 0 4.51604 0.990354 2.7532 2.7532C0.990354 4.51604 0 6.90696 0 9.4C0 11.893 0.990354 14.284 2.7532 16.0468C4.51604 17.8096 6.90696 18.8 9.4 18.8C11.893 18.8 14.284 17.8096 16.0468 16.0468C17.8096 14.284 18.8 11.893 18.8 9.4C18.8 6.90696 17.8096 4.51604 16.0468 2.7532C14.284 0.990354 11.893 0 9.4 0ZM14.7591 12.8254L12.8243 14.7602L9.4 11.3348L5.97459 14.7591L4.03976 12.8243L7.46628 9.4L4.04088 5.97459L5.97571 4.04088L9.4 7.46516L12.8254 4.03976L14.7602 5.97459L11.3337 9.4L14.7591 12.8254Z" fill="#123D59" fill-opacity="0.85"/>
</svg>
