<svg width="26" height="27" viewBox="0 0 26 27" fill="none" xmlns="http://www.w3.org/2000/svg">
<path d="M17.9082 25.0392L17.9083 25.0392V25.0311V20.9542C17.9083 20.16 17.5904 19.4001 17.0273 18.841C16.4644 18.2822 15.7027 17.9697 14.9101 17.9697H11.0778C9.42955 17.9697 8.07962 19.2984 8.07962 20.9542V24.2364L8.04959 24.2464L8.04384 25.0349C8.04174 25.3217 7.80469 25.5667 7.4963 25.5667H4.94148C2.99637 25.5667 1.43325 24.0034 1.43325 22.0919V10.5034C1.45219 9.84682 1.76618 9.23038 2.29342 8.82467L2.30178 8.81824L2.31001 8.81166L11.0012 1.85474L11.0164 1.84256L11.0312 1.82984C12.1309 0.883689 13.7578 0.854192 14.8919 1.76047L14.8952 1.76311L23.7786 8.80635C24.2795 9.22652 24.5666 9.84245 24.5666 10.4891V22.1038C24.5666 23.0211 24.199 23.9024 23.5422 24.5528C22.8851 25.2033 21.9926 25.5691 21.0612 25.5667H21.0584H18.4438C18.2985 25.5667 18.1608 25.509 18.0609 25.4091C17.9612 25.3094 17.9072 25.1761 17.9082 25.0392Z" stroke="#666666" stroke-width="2.2"/>
</svg>
