<svg width="23" height="23" viewBox="0 0 23 23" fill="none" xmlns="http://www.w3.org/2000/svg">
<path d="M18.0714 22.9999H1.64286C1.20728 22.9995 0.789663 22.8263 0.481662 22.5183C0.173661 22.2103 0.000434927 21.7927 0 21.3571V16.4285C0.000434927 15.9929 0.173661 15.5753 0.481662 15.2673C0.789663 14.9593 1.20728 14.7861 1.64286 14.7856H18.0714C18.507 14.7861 18.9246 14.9593 19.2326 15.2673C19.5406 15.5753 19.7139 15.9929 19.7143 16.4285V21.3571C19.7139 21.7927 19.5406 22.2103 19.2326 22.5183C18.9246 22.8263 18.507 22.9995 18.0714 22.9999ZM1.64286 16.4285H1.64121L1.64286 21.3571H18.0714V16.4285H1.64286Z" fill="#F2B41C"/>
<path d="M22.9999 1.15821L21.8417 0L18.8928 2.94893L15.9439 0L14.7856 1.15821L17.7346 4.10714L14.7856 7.05607L15.9439 8.21429L18.8928 5.26536L21.8417 8.21429L22.9999 7.05607L20.051 4.10714L22.9999 1.15821Z" fill="#F2B41C"/>
<path d="M1.64286 9.85707V4.9285H13.1429V3.28564H1.64286C1.20728 3.28608 0.789663 3.45931 0.481662 3.76731C0.173661 4.07531 0.000434927 4.49292 0 4.9285V9.85707C0.000434927 10.2927 0.173661 10.7103 0.481662 11.0183C0.789663 11.3263 1.20728 11.4995 1.64286 11.4999H19.7143V9.85707H1.64286Z" fill="#F2B41C"/>
</svg>
