<svg width="18" height="18" viewBox="0 0 18 18" fill="none" xmlns="http://www.w3.org/2000/svg">
<path d="M9.00002 5.22603C11.0811 5.22603 12.7742 6.91919 12.7742 9.00022C12.7742 11.0813 11.0811 12.7744 9.00002 12.7744C6.91899 12.7744 5.22583 11.0813 5.22583 9.00022C5.22583 6.91919 6.91899 5.22603 9.00002 5.22603ZM9.00002 12.1938C9.31212 12.1938 9.64454 11.7504 9.8736 11.0325H8.12644C8.35551 11.7504 8.68793 12.1938 9.00002 12.1938ZM10.0217 10.4518C10.0925 10.1008 10.1401 9.71064 10.1552 9.29054H7.84483C7.85993 9.71064 7.90783 10.1008 7.97838 10.4518H10.0217ZM12.1788 9.29054H10.7356C10.7222 9.70251 10.6822 10.0927 10.6168 10.4518H11.8411C12.0229 10.0973 12.1413 9.7057 12.1788 9.29054ZM9.00002 5.80667C8.68793 5.80667 8.35551 6.24999 8.12644 6.96796H9.8736C9.64454 6.24999 9.31212 5.80667 9.00002 5.80667ZM7.97838 7.54861C7.90754 7.89961 7.85993 8.2898 7.84483 8.7099H10.1552C10.1401 8.2898 10.0922 7.89961 10.0217 7.54861H7.97838ZM10.7356 8.7099H12.1788C12.141 8.29474 12.0229 7.90309 11.8408 7.54861H10.6165C10.6822 7.90774 10.7225 8.29793 10.7356 8.7099ZM7.26448 9.29054H5.82128C5.85902 9.7057 5.97718 10.0973 6.15922 10.4518H7.38351C7.31789 10.0927 7.27754 9.70251 7.26448 9.29054ZM7.26448 8.7099C7.27783 8.29793 7.31789 7.90774 7.38322 7.54861H6.15893C5.97719 7.90309 5.85873 8.29474 5.82099 8.7099H7.26448ZM6.53838 6.96796H7.51793C7.62477 6.59199 7.76122 6.2648 7.92177 5.99799C7.3777 6.19396 6.90041 6.53045 6.53838 6.96796ZM10.0783 5.99799C10.2388 6.2648 10.3753 6.59199 10.4821 6.96796H11.4617C11.0996 6.53045 10.6223 6.19396 10.0783 5.99799ZM11.4617 11.0325H10.4821C10.3753 11.4084 10.2388 11.7356 10.0783 12.0024C10.6223 11.8065 11.0996 11.47 11.4617 11.0325ZM7.92177 12.0024C7.76122 11.7356 7.62477 11.4084 7.51793 11.0325H6.53838C6.90041 11.47 7.3777 11.8065 7.92177 12.0024Z" fill="#123D59"/>
<path d="M15.0966 13.9356H14.516C14.356 13.9356 14.2257 14.0657 14.2257 14.226H13.645C13.645 13.7458 14.0358 13.355 14.516 13.355V12.7744H15.0966V13.355C15.5768 13.355 15.9676 13.7458 15.9676 14.226C15.9676 14.7062 15.5768 15.0969 15.0966 15.0969H14.516C14.356 15.0969 14.2257 15.227 14.2257 15.3873C14.2257 15.5475 14.356 15.6776 14.516 15.6776H15.0966C15.2566 15.6776 15.387 15.5475 15.387 15.3873H15.9676C15.9676 15.8674 15.5768 16.2582 15.0966 16.2582V16.8389H14.516V16.2582C14.0358 16.2582 13.645 15.8674 13.645 15.3873C13.645 14.9071 14.0358 14.5163 14.516 14.5163H15.0966C15.2566 14.5163 15.387 14.3862 15.387 14.226C15.387 14.0657 15.2566 13.9356 15.0966 13.9356Z" fill="#123D59"/>
<path d="M14.8063 11.6129C16.5671 11.6129 17.9999 13.0456 17.9999 14.8065C17.9999 16.5673 16.5671 18 14.8063 18C13.0455 18 11.6128 16.5673 11.6128 14.8065C11.6128 13.0456 13.0455 11.6129 14.8063 11.6129ZM14.8063 17.4194C16.2469 17.4194 17.4192 16.2473 17.4192 14.8065C17.4192 13.3656 16.2469 12.1935 14.8063 12.1935C13.3658 12.1935 12.1934 13.3656 12.1934 14.8065C12.1934 16.2473 13.3658 17.4194 14.8063 17.4194Z" fill="#123D59"/>
<path d="M15.9406 3.27217C16.136 3.48004 16.258 3.75759 16.258 4.06475V4.26711L16.5654 4.72814C16.744 4.9964 16.8386 5.30849 16.8386 5.63104C16.8386 6.52814 16.1084 7.2583 15.2113 7.2583H14.4016C13.5042 7.2583 12.7741 6.52814 12.7741 5.63104C12.7741 5.30878 12.8687 4.9964 13.0473 4.72843L13.3547 4.26711V4.06475C13.3547 3.75759 13.4767 3.48004 13.6721 3.27217C12.4701 2.81317 11.6128 1.65159 11.6128 0.290558V0.000235558H17.9999V0.290558C17.9999 1.65159 17.1426 2.81317 15.9406 3.27217ZM14.4013 6.67766H15.2111C15.7885 6.67766 16.258 6.2082 16.258 5.63104C16.258 5.49343 16.2286 5.3593 16.177 5.23359C16.096 5.40895 15.9575 5.55556 15.7766 5.64614L14.8063 6.13127L13.8361 5.64614C13.6552 5.55556 13.5167 5.40895 13.4357 5.23359C13.3841 5.3593 13.3547 5.49314 13.3547 5.63104C13.3547 6.2082 13.8242 6.67766 14.4013 6.67766ZM14.516 3.48411C14.1958 3.48411 13.9354 3.74453 13.9354 4.06475V4.8672C13.9354 4.97782 13.9969 5.0774 14.0959 5.12704L14.8063 5.48211L15.5168 5.12675C15.6158 5.07711 15.6773 4.97782 15.6773 4.8672V4.06475C15.6773 3.74453 15.4169 3.48411 15.0967 3.48411H14.516ZM12.2094 0.580881C12.3543 1.88559 13.4636 2.90346 14.8063 2.90346C16.1491 2.90346 17.2584 1.88559 17.4033 0.580881H12.2094Z" fill="#123D59"/>
<path d="M6.01026 4.89321L4.8931 6.01037L4.22129 5.67446L3.98352 6.38721H2.40358L2.16581 5.67446L1.494 6.01037L0.376839 4.89321L0.713032 4.22111L0 3.98363V2.40398L0.713032 2.1665L0.376839 1.4944L1.494 0.377239L2.16581 0.713143L2.40358 0.000110626H3.98323L4.221 0.712853L4.89281 0.376949L6.00997 1.49411L5.67377 2.16621L6.3871 2.40369V3.98334L5.67406 4.22082L6.01026 4.89321ZM5.80645 3.56498V2.82205L5.13929 2.59966L5.09052 2.47046C5.07658 2.43359 5.06206 2.3973 5.0461 2.36159L4.98977 2.23588L5.30361 1.60821L4.77842 1.08301L4.15074 1.39685L4.02503 1.34053C3.98874 1.32427 3.95216 1.31005 3.915 1.29553L3.78697 1.24647L3.56487 0.580756H2.82194L2.59984 1.24676L2.47181 1.29582C2.43465 1.31034 2.39777 1.32485 2.36177 1.34082L2.23606 1.39714L1.60839 1.0833L1.08319 1.6085L1.39703 2.23617L1.34071 2.36188C1.32474 2.39759 1.31023 2.43388 1.29629 2.47076L1.24752 2.59995L0.580645 2.82234V3.56527L1.24781 3.78766L1.29658 3.91685C1.31052 3.95372 1.32503 3.99001 1.341 4.02572L1.39732 4.15143L1.08319 4.77882L1.60839 5.30401L2.23606 4.99017L2.36177 5.0465C2.39806 5.06276 2.43465 5.07698 2.47181 5.0915L2.59984 5.14056L2.82223 5.80656H3.56516L3.78726 5.14056L3.91529 5.0915C3.95245 5.07698 3.98932 5.06247 4.02532 5.0465L4.15103 4.99017L4.77871 5.30401L5.3039 4.77882L4.99006 4.15114L5.04639 4.02543C5.06235 3.98972 5.07687 3.95343 5.09081 3.91656L5.13958 3.78737L5.80645 3.56498Z" fill="#123D59"/>
<path d="M3.19356 4.64502C2.39314 4.64502 1.74194 3.99383 1.74194 3.19341C1.74194 2.39299 2.39314 1.74179 3.19356 1.74179C3.99398 1.74179 4.64517 2.39299 4.64517 3.19341C4.64517 3.99383 3.99398 4.64502 3.19356 4.64502ZM3.19356 2.32244C2.71336 2.32244 2.32259 2.71321 2.32259 3.19341C2.32259 3.6736 2.71336 4.06437 3.19356 4.06437C3.67375 4.06437 4.06452 3.6736 4.06452 3.19341C4.06452 2.71321 3.67375 2.32244 3.19356 2.32244Z" fill="#123D59"/>
<path d="M5.80645 18H0V12.7742H5.80645V18ZM2.32258 17.4194H3.48387V16.8387H2.32258V17.4194ZM5.22581 13.3548H0.580645V17.4194H1.74194V16.2581H4.06452V17.4194H5.22581V13.3548Z" fill="#123D59"/>
<path d="M14.5161 11.0322H15.0968V7.83868H14.5161V11.0322Z" fill="#123D59"/>
<path d="M6.38721 15.0967H11.0324V14.516H6.38721V15.0967Z" fill="#123D59"/>
<path d="M2.90332 12.1934H3.48397V6.96755H2.90332V12.1934Z" fill="#123D59"/>
<path d="M6.96777 3.48389H12.1936V2.90324H6.96777V3.48389Z" fill="#123D59"/>
</svg>
