<svg width="15" height="16" viewBox="0 0 15 16" fill="none" xmlns="http://www.w3.org/2000/svg">
<path d="M8.90625 12H1.875L1.87359 4.453L7.23328 8.411C7.31165 8.46884 7.40469 8.49983 7.5 8.49983C7.59531 8.49983 7.68835 8.46884 7.76672 8.411L13.125 4.455V9H14.0625V4C14.0621 3.73491 13.9632 3.48078 13.7875 3.29333C13.6118 3.10588 13.3735 3.0004 13.125 3H1.875C1.62644 3.00026 1.38812 3.10571 1.21236 3.29319C1.0366 3.48066 0.937748 3.73486 0.9375 4V12C0.937872 12.2651 1.03676 12.5192 1.2125 12.7067C1.38823 12.8941 1.62647 12.9996 1.875 13H8.90625V12ZM12.0933 4L7.5 7.392L2.90672 4H12.0933Z" fill="#123D59"/>
<path d="M12.1875 14C13.223 14 14.0625 13.1046 14.0625 12C14.0625 10.8954 13.223 10 12.1875 10C11.152 10 10.3125 10.8954 10.3125 12C10.3125 13.1046 11.152 14 12.1875 14Z" fill="#123D59"/>
</svg>
