<svg width="23" height="23" viewBox="0 0 23 23" fill="none" xmlns="http://www.w3.org/2000/svg">
<path d="M0 3.11458C0 2.28854 0.328143 1.49634 0.91224 0.91224C1.49634 0.328143 2.28854 0 3.11458 0H17.9687C18.7948 0 19.587 0.328143 20.1711 0.91224C20.7552 1.49634 21.0833 2.28854 21.0833 3.11458V11.0208C20.6384 10.6862 20.156 10.4044 19.6458 10.1813V3.11458C19.6458 2.66979 19.4691 2.24322 19.1546 1.92871C18.8401 1.61419 18.4135 1.4375 17.9687 1.4375H3.11458C2.66979 1.4375 2.24322 1.61419 1.92871 1.92871C1.61419 2.24322 1.4375 2.66979 1.4375 3.11458V17.9687C1.4375 18.8945 2.18883 19.6458 3.11458 19.6458H10.1813C10.4056 20.1585 10.6883 20.6406 11.0199 21.0833H3.11458C2.28854 21.0833 1.49634 20.7552 0.91224 20.1711C0.328143 19.587 0 18.7948 0 17.9687V3.11458Z" fill="#F2B41C"/>
<path d="M2.875 9.09749C2.875 8.46208 3.12742 7.85269 3.57672 7.40338C4.02603 6.95408 4.63542 6.70166 5.27083 6.70166C5.90625 6.70166 6.51564 6.95408 6.96494 7.40338C7.41425 7.85269 7.66667 8.46208 7.66667 9.09749C7.66667 9.73291 7.41425 10.3423 6.96494 10.7916C6.51564 11.2409 5.90625 11.4933 5.27083 11.4933C4.63542 11.4933 4.02603 11.2409 3.57672 10.7916C3.12742 10.3423 2.875 9.73291 2.875 9.09749ZM5.27083 8.13916C5.01667 8.13916 4.77291 8.24013 4.59319 8.41985C4.41347 8.59957 4.3125 8.84333 4.3125 9.09749C4.3125 9.35166 4.41347 9.59541 4.59319 9.77514C4.77291 9.95486 5.01667 10.0558 5.27083 10.0558C5.525 10.0558 5.76875 9.95486 5.94848 9.77514C6.1282 9.59541 6.22917 9.35166 6.22917 9.09749C6.22917 8.84333 6.1282 8.59957 5.94848 8.41985C5.76875 8.24013 5.525 8.13916 5.27083 8.13916Z" fill="#F2B41C"/>
<path d="M5.27083 13.4136C4.63542 13.4136 4.02603 13.666 3.57672 14.1153C3.12742 14.5646 2.875 15.174 2.875 15.8094C2.875 16.4448 3.12742 17.0542 3.57672 17.5035C4.02603 17.9528 4.63542 18.2052 5.27083 18.2052C5.90625 18.2052 6.51564 17.9528 6.96494 17.5035C7.41425 17.0542 7.66667 16.4448 7.66667 15.8094C7.66667 15.174 7.41425 14.5646 6.96494 14.1153C6.51564 13.666 5.90625 13.4136 5.27083 13.4136ZM4.3125 15.8094C4.3125 15.5552 4.41347 15.3115 4.59319 15.1318C4.77291 14.952 5.01667 14.8511 5.27083 14.8511C5.525 14.8511 5.76875 14.952 5.94848 15.1318C6.1282 15.3115 6.22917 15.5552 6.22917 15.8094C6.22917 16.0636 6.1282 16.3073 5.94848 16.4871C5.76875 16.6668 5.525 16.7677 5.27083 16.7677C5.01667 16.7677 4.77291 16.6668 4.59319 16.4871C4.41347 16.3073 4.3125 16.0636 4.3125 15.8094Z" fill="#F2B41C"/>
<path d="M8.625 8.38525C8.625 8.19463 8.70073 8.01181 8.83552 7.87702C8.97031 7.74223 9.15313 7.6665 9.34375 7.6665H17.4896C17.584 7.6665 17.6774 7.6851 17.7646 7.72122C17.8518 7.75734 17.9311 7.81028 17.9978 7.87702C18.0646 7.94376 18.1175 8.023 18.1536 8.1102C18.1897 8.1974 18.2083 8.29087 18.2083 8.38525C18.2083 8.47964 18.1897 8.5731 18.1536 8.66031C18.1175 8.74751 18.0646 8.82674 17.9978 8.89349C17.9311 8.96023 17.8518 9.01317 17.7646 9.04929C17.6774 9.08541 17.584 9.104 17.4896 9.104H9.34375C9.15313 9.104 8.97031 9.02828 8.83552 8.89349C8.70073 8.75869 8.625 8.57588 8.625 8.38525Z" fill="#F2B41C"/>
<path d="M3.59375 2.91992C3.40313 2.91992 3.22031 2.99565 3.08552 3.13044C2.95073 3.26523 2.875 3.44805 2.875 3.63867C2.875 3.8293 2.95073 4.01211 3.08552 4.14691C3.22031 4.2817 3.40313 4.35742 3.59375 4.35742H17.4896C17.6802 4.35742 17.863 4.2817 17.9978 4.14691C18.1326 4.01211 18.2083 3.8293 18.2083 3.63867C18.2083 3.44805 18.1326 3.26523 17.9978 3.13044C17.863 2.99565 17.6802 2.91992 17.4896 2.91992H3.59375Z" fill="#F2B41C"/>
<path d="M23 16.7707C23 18.4227 22.3437 20.0072 21.1755 21.1754C20.0073 22.3436 18.4229 22.9998 16.7709 22.9998C15.1188 22.9998 13.5344 22.3436 12.3662 21.1754C11.198 20.0072 10.5417 18.4227 10.5417 16.7707C10.5417 15.1186 11.198 13.5342 12.3662 12.366C13.5344 11.1978 15.1188 10.5415 16.7709 10.5415C18.4229 10.5415 20.0073 11.1978 21.1755 12.366C22.3437 13.5342 23 15.1186 23 16.7707ZM17.25 12.9373C17.25 12.8103 17.1995 12.6884 17.1097 12.5985C17.0198 12.5087 16.8979 12.4582 16.7709 12.4582C16.6438 12.4582 16.5219 12.5087 16.432 12.5985C16.3422 12.6884 16.2917 12.8103 16.2917 12.9373V16.2915H12.9375C12.8104 16.2915 12.6886 16.342 12.5987 16.4318C12.5088 16.5217 12.4584 16.6436 12.4584 16.7707C12.4584 16.8978 12.5088 17.0196 12.5987 17.1095C12.6886 17.1994 12.8104 17.2498 12.9375 17.2498H16.2917V20.604C16.2917 20.7311 16.3422 20.853 16.432 20.9428C16.5219 21.0327 16.6438 21.0832 16.7709 21.0832C16.8979 21.0832 17.0198 21.0327 17.1097 20.9428C17.1995 20.853 17.25 20.7311 17.25 20.604V17.2498H20.6042C20.7313 17.2498 20.8531 17.1994 20.943 17.1095C21.0329 17.0196 21.0834 16.8978 21.0834 16.7707C21.0834 16.6436 21.0329 16.5217 20.943 16.4318C20.8531 16.342 20.7313 16.2915 20.6042 16.2915H17.25V12.9373Z" fill="#F2B41C"/>
</svg>
