<svg width="23" height="23" viewBox="0 0 23 23" fill="none" xmlns="http://www.w3.org/2000/svg">
<path d="M22.3215 11.017L11.9715 0.667C11.5575 0.253 10.9825 0 10.35 0H2.3C1.035 0 0 1.035 0 2.3V10.35C0 10.9825 0.253 11.5575 0.6785 11.983L11.0285 22.333C11.4425 22.747 12.0175 23 12.65 23C13.2825 23 13.8575 22.747 14.2715 22.3215L22.3215 14.2715C22.747 13.8575 23 13.2825 23 12.65C23 12.0175 22.7355 11.431 22.3215 11.017ZM12.65 20.7115L2.3 10.35V2.3H10.35V2.2885L20.7 12.6385L12.65 20.7115Z" fill="#F2B41C"/>
<path d="M5.17489 6.9002C6.12758 6.9002 6.89989 6.12789 6.89989 5.1752C6.89989 4.2225 6.12758 3.4502 5.17489 3.4502C4.2222 3.4502 3.44989 4.2225 3.44989 5.1752C3.44989 6.12789 4.2222 6.9002 5.17489 6.9002Z" fill="#F2B41C"/>
</svg>
