<svg width="29" height="26" viewBox="0 0 29 26" fill="none" xmlns="http://www.w3.org/2000/svg">
<path d="M28.4762 13C28.4762 12.8107 28.3608 12.6371 28.1768 12.5497L22.8117 10.0022L28.1768 7.45464C28.3608 7.36723 28.4762 7.19365 28.4762 7.00438C28.4762 6.81511 28.3608 6.64152 28.1768 6.55412L23.5557 4.35983C23.283 4.23046 22.9474 4.32715 22.8056 4.5758C22.6638 4.82446 22.7697 5.13097 23.0423 5.26035L26.7151 7.00433L14.2381 12.9289L1.76113 7.00433L14.2381 1.07972L18.6023 3.15199C18.8749 3.28137 19.2106 3.18463 19.3524 2.93602C19.4941 2.68737 19.3882 2.38085 19.1157 2.25148L14.4948 0.0572909C14.3338 -0.019097 14.1423 -0.019097 13.9814 0.0572909L0.299445 6.55407C0.115407 6.64142 0 6.81501 0 7.00433C0 7.19365 0.115407 7.36718 0.299445 7.45459L5.66449 10.0021L0.299445 12.5497C0.115407 12.6371 0 12.8107 0 13C0 13.1893 0.115407 13.3628 0.299445 13.4503L5.66449 15.9978L0.299445 18.5454C0.115407 18.6328 0 18.8064 0 18.9957C0 19.1849 0.115407 19.3585 0.299445 19.4459L13.9814 25.9427C14.0619 25.9809 14.15 26 14.2381 26C14.3263 26 14.4144 25.9809 14.4948 25.9427L28.1768 19.4459C28.3608 19.3585 28.4762 19.1849 28.4762 18.9957C28.4762 18.8064 28.3608 18.6328 28.1768 18.5454L22.8117 15.9978L28.1768 13.4503C28.3608 13.3628 28.4762 13.1893 28.4762 13V13ZM14.4948 13.9514L21.6067 10.5743L23.2649 11.3617L10.8078 17.2957L8.58853 16.2419L13.6968 13.8163L13.9813 13.9514C14.0618 13.9895 14.1499 14.0087 14.2381 14.0087C14.3262 14.0087 14.4144 13.9895 14.4948 13.9514ZM12.4919 13.2441L7.38352 15.6697L5.17483 14.6209L10.2832 12.1953L12.4919 13.2441ZM6.8695 10.5743L9.07818 11.6231L3.96982 14.0488L1.76108 12.9999L6.8695 10.5743ZM26.7151 18.9957L14.2381 24.9203L1.76113 18.9957L6.8695 16.57L13.9814 19.9471C14.0619 19.9852 14.15 20.0044 14.2381 20.0044C14.3263 20.0044 14.4144 19.9853 14.4948 19.9471L21.6067 16.57L26.7151 18.9957ZM14.2381 18.9246L12.0116 17.8673L24.4687 11.9334L26.7151 13L14.2381 18.9246Z" fill="#C6C6C6"/>
<path d="M21.0785 4.26414C21.2247 4.26414 21.3682 4.20984 21.4716 4.11543C21.5751 4.02102 21.6346 3.89007 21.6346 3.75658C21.6346 3.6231 21.5751 3.49215 21.4716 3.39774C21.3682 3.30333 21.2247 3.24902 21.0785 3.24902C20.9322 3.24902 20.7887 3.30333 20.6852 3.39774C20.5818 3.49215 20.5223 3.6231 20.5223 3.75658C20.5223 3.89007 20.5817 4.02102 20.6852 4.11543C20.7887 4.20984 20.9322 4.26414 21.0785 4.26414Z" fill="#C6C6C6"/>
</svg>
