<svg width="16" height="22" viewBox="0 0 16 22" fill="none" xmlns="http://www.w3.org/2000/svg">
<path d="M15.7812 0H3.96581C3.84547 0 3.74701 0.1125 3.74701 0.25V2.25C3.74701 2.3875 3.84547 2.5 3.96581 2.5H8.92171L4.65504 19.5H0.218803C0.0984615 19.5 0 19.6125 0 19.75V21.75C0 21.8875 0.0984615 22 0.218803 22H12.0342C12.1545 22 12.253 21.8875 12.253 21.75V19.75C12.253 19.6125 12.1545 19.5 12.0342 19.5H6.9306L11.1973 2.5H15.7812C15.9015 2.5 16 2.3875 16 2.25V0.25C16 0.1125 15.9015 0 15.7812 0Z" fill="#F2B41C"/>
</svg>
