<svg width="14" height="15" viewBox="0 0 14 15" fill="none" xmlns="http://www.w3.org/2000/svg">
<path d="M1.4 14.2756H2.1V5.17559H1.4C1.0287 5.17559 0.672601 5.32309 0.41005 5.58564C0.1475 5.84819 0 6.20428 0 6.57559V12.8756C0 13.2469 0.1475 13.603 0.41005 13.8655C0.672601 14.1281 1.0287 14.2756 1.4 14.2756ZM12.6 5.17559H7.7L8.4854 2.81799C8.55548 2.60758 8.57457 2.38353 8.5411 2.16429C8.50763 1.94506 8.42256 1.73692 8.29288 1.557C8.16321 1.37709 7.99265 1.23056 7.79526 1.12947C7.59786 1.02839 7.37927 0.975643 7.1575 0.975586H7L3.5 4.78219V14.2756H11.2L13.9384 8.25839L14 7.97559V6.57559C14 6.20428 13.8525 5.84819 13.5899 5.58564C13.3274 5.32309 12.9713 5.17559 12.6 5.17559Z" fill="#666666"/>
</svg>
