<svg width="14" height="14" viewBox="0 0 14 14" fill="none" xmlns="http://www.w3.org/2000/svg">
<path d="M12.6 4.2H8.6716L9.4577 1.8431C9.5991 1.4175 9.5277 0.9457 9.2652 0.5817C9.0027 0.2177 8.5771 0 8.1284 0H7C6.7921 0 6.5954 0.0923999 6.4617 0.252L3.1717 4.2H1.4C0.6279 4.2 0 4.8279 0 5.6V11.9C0 12.6721 0.6279 13.3 1.4 13.3H10.7149C10.9997 13.2991 11.2775 13.2117 11.5117 13.0495C11.7458 12.8872 11.9251 12.6578 12.026 12.3914L13.9559 7.2457C13.9852 7.1671 14.0001 7.08388 14 7V5.6C14 4.8279 13.3721 4.2 12.6 4.2ZM1.4 5.6H2.8V11.9H1.4V5.6ZM12.6 6.8733L10.7149 11.9H4.2V5.1534L7.3276 1.4H8.1298L7.0364 4.6781C7.0009 4.78332 6.991 4.89549 7.00752 5.0053C7.02403 5.11511 7.06649 5.2194 7.13136 5.30953C7.19624 5.39965 7.28166 5.47302 7.38055 5.52353C7.47944 5.57405 7.58895 5.60026 7.7 5.6H12.6V6.8733Z" fill="#666666"/>
</svg>
