<svg width="16" height="14" viewBox="0 0 16 14" fill="none" xmlns="http://www.w3.org/2000/svg">
<path d="M1.6 13.3H2.4V4.2H1.6C1.17565 4.2 0.768687 4.3475 0.468629 4.61005C0.168571 4.8726 0 5.2287 0 5.6V11.9C0 12.2713 0.168571 12.6274 0.468629 12.8899C0.768687 13.1525 1.17565 13.3 1.6 13.3ZM14.4 4.2H8.8L9.6976 1.8424C9.77769 1.63199 9.79951 1.40794 9.76126 1.18871C9.72301 0.969475 9.62578 0.76133 9.47758 0.581416C9.32939 0.401503 9.13446 0.254969 8.90887 0.153885C8.68327 0.0528006 8.43346 5.74789e-05 8.18 0H8L4 3.8066V13.3H12.8L15.9296 7.2828L16 7V5.6C16 5.2287 15.8314 4.8726 15.5314 4.61005C15.2313 4.3475 14.8243 4.2 14.4 4.2Z" fill="#666666"/>
</svg>
