<svg width="20" height="22" viewBox="0 0 20 22" fill="none" xmlns="http://www.w3.org/2000/svg">
<path d="M3.15787 6.31558C4.90191 6.31558 6.31573 5.60867 6.31573 4.73665C6.31573 3.86463 4.90191 3.15771 3.15787 3.15771C1.41383 3.15771 0 3.86463 0 4.73665C0 5.60867 1.41383 6.31558 3.15787 6.31558Z" fill="#123D59"/>
<path d="M9.99979 6.31558C11.7438 6.31558 13.1577 5.60867 13.1577 4.73665C13.1577 3.86463 11.7438 3.15771 9.99979 3.15771C8.25574 3.15771 6.84192 3.86463 6.84192 4.73665C6.84192 5.60867 8.25574 6.31558 9.99979 6.31558Z" fill="#123D59"/>
<path d="M16.8421 6.31558C18.5861 6.31558 19.9999 5.60867 19.9999 4.73665C19.9999 3.86463 18.5861 3.15771 16.8421 3.15771C15.098 3.15771 13.6842 3.86463 13.6842 4.73665C13.6842 5.60867 15.098 6.31558 16.8421 6.31558Z" fill="#123D59"/>
<path d="M6.31558 9.47378C8.05962 9.47378 9.47345 8.76687 9.47345 7.89485C9.47345 7.02283 8.05962 6.31592 6.31558 6.31592C4.57154 6.31592 3.15771 7.02283 3.15771 7.89485C3.15771 8.76687 4.57154 9.47378 6.31558 9.47378Z" fill="#123D59"/>
<path d="M13.1579 9.47378C14.9019 9.47378 16.3157 8.76687 16.3157 7.89485C16.3157 7.02283 14.9019 6.31592 13.1579 6.31592C11.4138 6.31592 10 7.02283 10 7.89485C10 8.76687 11.4138 9.47378 13.1579 9.47378Z" fill="#123D59"/>
<path d="M6.31558 3.15787C8.05962 3.15787 9.47345 2.45095 9.47345 1.57893C9.47345 0.706913 8.05962 0 6.31558 0C4.57154 0 3.15771 0.706913 3.15771 1.57893C3.15771 2.45095 4.57154 3.15787 6.31558 3.15787Z" fill="#123D59"/>
<path d="M13.1579 3.15787C14.9019 3.15787 16.3157 2.45095 16.3157 1.57893C16.3157 0.706913 14.9019 0 13.1579 0C11.4138 0 10 0.706913 10 1.57893C10 2.45095 11.4138 3.15787 13.1579 3.15787Z" fill="#123D59"/>
<path d="M3.15771 9V21.0525H9.47345V9C8.84187 9.63157 7.68399 9.99999 6.31558 9.99999C5.1777 10.0515 4.05853 9.69711 3.15771 9Z" fill="#123D59"/>
<path d="M10 9V21.0525H16.3157V9C15.6842 9.63157 14.5263 9.99999 13.1579 9.99999C12.02 10.0515 10.9008 9.69711 10 9Z" fill="#123D59"/>
<path d="M0 20.9999H2.63156V7.89479C2.64097 7.68474 2.6924 7.47871 2.78279 7.28887C2.87319 7.09904 3.00073 6.92925 3.15787 6.78954C2.01999 6.84107 0.900812 6.48666 0 5.78955V20.9999Z" fill="#123D59"/>
<path d="M16.2632 6.78954C16.4358 6.91909 16.5774 7.08553 16.6776 7.27674C16.7777 7.46795 16.8339 7.6791 16.8421 7.89479V20.9999H20V5.78955C19.3684 6.42112 18.2105 6.78954 16.8421 6.78954H16.2632Z" fill="#123D59"/>
</svg>
