<svg width="12" height="18" viewBox="0 0 12 18" fill="none" xmlns="http://www.w3.org/2000/svg">
<path d="M6.00001 0C2.69167 0 0 2.69167 0 6.00001C0 6.99318 0.248309 7.9779 0.720351 8.85132L5.6719 17.8066C5.73782 17.926 5.86343 18 6.00001 18C6.13659 18 6.26221 17.926 6.32812 17.8066L11.2815 8.84837C11.7517 7.9779 12 6.99314 12 5.99998C12 2.69167 9.30836 0 6.00001 0ZM10.6234 8.48841L6.00001 16.8501L1.37844 8.49171C0.967184 7.73072 0.750023 6.86904 0.750023 6.00001C0.750023 3.10511 3.10514 0.750023 6.00001 0.750023C8.89488 0.750023 11.25 3.10514 11.25 6.00001C11.25 6.869 11.0328 7.73072 10.6234 8.48841Z" fill="#123D59"/>
<path d="M6.00001 3C4.34583 3 3.00002 4.34582 3.00002 5.99999C3.00002 7.65419 4.34583 9.00001 6.00001 9.00001C7.65418 9.00001 9 7.65419 9 6.00002C9 4.34585 7.65418 3 6.00001 3ZM6.00001 8.25002C4.75927 8.25002 3.75 7.24076 3.75 6.00002C3.75 4.75929 4.75927 3.75002 6.00001 3.75002C7.24074 3.75002 8.25001 4.75929 8.25001 6.00002C8.25001 7.24072 7.24074 8.25002 6.00001 8.25002Z" fill="#123D59"/>
</svg>
