<svg width="8582" height="2400" viewBox="0 0 8582 2400" fill="none" xmlns="http://www.w3.org/2000/svg">
<path d="M571.374 807.659H354.648V622.327H991.633V807.659H774.224V1570.6H571.374V807.659Z" fill="#113D59"/>
<path d="M1098.94 622.449H1467.64C1516.75 621.632 1565.25 633.489 1608.45 656.877C1649.94 679.834 1683.95 714.239 1706.43 755.989C1731.55 803.787 1743.95 857.241 1742.45 911.216C1744.53 961.802 1734.12 1012.12 1712.12 1057.72C1694.96 1091.85 1669.64 1121.2 1638.41 1143.18C1614.87 1160.27 1587.79 1171.83 1559.16 1177L1779.91 1570.65H1552.42L1354.87 1194.67H1302.7V1570.65H1098.94V622.449ZM1302.02 1046.27H1394.69C1429.26 1047.02 1463.21 1037.07 1491.9 1017.76C1518.46 991.309 1533.45 955.412 1533.59 917.932C1533.73 880.451 1519.01 844.441 1492.66 817.791C1464.32 798.937 1430.92 789.152 1396.88 789.733H1302.93L1302.02 1046.27Z" fill="#113D59"/>
<path d="M2142.69 622.327H2344.33L2702.1 1570.22H2486.59L2419.78 1378.59H2068.98L2000.73 1570.14H1784.24L2142.69 622.327ZM2135.72 1194.63H2351.23L2244.53 878.561H2242.33L2135.72 1194.63Z" fill="#113D59"/>
<path d="M2777.86 622.456H3049.04C3133.02 619.345 3216.13 640.4 3288.51 683.121C3352.41 723.123 3402.66 781.592 3432.59 850.785C3495.8 1008.25 3495.8 1184.03 3432.59 1341.49C3402.45 1410.56 3352.26 1468.97 3288.51 1509.15C3216.21 1552.09 3133.07 1573.28 3049.04 1570.2H2777.94L2777.86 622.456ZM2979.5 810.67V1382.52H3030.23C3076.6 1384.23 3122.31 1371.14 3160.73 1345.13C3195.84 1319.37 3222.77 1284.04 3238.31 1243.36C3256.24 1196.8 3265.02 1147.21 3264.17 1097.31C3265.02 1047.29 3256.4 997.552 3238.76 950.731C3223.42 909.741 3196.47 874.112 3161.19 848.207C3122.75 821.819 3076.82 808.523 3030.23 810.291L2979.5 810.67Z" fill="#113D59"/>
<path d="M3600.62 622.327H4179.14V807.659H3803.09V1005.2H4175.2V1185.53H3803.09V1385.95H4179.29V1571.28H3600.78L3600.62 622.327Z" fill="#113D59"/>
<path d="M4306.85 1095.84C4306.22 1029.85 4318.11 964.335 4341.88 902.773C4364.33 844.839 4397.81 791.813 4440.46 746.635C4481.93 702.917 4531.6 667.795 4586.64 643.277C4641.69 618.759 4701.03 605.325 4761.26 603.74C4821.5 602.156 4881.45 612.453 4937.71 634.044C4993.96 655.634 5045.42 688.096 5089.13 729.574C5094.94 735.185 5100.63 740.872 5106.19 746.635C5148.53 791.877 5181.7 844.902 5203.86 902.773C5227.29 964.42 5239.04 1029.89 5238.51 1095.84C5239.04 1161.85 5227.53 1227.4 5204.54 1289.29C5183.07 1347.2 5150.53 1400.38 5108.76 1445.88C5067.43 1490.66 5017.2 1526.31 4961.27 1550.53C4902 1575.93 4838.08 1588.67 4773.59 1587.91C4689.81 1590.1 4607.12 1568.54 4535.08 1525.7C4463.05 1482.87 4404.61 1420.51 4366.53 1345.86C4326.37 1268.7 4305.87 1182.82 4306.85 1095.84V1095.84ZM4518.04 1095.84C4517.36 1147.07 4528.41 1197.78 4550.35 1244.09C4570.38 1286.6 4601.33 1323.02 4640.05 1349.65C4679.57 1375.27 4725.66 1388.9 4772.76 1388.9C4819.86 1388.9 4865.95 1375.27 4905.46 1349.65C4944.07 1322.89 4974.99 1286.5 4995.17 1244.09C5016.48 1197.62 5027.51 1147.11 5027.51 1095.99C5027.51 1044.87 5016.48 994.359 4995.17 947.893C4974.84 905.579 4943.95 869.223 4905.46 842.335C4866 816.559 4819.89 802.833 4772.76 802.833C4725.63 802.833 4679.51 816.559 4640.05 842.335C4601.45 869.082 4570.52 905.476 4550.35 947.893C4528.25 994.045 4517.08 1044.67 4517.73 1095.84H4518.04Z" fill="#F1B41C"/>
<path d="M5352.35 622.455H5721.11C5770.16 621.636 5818.58 633.495 5861.7 656.882C5903.23 679.838 5937.29 714.24 5959.83 755.995C5984.71 803.868 5996.98 857.291 5995.47 911.222C5997.57 961.809 5987.15 1012.13 5965.14 1057.73C5948 1091.8 5922.77 1121.14 5891.66 1143.19C5868.02 1160.24 5840.87 1171.8 5812.19 1177.01L6032.93 1570.65H5805.44L5608.28 1194.68H5555.8V1570.65H5352.95L5352.35 622.455ZM5555.19 1046.28H5648.24C5682.87 1046.97 5716.88 1037.02 5745.68 1017.76C5772.14 991.245 5787.04 955.337 5787.13 917.875C5787.21 880.413 5772.48 844.436 5746.14 817.796C5717.85 798.841 5684.41 789.046 5650.36 789.739H5556.02L5555.19 1046.28Z" fill="#F1B41C"/>
<path d="M6168.88 622.327H6747.41V807.659H6370.51V1005.2H6743.61V1185.53H6370.51V1385.95H6746.72V1571.28H6168.88V622.327Z" fill="#F1B41C"/>
<path d="M7241.48 2299.36H6598.5L7920.85 0H8563.83L7241.48 2299.36Z" fill="#113D59"/>
<path d="M7938.8 2299.36H8582L7902.63 1113.28L7581.03 1704.76L7938.8 2299.36Z" fill="#113D59"/>
<path d="M7216.73 1040.7L7540.76 507.91L7258.67 10.303L6622.67 23.7251L7216.73 1040.7Z" fill="#F1B41C"/>
<path d="M6766.6 459.06H0V389.37H6710.56L6766.6 459.06Z" fill="#F1B41C"/>
<path d="M6766.69 1781.88H2691.42V1711.96H6806.88L6766.69 1781.88Z" fill="#F1B41C"/>
<path d="M2779.99 2031.43H2697.86V1999.12H2897.83V2031.43H2816.54V2299.42H2780.75L2779.99 2031.43Z" fill="#231F20"/>
<path d="M2987.53 2299.3H2951.89V2112.52H2987.53V2141.49C2990.15 2136.18 2993.64 2131.34 2997.84 2127.16C3003.42 2121.36 3010 2116.61 3017.26 2113.13C3026 2108.89 3035.61 2106.77 3045.32 2106.91C3053.05 2106.76 3060.74 2107.97 3068.06 2110.48C3073.06 2112.09 3077.79 2114.44 3082.09 2117.45L3066.92 2147.41C3063.67 2144.62 3059.94 2142.43 3055.92 2140.96C3049.63 2138.68 3042.98 2137.63 3036.29 2137.85C3026.7 2137.62 3017.38 2141.04 3010.2 2147.41C3002.87 2154.03 2997.11 2162.22 2993.37 2171.37C2989.91 2178.91 2987.95 2187.05 2987.6 2195.33L2987.53 2299.3Z" fill="#231F20"/>
<path d="M3281.45 2299.28V2262.42C3279.18 2268.45 3275.67 2273.93 3271.13 2278.5C3264.23 2285.93 3256.13 2292.17 3247.17 2296.93C3235.98 2302.64 3223.55 2305.45 3211 2305.12C3194.21 2305.51 3177.63 2301.29 3163.08 2292.91C3148.97 2284.76 3137.33 2272.94 3129.4 2258.71C3121.22 2242.48 3116.95 2224.56 3116.95 2206.38C3116.95 2188.21 3121.22 2170.29 3129.4 2154.06C3137.25 2139.69 3148.9 2127.75 3163.08 2119.56C3177.64 2111.18 3194.21 2106.96 3211 2107.35C3223.31 2107.09 3235.51 2109.69 3246.64 2114.93C3255.58 2119.21 3263.7 2125.04 3270.61 2132.14C3275.29 2136.81 3278.89 2142.46 3281.14 2148.68V2112.73H3316.86V2299.51L3281.45 2299.28ZM3153.29 2206.16C3152.95 2218.95 3156.18 2231.58 3162.62 2242.63C3168.34 2252.6 3176.61 2260.87 3186.58 2266.59C3196.14 2272.07 3206.96 2274.97 3217.98 2275.01C3226.36 2275.29 3234.7 2273.77 3242.45 2270.55C3250.19 2267.33 3257.15 2262.49 3262.87 2256.36C3274.35 2242.29 3280.62 2224.69 3280.62 2206.54C3280.62 2188.38 3274.35 2170.78 3262.87 2156.72C3257.2 2150.5 3250.25 2145.58 3242.5 2142.31C3234.75 2139.04 3226.39 2137.48 3217.98 2137.76C3206.95 2137.68 3196.1 2140.59 3186.58 2146.17C3176.62 2151.9 3168.34 2160.17 3162.62 2170.13C3156.3 2181.08 3153.09 2193.53 3153.29 2206.16V2206.16Z" fill="#231F20"/>
<path d="M3553.39 2299.37V2262.29C3550.67 2268.96 3546.5 2274.95 3541.18 2279.81C3533.67 2287.12 3524.91 2293.03 3515.31 2297.25C3504.23 2302.41 3492.13 2305 3479.9 2304.83C3463.77 2305.25 3447.85 2301.11 3433.96 2292.89C3420.08 2284.66 3408.8 2272.69 3401.42 2258.35C3393.71 2241.98 3389.71 2224.11 3389.71 2206.02C3389.71 2187.93 3393.71 2170.07 3401.42 2153.7C3408.76 2139.49 3419.85 2127.55 3433.49 2119.2C3446.1 2112.05 3460.18 2107.9 3474.65 2107.08C3489.11 2106.25 3503.57 2108.76 3516.9 2114.42C3526.35 2118.56 3534.97 2124.39 3542.31 2131.63C3547.32 2136.21 3551.03 2142.01 3553.08 2148.47V1986.41H3589.55V2299.37H3553.39ZM3433.65 2242.65C3438.93 2252.55 3446.78 2260.83 3456.39 2266.61C3465.57 2272.09 3476.04 2275 3486.73 2275.03C3498.25 2275.16 3509.6 2272.17 3519.56 2266.38C3529.6 2260.75 3537.89 2252.46 3543.53 2242.42C3549.27 2231.31 3552.26 2218.99 3552.26 2206.48C3552.26 2193.97 3549.27 2181.65 3543.53 2170.54C3537.83 2160.54 3529.55 2152.26 3519.56 2146.57C3509.55 2140.98 3498.26 2138.09 3486.8 2138.16C3476.11 2138.09 3465.6 2141 3456.47 2146.57C3446.87 2152.37 3439.01 2160.65 3433.72 2170.54C3427.94 2181.86 3425.05 2194.44 3425.31 2207.16C3425.27 2219.49 3428.23 2231.65 3433.94 2242.58L3433.65 2242.65Z" fill="#231F20"/>
<path d="M3683.07 2045.52C3679.86 2045.53 3676.69 2044.9 3673.73 2043.66C3670.77 2042.43 3668.1 2040.61 3665.86 2038.31C3663.54 2036.14 3661.7 2033.51 3660.46 2030.58C3659.22 2027.66 3658.6 2024.51 3658.65 2021.33C3658.58 2016.45 3659.96 2011.65 3662.62 2007.56C3665.28 2003.46 3669.1 2000.26 3673.59 1998.34C3678.08 1996.43 3683.04 1995.9 3687.84 1996.82C3692.63 1997.73 3697.04 2000.06 3700.51 2003.49C3703.98 2006.93 3706.34 2011.32 3707.3 2016.11C3708.27 2020.89 3707.79 2025.86 3705.92 2030.37C3704.04 2034.88 3700.87 2038.72 3696.8 2041.42C3692.73 2044.12 3687.95 2045.55 3683.07 2045.52V2045.52ZM3664.65 2299.32V2112.4H3700.59V2299.17L3664.65 2299.32Z" fill="#231F20"/>
<path d="M3890.64 2107.08C3902.85 2107.01 3914.93 2109.59 3926.05 2114.66C3937.63 2119.81 3947.54 2128.12 3954.64 2138.63C3962.61 2151.65 3966.51 2166.75 3965.86 2182V2298.86H3929.39V2189.74C3930.04 2182.25 3929.19 2174.72 3926.89 2167.57C3924.58 2160.42 3920.87 2153.8 3915.96 2148.11C3911.35 2143.78 3905.93 2140.4 3900.01 2138.17C3894.08 2135.95 3887.78 2134.92 3881.46 2135.14C3871.97 2135.1 3862.68 2137.72 3854.62 2142.72C3846 2148.24 3838.77 2155.69 3833.53 2164.48C3828.31 2173.91 3825.69 2184.57 3825.95 2195.35V2298.79H3789.78V2111.93H3825.88V2145.91C3827.9 2139.39 3831.62 2133.53 3836.64 2128.92C3843.58 2122.21 3851.71 2116.86 3860.61 2113.15C3870.06 2108.98 3880.31 2106.91 3890.64 2107.08V2107.08Z" fill="#231F20"/>
<path d="M4133.41 2399.25C4114.06 2399.84 4094.8 2396.32 4076.91 2388.93C4063.16 2383.48 4051.15 2374.38 4042.18 2362.62L4066.15 2339.87C4069.44 2344.56 4073.31 2348.82 4077.67 2352.53C4083.58 2357.78 4090.5 2361.78 4098 2364.29C4108.87 2367.76 4120.25 2369.37 4131.67 2369.06C4140.61 2369.71 4149.58 2368.3 4157.89 2364.94C4166.2 2361.57 4173.62 2356.34 4179.59 2349.65C4190.72 2336.24 4196.6 2319.23 4196.12 2301.8V2261.76C4193.84 2267.84 4190.24 2273.33 4185.58 2277.84C4178.74 2285.35 4170.63 2291.58 4161.62 2296.26C4150.43 2301.97 4138 2304.79 4125.44 2304.46C4108.65 2304.86 4092.08 2300.63 4077.52 2292.25C4063.38 2284.15 4051.72 2272.32 4043.85 2258.05C4035.67 2241.82 4031.41 2223.9 4031.41 2205.72C4031.41 2187.55 4035.67 2169.63 4043.85 2153.4C4051.63 2139 4063.3 2127.07 4077.52 2118.97C4092.06 2110.56 4108.65 2106.33 4125.44 2106.76C4137.78 2106.51 4149.99 2109.1 4161.16 2114.35C4170.1 2118.63 4178.21 2124.45 4185.12 2131.56C4189.82 2136.22 4193.42 2141.87 4195.67 2148.09V2112.15H4231.07V2303.7C4231.7 2321.88 4227.24 2339.87 4218.19 2355.64C4209.72 2369.39 4197.52 2380.43 4183 2387.49C4167.59 2395.15 4150.62 2399.17 4133.41 2399.25V2399.25ZM4067.81 2206.26C4067.44 2219.05 4070.68 2231.68 4077.14 2242.73C4082.86 2252.56 4091.08 2260.7 4100.96 2266.34C4110.84 2271.97 4122.03 2274.89 4133.41 2274.81C4141.79 2275.05 4150.13 2273.5 4157.87 2270.27C4165.61 2267.04 4172.57 2262.2 4178.3 2256.08C4189.78 2242.02 4196.05 2224.44 4196.05 2206.29C4196.05 2188.15 4189.78 2170.56 4178.3 2156.51C4172.63 2150.3 4165.68 2145.39 4157.93 2142.12C4150.18 2138.84 4141.81 2137.29 4133.41 2137.55C4122.37 2137.45 4111.52 2140.36 4102.02 2145.97C4091.99 2151.57 4083.67 2159.8 4077.98 2169.78C4071.31 2180.78 4067.82 2193.4 4067.89 2206.26H4067.81Z" fill="#231F20"/>
<path d="M4545.56 1993.48C4560.54 1993.26 4575.47 1995.28 4589.85 1999.47C4599.96 2002.47 4609.67 2006.65 4618.81 2011.91C4623.12 2014.54 4627.28 2017.43 4631.25 2020.55L4613.06 2049.75L4601.08 2041.1C4594.18 2036.99 4586.85 2033.63 4579.23 2031.09C4569.46 2027.86 4559.19 2026.32 4548.9 2026.54C4534.07 2025.79 4519.38 2029.63 4506.82 2037.54C4501.86 2040.85 4497.83 2045.38 4495.11 2050.69C4492.39 2055.99 4491.07 2061.91 4491.27 2067.87C4491.25 2074.42 4492.89 2080.86 4496.03 2086.6C4499.17 2092.34 4503.72 2097.2 4509.24 2100.71C4523.88 2110.78 4539.54 2119.29 4555.95 2126.11C4569.99 2132.13 4583.54 2139.25 4596.45 2147.42C4609.3 2155.25 4620.46 2165.56 4629.28 2177.75C4638.19 2190.85 4642.73 2206.43 4642.25 2222.27C4642.57 2238 4637.87 2253.43 4628.83 2266.32C4619.31 2278.94 4606.58 2288.79 4591.97 2294.83C4575.46 2301.76 4557.7 2305.19 4539.8 2304.92C4523.11 2305.09 4506.5 2302.74 4490.51 2297.94C4478.36 2294.41 4466.57 2289.71 4455.32 2283.92C4449.97 2281.41 4444.89 2278.36 4440.16 2274.82L4459.57 2244.48C4464.39 2248.02 4469.47 2251.22 4474.74 2254.04C4483.73 2259.05 4493.2 2263.14 4503.02 2266.24C4515.24 2270.38 4528.04 2272.55 4540.94 2272.69C4558.11 2273.81 4575.12 2268.72 4588.87 2258.36C4594.15 2253.86 4598.36 2248.24 4601.18 2241.9C4604 2235.56 4605.37 2228.67 4605.17 2221.73C4605.4 2211 4601.74 2200.55 4594.86 2192.31C4587.01 2183.43 4577.7 2175.97 4567.33 2170.24C4555.37 2163.47 4543.07 2157.32 4530.48 2151.82C4517.33 2145.95 4504.65 2139.08 4492.56 2131.27C4481.85 2124.3 4472.58 2115.34 4465.26 2104.88C4458.23 2093.73 4454.64 2080.75 4454.95 2067.57C4454.6 2053.87 4458.99 2040.48 4467.38 2029.65C4475.86 2018.35 4487.19 2009.5 4500.22 2004.02C4514.4 1997.3 4529.87 1993.7 4545.56 1993.48Z" fill="#231F20"/>
<path d="M4740.77 2045.49C4734.41 2045.49 4728.32 2042.96 4723.83 2038.47C4719.33 2033.97 4716.81 2027.88 4716.81 2021.52C4716.81 2015.17 4719.33 2009.07 4723.83 2004.58C4728.32 2000.08 4734.41 1997.56 4740.77 1997.56C4747.26 1997.56 4753.51 2000.05 4758.21 2004.53C4760.6 2006.77 4762.51 2009.47 4763.82 2012.47C4765.12 2015.47 4765.8 2018.71 4765.8 2021.98C4765.85 2025.19 4765.19 2028.38 4763.88 2031.31C4762.57 2034.24 4760.63 2036.86 4758.21 2038.97C4755.89 2041.16 4753.15 2042.87 4750.15 2043.99C4747.16 2045.11 4743.96 2045.62 4740.77 2045.49V2045.49ZM4722.35 2299.29V2112.52H4758.51V2299.29H4722.35Z" fill="#231F20"/>
<path d="M5067.38 2107.04C5076.4 2106.58 5085.41 2108.2 5093.71 2111.78C5102 2115.35 5109.37 2120.79 5115.23 2127.67C5128.13 2146.07 5134.15 2168.44 5132.21 2190.83V2299.35H5096.8V2198.42C5097.82 2181.98 5094.85 2165.54 5088.15 2150.49C5084.81 2145.2 5080.07 2140.93 5074.44 2138.17C5068.82 2135.41 5062.54 2134.27 5056.31 2134.87C5047.84 2134.76 5039.51 2137.1 5032.34 2141.62C5024.42 2146.48 5018.1 2153.54 5014.14 2161.94C5008.95 2173.19 5006.48 2185.51 5006.94 2197.89V2298.67H4973.88V2198.04C4975.09 2181.35 4971.35 2164.68 4963.11 2150.11C4959.77 2145.19 4955.23 2141.18 4949.93 2138.46C4944.63 2135.75 4938.73 2134.4 4932.78 2134.57C4926.61 2134.71 4920.53 2136.08 4914.89 2138.59C4909.25 2141.1 4904.17 2144.71 4899.94 2149.21C4888.76 2162.52 4883.31 2179.73 4884.78 2197.06V2297.76H4849.06V2110.83H4884.78V2139.8C4886.94 2133.93 4890.56 2128.71 4895.31 2124.63C4901.57 2118.89 4908.78 2114.27 4916.62 2110.99C4925.77 2107.08 4935.64 2105.17 4945.59 2105.38C4955.58 2105.02 4965.48 2107.52 4974.11 2112.58C4981.38 2116.94 4987.53 2122.94 4992.07 2130.1C4995.96 2135.91 4998.95 2142.27 5000.95 2148.98C5003.39 2141.41 5007.57 2134.53 5013.16 2128.88C5020.04 2121.83 5028.16 2116.12 5037.12 2112.05C5046.7 2108.14 5057.05 2106.43 5067.38 2107.04V2107.04Z" fill="#231F20"/>
<path d="M5251.7 2394.13H5215.76V2112.64H5252.39V2148.59C5254.56 2142.08 5258.44 2136.26 5263.62 2131.75C5271.88 2123.86 5281.61 2117.69 5292.27 2113.59C5302.93 2109.49 5314.3 2107.54 5325.72 2107.86C5341.97 2107.61 5357.97 2111.83 5371.98 2120.07C5385.55 2128.44 5396.57 2140.38 5403.83 2154.58C5411.83 2170.89 5415.78 2188.89 5415.35 2207.05C5415.84 2225.18 5411.71 2243.13 5403.37 2259.23C5395.93 2273.54 5384.62 2285.49 5370.74 2293.71C5356.85 2301.92 5340.94 2306.08 5324.81 2305.71C5311.7 2306.1 5298.7 2303.32 5286.9 2297.6C5277.45 2293.1 5268.9 2286.93 5261.64 2279.4C5256.91 2274.9 5253.37 2269.29 5251.33 2263.09L5251.7 2394.13ZM5379.63 2206.3C5379.95 2193.55 5376.98 2180.93 5370.99 2169.67C5365.72 2159.77 5357.85 2151.49 5348.24 2145.71C5339.11 2140.12 5328.61 2137.21 5317.91 2137.29C5306.34 2137.18 5294.95 2140.08 5284.84 2145.71C5274.77 2151.3 5266.48 2159.6 5260.89 2169.67C5255.16 2180.77 5252.17 2193.08 5252.17 2205.57C5252.17 2218.07 5255.16 2230.38 5260.89 2241.48C5266.41 2251.6 5274.72 2259.91 5284.84 2265.44C5294.87 2271.27 5306.31 2274.26 5317.91 2274.09C5328.59 2274.07 5339.07 2271.16 5348.24 2265.67C5357.85 2259.88 5365.71 2251.6 5370.99 2241.71C5376.43 2230.72 5379.04 2218.55 5378.58 2206.3H5379.63Z" fill="#231F20"/>
<path d="M5522.38 2299.37H5485.91V1986.41H5522.38V2299.37Z" fill="#231F20"/>
<path d="M5629.42 2045.52C5626.21 2045.53 5623.04 2044.9 5620.08 2043.66C5617.12 2042.42 5614.44 2040.6 5612.2 2038.31C5609.88 2036.14 5608.05 2033.51 5606.81 2030.58C5605.56 2027.66 5604.95 2024.51 5605 2021.33C5604.93 2016.45 5606.3 2011.65 5608.96 2007.56C5611.62 2003.46 5615.45 2000.26 5619.94 1998.34C5624.43 1996.43 5629.38 1995.9 5634.18 1996.82C5638.97 1997.73 5643.39 2000.06 5646.86 2003.49C5650.33 2006.93 5652.69 2011.32 5653.65 2016.11C5654.62 2020.89 5654.13 2025.86 5652.26 2030.37C5650.39 2034.88 5647.22 2038.72 5643.15 2041.42C5639.08 2044.12 5634.3 2045.55 5629.42 2045.52V2045.52ZM5610.99 2299.32V2112.4H5646.93V2299.17L5610.99 2299.32Z" fill="#231F20"/>
<path d="M5717.7 2112.5H5756.75V2059.42C5756.05 2043.69 5759.33 2028.04 5766.3 2013.92C5771.95 2003.89 5780.25 1995.61 5790.27 1989.96C5799.48 1985.27 5809.59 1982.63 5819.91 1982.21C5830.24 1981.79 5840.53 1983.61 5850.09 1987.53C5857.07 1991.09 5861.09 1993.52 5862.53 1994.5L5847.98 2022.26C5845.57 2020.39 5843.03 2018.7 5840.39 2017.18C5835.22 2014.46 5829.39 2013.22 5823.56 2013.62C5818.26 2013.63 5813.06 2014.96 5808.4 2017.48C5802.6 2020.86 5798.24 2026.26 5796.18 2032.65C5792.3 2043.06 5790.61 2054.16 5791.18 2065.25V2114.47H5845.31V2145.33H5791.18V2301.24H5755.69V2145.33H5716.63L5717.7 2112.5ZM5905.91 2045.46C5902.69 2045.49 5899.51 2044.86 5896.54 2043.62C5893.57 2042.38 5890.87 2040.56 5888.62 2038.26C5886.35 2036.06 5884.57 2033.41 5883.38 2030.49C5882.19 2027.57 5881.62 2024.43 5881.71 2021.27C5881.71 2014.76 5884.31 2008.53 5888.91 2003.93C5893.51 1999.33 5899.76 1996.74 5906.26 1996.74C5912.77 1996.74 5919.01 1999.33 5923.61 2003.93C5928.21 2008.53 5930.79 2014.76 5930.79 2021.27C5930.86 2024.49 5930.2 2027.68 5928.88 2030.62C5927.57 2033.55 5925.64 2036.16 5923.2 2038.26C5920.87 2040.65 5918.08 2042.52 5914.98 2043.76C5911.89 2045.01 5908.56 2045.58 5905.22 2045.46H5905.91ZM5887.49 2299.27V2112.5H5923.42V2299.27H5887.49Z" fill="#231F20"/>
<path d="M6034.41 2213.16C6034.35 2229.47 6040.12 2245.26 6050.7 2257.67C6056.78 2264.17 6064.25 2269.21 6072.54 2272.42C6080.84 2275.64 6089.76 2276.95 6098.63 2276.25C6108.8 2276.58 6118.93 2274.77 6128.36 2270.94C6135.79 2268.11 6142.6 2263.89 6148.45 2258.5C6152.72 2254.5 6156.48 2249.99 6159.67 2245.08L6178.33 2267.83C6170.64 2279.3 6160.22 2288.69 6148.01 2295.13C6131.84 2302.36 6114.19 2305.71 6096.5 2304.91C6078.33 2305.4 6060.38 2300.92 6044.57 2291.95C6030.3 2283.49 6018.74 2271.12 6011.26 2256.31C6003.18 2240.04 5999.16 2222.07 5999.53 2203.91C5999.23 2186.81 6002.98 2169.89 6010.51 2154.54C6017.74 2140.16 6028.99 2128.17 6042.89 2120.04C6058.36 2111.06 6076.05 2106.6 6093.93 2107.15C6106.02 2106.65 6118.08 2108.65 6129.36 2113.02C6140.65 2117.39 6150.92 2124.04 6159.52 2132.55C6167.83 2141.77 6174.24 2152.56 6178.35 2164.28C6182.46 2175.99 6184.19 2188.4 6183.48 2200.8V2207.01C6183.7 2209.08 6183.7 2211.17 6183.48 2213.23L6034.41 2213.16ZM6148.15 2184.64C6147.65 2177.32 6145.75 2170.16 6142.54 2163.56C6138.88 2155.51 6133.04 2148.63 6125.7 2143.7C6116.27 2137.72 6105.23 2134.78 6094.08 2135.28C6082.49 2134.62 6070.95 2137.25 6060.79 2142.86C6053.08 2147.67 6046.8 2154.45 6042.59 2162.5C6038.96 2169.25 6036.7 2176.64 6035.92 2184.27L6148.15 2184.64Z" fill="#231F20"/>
<path d="M6410.57 2299.37V2262.29C6408.05 2269.01 6403.94 2275.02 6398.59 2279.81C6391.09 2287.13 6382.33 2293.04 6372.73 2297.25C6361.62 2302.42 6349.49 2305.01 6337.24 2304.83C6321.11 2305.25 6305.19 2301.11 6291.31 2292.89C6277.42 2284.66 6266.14 2272.69 6258.76 2258.35C6251.04 2241.98 6247.04 2224.11 6247.04 2206.02C6247.04 2187.93 6251.04 2170.07 6258.76 2153.7C6266.11 2139.49 6277.19 2127.56 6290.82 2119.2C6303.43 2112.05 6317.51 2107.9 6331.98 2107.07C6346.45 2106.24 6360.91 2108.76 6374.25 2114.42C6383.69 2118.56 6392.3 2124.39 6399.65 2131.63C6404.65 2136.2 6408.37 2142.01 6410.42 2148.47V1986.41H6446.58V2299.37H6410.57ZM6290.82 2242.65C6296.04 2252.59 6303.92 2260.88 6313.58 2266.61C6322.75 2272.08 6333.24 2274.99 6343.92 2275.03C6355.44 2275.11 6366.76 2272.13 6376.75 2266.38C6386.85 2260.84 6395.15 2252.53 6400.7 2242.42C6406.58 2231.35 6409.66 2219.01 6409.66 2206.48C6409.66 2193.95 6406.58 2181.61 6400.7 2170.54C6395.08 2160.49 6386.79 2152.19 6376.75 2146.57C6366.7 2141.01 6355.41 2138.11 6343.92 2138.16C6333.22 2138.09 6322.71 2141 6313.58 2146.57C6303.92 2152.3 6296.04 2160.6 6290.82 2170.54C6284.85 2181.8 6281.87 2194.41 6282.18 2207.16C6282.18 2219.54 6285.32 2231.73 6291.29 2242.58L6290.82 2242.65Z" fill="#231F20"/>
</svg>
