<svg width="22" height="30" viewBox="0 0 22 30" fill="none" xmlns="http://www.w3.org/2000/svg">
<path d="M4.0114 29.4169H6.68567V26.7426H4.0114V29.4169ZM9.35993 29.4169H12.0342V26.7426H9.35993V29.4169ZM12.0342 0H9.35993V13.3713H12.0342V0ZM16.7944 3.2626L14.8555 5.20144C16.0338 5.91089 17.0087 6.91277 17.6858 8.10991C18.3628 9.30706 18.719 10.6588 18.7199 12.0342C18.7199 16.4601 15.123 20.057 10.6971 20.057C6.27115 20.057 2.67427 16.4601 2.67427 12.0342C2.67427 9.13261 4.22534 6.60543 6.52521 5.18807L4.59974 3.2626C3.17957 4.24244 2.01885 5.5528 1.21756 7.08084C0.416275 8.60888 -0.00157383 10.3088 4.45448e-06 12.0342C4.45448e-06 17.9443 4.78694 22.7312 10.6971 22.7312C16.6072 22.7312 21.3941 17.9443 21.3941 12.0342C21.3941 8.39719 19.5756 5.18807 16.7944 3.2626ZM14.7085 29.4169H17.3827V26.7426H14.7085V29.4169Z" fill="white"/>
</svg>
