<svg width="23" height="25" viewBox="0 0 23 25" fill="none" xmlns="http://www.w3.org/2000/svg">
<path d="M3.60673 7.21318C5.59868 7.21318 7.21347 6.40578 7.21347 5.40981C7.21347 4.41384 5.59868 3.60645 3.60673 3.60645C1.61479 3.60645 0 4.41384 0 5.40981C0 6.40578 1.61479 7.21318 3.60673 7.21318Z" fill="#C6C6C6"/>
<path d="M11.4212 7.21318C13.4131 7.21318 15.0279 6.40578 15.0279 5.40981C15.0279 4.41384 13.4131 3.60645 11.4212 3.60645C9.42921 3.60645 7.81442 4.41384 7.81442 5.40981C7.81442 6.40578 9.42921 7.21318 11.4212 7.21318Z" fill="#C6C6C6"/>
<path d="M19.2361 7.21318C21.228 7.21318 22.8428 6.40578 22.8428 5.40981C22.8428 4.41384 21.228 3.60645 19.2361 3.60645C17.2441 3.60645 15.6293 4.41384 15.6293 5.40981C15.6293 6.40578 17.2441 7.21318 19.2361 7.21318Z" fill="#C6C6C6"/>
<path d="M7.21327 10.8201C9.20522 10.8201 10.82 10.0127 10.82 9.01675C10.82 8.02077 9.20522 7.21338 7.21327 7.21338C5.22133 7.21338 3.60654 8.02077 3.60654 9.01675C3.60654 10.0127 5.22133 10.8201 7.21327 10.8201Z" fill="#C6C6C6"/>
<path d="M15.0282 10.8201C17.0201 10.8201 18.6349 10.0127 18.6349 9.01675C18.6349 8.02077 17.0201 7.21338 15.0282 7.21338C13.0362 7.21338 11.4214 8.02077 11.4214 9.01675C11.4214 10.0127 13.0362 10.8201 15.0282 10.8201Z" fill="#C6C6C6"/>
<path d="M7.21327 3.60673C9.20522 3.60673 10.82 2.79934 10.82 1.80337C10.82 0.807395 9.20522 0 7.21327 0C5.22133 0 3.60654 0.807395 3.60654 1.80337C3.60654 2.79934 5.22133 3.60673 7.21327 3.60673Z" fill="#C6C6C6"/>
<path d="M15.0282 3.60673C17.0201 3.60673 18.6349 2.79934 18.6349 1.80337C18.6349 0.807395 17.0201 0 15.0282 0C13.0362 0 11.4214 0.807395 11.4214 1.80337C11.4214 2.79934 13.0362 3.60673 15.0282 3.60673Z" fill="#C6C6C6"/>
<path d="M3.60654 10.2793V24.045H10.82V10.2793C10.0987 11.0006 8.77619 11.4214 7.21327 11.4214C5.91365 11.4803 4.63539 11.0755 3.60654 10.2793V10.2793Z" fill="#C6C6C6"/>
<path d="M11.4214 10.2793V24.045H18.6349V10.2793C17.9136 11.0006 16.5911 11.4214 15.0282 11.4214C13.7286 11.4803 12.4503 11.0755 11.4214 10.2793Z" fill="#C6C6C6"/>
<path d="M0 23.9847H3.00561V9.01679C3.01637 8.77689 3.0751 8.54157 3.17835 8.32475C3.2816 8.10792 3.42726 7.914 3.60674 7.75444C2.30712 7.81328 1.02886 7.4085 0 6.6123V23.9847Z" fill="#C6C6C6"/>
<path d="M18.5749 7.75444C18.7721 7.90239 18.9338 8.0925 19.0482 8.31089C19.1626 8.52927 19.2268 8.77044 19.2361 9.01679V23.9847H22.8429V6.6123C22.1215 7.33365 20.799 7.75444 19.2361 7.75444H18.5749Z" fill="#C6C6C6"/>
</svg>
