<svg width="32" height="33" viewBox="0 0 32 33" fill="none" xmlns="http://www.w3.org/2000/svg">
<path d="M32 16.0079C32 15.7749 31.8703 15.5611 31.6635 15.4535L25.6346 12.3165L31.6635 9.17948C31.8703 9.07185 32 8.8581 32 8.62504C32 8.39198 31.8703 8.17823 31.6635 8.07061L26.4706 5.36861C26.1642 5.20929 25.787 5.32836 25.6277 5.63454C25.4684 5.94073 25.5874 6.31817 25.8936 6.47748L30.0209 8.62498L16 15.9204L1.97906 8.62498L16 1.32955L20.9042 3.88129C21.2106 4.04061 21.5878 3.92148 21.7471 3.61536C21.9064 3.30917 21.7874 2.93173 21.4812 2.77242L16.2885 0.0705468C16.1076 -0.0235156 15.8924 -0.0235156 15.7115 0.0705468L0.3365 8.07054C0.129688 8.1781 0 8.39185 0 8.62498C0 8.8581 0.129688 9.07179 0.3365 9.17942L6.36544 12.3164L0.3365 15.4535C0.129688 15.5611 0 15.7749 0 16.0079C0 16.241 0.129688 16.4547 0.3365 16.5623L6.36544 19.6993L0.3365 22.8364C0.129688 22.944 0 23.1578 0 23.3908C0 23.6239 0.129688 23.8377 0.3365 23.9453L15.7115 31.9453C15.8019 31.9923 15.9009 32.0158 16 32.0158C16.0991 32.0158 16.1981 31.9923 16.2885 31.9453L31.6635 23.9453C31.8703 23.8377 32 23.6239 32 23.3908C32 23.1578 31.8703 22.944 31.6635 22.8364L25.6346 19.6993L31.6635 16.5623C31.8703 16.4547 32 16.241 32 16.0079ZM16.2885 17.1794L24.2804 13.021L26.1438 13.9905L12.1452 21.2976L9.65131 20L15.3918 17.0131L15.7114 17.1794C15.8019 17.2264 15.9009 17.25 15.9999 17.25C16.099 17.25 16.1981 17.2264 16.2885 17.1794ZM14.0377 16.3085L8.29719 19.2953L5.81519 18.0039L11.5557 15.017L14.0377 16.3085ZM7.71956 13.021L10.2016 14.3125L4.46106 17.2994L1.979 16.0079L7.71956 13.021ZM30.0209 23.3908L16 30.6863L1.97906 23.3908L7.71956 20.404L15.7115 24.5624C15.8019 24.6094 15.9009 24.633 16 24.633C16.0991 24.633 16.1981 24.6095 16.2885 24.5624L24.2804 20.404L30.0209 23.3908ZM16 23.3033L13.4979 22.0015L27.4966 14.6945L30.0209 16.0079L16 23.3033Z" fill="#666666"/>
</svg>
