<svg width="28" height="28" viewBox="0 0 28 28" fill="none" xmlns="http://www.w3.org/2000/svg">
<path d="M14.0773 0.667098C19.6153 0.708014 24.5537 4.15769 26.4901 9.33882C28.4266 14.5205 26.9582 20.3578 22.7996 24.0108C18.6416 27.6634 12.6573 28.3741 7.75718 25.7976L7.6961 25.7762C7.68657 25.7707 7.68503 25.7659 7.68299 25.7596L6.77295 25.2446C6.5876 25.1688 6.3822 25.1565 6.25681 25.1882C5.3108 25.5283 4.34397 25.8076 3.36223 26.0244L3.18228 26.046C2.10154 26.07 1.55701 25.3688 1.55701 24.3482L1.58306 24.1296C1.82848 23.1146 2.13605 22.1156 2.48611 21.1905C2.5404 21.0154 2.52233 20.8259 2.42863 20.6503L2.18353 20.1725C0.0171742 16.0305 0.180545 11.0584 2.61412 7.06713C5.04739 3.07633 9.39513 0.648498 14.0773 0.667098ZM14.0645 2.5265L13.69 2.53236C9.80659 2.64347 6.23117 4.7086 4.20261 8.03565C2.1089 11.4695 1.96836 15.7468 3.8355 19.3168L4.07673 19.7873C4.39757 20.3877 4.4647 21.0914 4.24518 21.7938C3.90405 22.6998 3.61892 23.6259 3.39141 24.5669L3.51733 24.0763L4.04364 23.9391C4.2243 23.8894 4.40541 23.8369 4.58746 23.7818L5.13695 23.6077L5.69511 23.416C6.28472 23.2536 6.91159 23.2911 7.52914 23.5457C7.65877 23.6082 7.81961 23.6949 8.02236 23.8095L8.58545 24.1327C8.59499 24.1353 8.60334 24.1375 8.60972 24.1393L8.59328 24.1371L8.97692 24.3294C13.0109 26.2772 17.8169 25.7044 21.2782 22.8624L21.5718 22.6131C25.1501 19.4698 26.4133 14.4479 24.7473 9.99012C23.0811 5.53181 18.8308 2.56275 14.0645 2.5265ZM8.15461 12.4798C8.99475 12.4798 9.67642 13.1603 9.67642 14.0006C9.67642 14.8409 8.99475 15.5214 8.15461 15.5214C7.31447 15.5214 6.63279 14.8409 6.63279 14.0006C6.63279 13.1603 7.31447 12.4798 8.15461 12.4798ZM14.0704 12.4798C14.9106 12.4798 15.5923 13.1603 15.5923 14.0006C15.5923 14.8409 14.9106 15.5214 14.0704 15.5214C13.2303 15.5214 12.5486 14.8409 12.5486 14.0006C12.5486 13.1603 13.2303 12.4798 14.0704 12.4798ZM19.9863 12.4798C20.8264 12.4798 21.5081 13.1603 21.5081 14.0006C21.5081 14.8409 20.8264 15.5214 19.9863 15.5214C19.1462 15.5214 18.4645 14.8409 18.4645 14.0006C18.4645 13.1603 19.1462 12.4798 19.9863 12.4798Z" fill="#666666"/>
</svg>
