<svg width="50" height="50" viewBox="0 0 50 50" fill="none" xmlns="http://www.w3.org/2000/svg">
<path d="M0.325317 35.9883V37.2292L25.1446 49.6389L49.9639 37.2292V35.9883L25.1446 48.3979L0.325317 35.9883Z" fill="#123D59"/>
<path d="M0.325317 24.8193V26.0603L25.1446 38.4699L49.9639 26.0603V24.8193L25.1446 37.229L0.325317 24.8193Z" fill="#123D59"/>
<path d="M49.9639 12.4096L25.1446 0L0.325317 12.4096L25.1446 24.8193L49.9639 12.4096Z" fill="#123D59"/>
<path d="M0.325317 13.6504V14.8914L25.1446 27.301L49.9639 14.8914V13.6504L25.1446 26.06L0.325317 13.6504Z" fill="#123D59"/>
<path d="M25.1446 40.9518L6.53014 31.6445L0.325317 34.7469L25.1446 47.1566L49.9639 34.7469L43.7591 31.6445L25.1446 40.9518Z" fill="#123D59"/>
<path d="M25.1446 29.7828L6.53014 20.4756L0.325317 23.578L25.1446 35.9876L49.9639 23.578L43.7591 20.4756L25.1446 29.7828Z" fill="#123D59"/>
</svg>
