<svg width="18" height="18" viewBox="0 0 18 18" fill="none" xmlns="http://www.w3.org/2000/svg">
<path d="M9 0C7.21997 0 5.47991 0.527841 3.99987 1.51677C2.51983 2.50571 1.36628 3.91131 0.685088 5.55585C0.00389955 7.20038 -0.17433 9.00998 0.172936 10.7558C0.520203 12.5016 1.37737 14.1053 2.63604 15.364C3.89471 16.6226 5.49836 17.4798 7.24419 17.8271C8.99002 18.1743 10.7996 17.9961 12.4442 17.3149C14.0887 16.6337 15.4943 15.4802 16.4832 14.0001C17.4722 12.5201 18 10.78 18 9C18 6.61305 17.0518 4.32387 15.364 2.63604C13.6761 0.948211 11.387 0 9 0ZM9 3.85714C9.19072 3.85714 9.37715 3.9137 9.53573 4.01965C9.69431 4.12561 9.8179 4.27621 9.89089 4.45241C9.96387 4.62861 9.98297 4.8225 9.94576 5.00955C9.90855 5.1966 9.81671 5.36842 9.68186 5.50328C9.547 5.63814 9.37518 5.72998 9.18812 5.76718C9.00107 5.80439 8.80719 5.7853 8.63099 5.71231C8.45479 5.63933 8.30418 5.51573 8.19823 5.35716C8.09227 5.19858 8.03572 5.01215 8.03572 4.82143C8.03572 4.56568 8.13731 4.32041 8.31815 4.13957C8.49899 3.95874 8.74426 3.85714 9 3.85714ZM11.5714 14.2232H6.42857V12.7768H8.27679V9.08036H7.07143V7.63393H9.72322V12.7768H11.5714V14.2232Z" fill="white"/>
</svg>
