<svg width="30" height="24" viewBox="0 0 30 24" fill="none" xmlns="http://www.w3.org/2000/svg">
<path d="M14.917 14.6124L15.3235 14.6143C20.8207 14.6659 23.9446 15.7873 23.9446 18.8892C23.9446 21.9181 20.9585 23.0779 15.7196 23.1815L14.917 23.1892C9.16689 23.1892 5.88946 22.0901 5.88946 18.9124C5.88946 15.7312 9.18004 14.6124 14.917 14.6124ZM14.917 16.6124C10.2681 16.6124 7.88946 17.4211 7.88946 18.9124C7.88946 20.3933 10.2628 21.1892 14.917 21.1892C19.5646 21.1892 21.9446 20.3798 21.9446 18.8892C21.9446 17.4085 19.5705 16.6124 14.917 16.6124ZM24.3076 13.7817C25.0033 13.8297 25.6875 13.9285 26.3278 14.073C27.7531 14.352 28.8243 14.8864 29.3219 15.929C29.6881 16.6993 29.6881 17.5949 29.3218 18.3671C28.8278 19.4058 27.7747 19.9329 26.3371 20.2285C25.7961 20.3398 25.2674 19.9914 25.1562 19.4504C25.0449 18.9095 25.3933 18.3807 25.9342 18.2695C26.804 18.0907 27.3744 17.8051 27.5153 17.509C27.6237 17.2805 27.6237 17.015 27.5163 16.7892C27.3735 16.49 26.7983 16.2031 25.9161 16.0299C25.3488 15.9023 24.7653 15.818 24.17 15.777C23.619 15.739 23.2031 15.2615 23.2411 14.7105C23.2791 14.1596 23.7566 13.7437 24.3076 13.7817ZM6.60534 14.7105C6.64334 15.2615 6.22749 15.739 5.67651 15.777C5.22999 15.8078 4.79017 15.8628 4.34725 15.9448L3.90295 16.0357C3.04845 16.203 2.47383 16.4898 2.33118 16.7897C2.22312 17.0158 2.22312 17.2797 2.33253 17.5092C2.47296 17.8054 3.04279 18.0907 3.91224 18.2695C4.45321 18.3807 4.80157 18.9095 4.69033 19.4504C4.57909 19.9914 4.05037 20.3398 3.5094 20.2285C2.07121 19.9328 1.01818 19.4055 0.526277 18.3679C0.158084 17.5957 0.158084 16.6985 0.52589 15.9289C0.988573 14.9562 1.95251 14.4257 3.216 14.137L3.49126 14.0787C4.15897 13.9285 4.84319 13.8297 5.53891 13.7817C6.08989 13.7437 6.56734 14.1596 6.60534 14.7105ZM14.917 0.583008C18.3244 0.583008 21.0613 3.31995 21.0613 6.72734C21.0613 10.1357 18.3246 12.8729 14.917 12.8729C11.5094 12.8729 8.77268 10.1357 8.77268 6.72734C8.77268 3.31995 11.5096 0.583008 14.917 0.583008ZM22.4598 1.83884C25.1487 1.83884 27.3294 4.01858 27.3294 6.70717C27.3294 9.39577 25.1487 11.5755 22.4598 11.5755C21.9075 11.5755 21.4598 11.1278 21.4598 10.5755C21.4598 10.0232 21.9075 9.57551 22.4598 9.57551C24.0443 9.57551 25.3294 8.291 25.3294 6.70717C25.3294 5.12335 24.0443 3.83884 22.4598 3.83884C21.9075 3.83884 21.4598 3.39113 21.4598 2.83884C21.4598 2.28656 21.9075 1.83884 22.4598 1.83884ZM7.38666 1.83884C7.93894 1.83884 8.38665 2.28656 8.38665 2.83884C8.38665 3.39113 7.93894 3.83884 7.38666 3.83884C5.80217 3.83884 4.5171 5.12335 4.5171 6.70717C4.5171 8.291 5.80217 9.57551 7.38666 9.57551C7.93894 9.57551 8.38665 10.0232 8.38665 10.5755C8.38665 11.1278 7.93894 11.5755 7.38666 11.5755C4.69779 11.5755 2.5171 9.39577 2.5171 6.70717C2.5171 4.01858 4.69779 1.83884 7.38666 1.83884ZM14.917 2.58301C12.6142 2.58301 10.7727 4.42452 10.7727 6.72734C10.7727 9.03124 12.614 10.8729 14.917 10.8729C17.22 10.8729 19.0613 9.03124 19.0613 6.72734C19.0613 4.42452 17.2198 2.58301 14.917 2.58301Z" fill="#666666"/>
</svg>
