<svg width="20" height="15" viewBox="0 0 20 15" fill="none" xmlns="http://www.w3.org/2000/svg">
<path d="M8.5957 14.25C8.5957 14.25 7.4082 14.25 7.4082 13.0625C7.4082 11.875 8.5957 8.3125 13.3457 8.3125C18.0957 8.3125 19.2832 11.875 19.2832 13.0625C19.2832 14.25 18.0957 14.25 18.0957 14.25H8.5957ZM13.3457 7.125C14.2905 7.125 15.1967 6.74967 15.8648 6.08157C16.5329 5.41347 16.9082 4.50733 16.9082 3.5625C16.9082 2.61767 16.5329 1.71153 15.8648 1.04343C15.1967 0.375334 14.2905 0 13.3457 0C12.4009 0 11.4947 0.375334 10.8266 1.04343C10.1585 1.71153 9.7832 2.61767 9.7832 3.5625C9.7832 4.50733 10.1585 5.41347 10.8266 6.08157C11.4947 6.74967 12.4009 7.125 13.3457 7.125Z" fill="#123D59"/>
<path fill-rule="evenodd" clip-rule="evenodd" d="M6.4772 14.2505C6.30116 13.8798 6.21337 13.4733 6.2207 13.063C6.2207 11.4539 7.0282 9.79738 8.5197 8.64551C7.77525 8.41613 6.99964 8.30395 6.2207 8.31301C1.4707 8.31301 0.283203 11.8755 0.283203 13.063C0.283203 14.2505 1.4707 14.2505 1.4707 14.2505H6.4772Z" fill="#123D59"/>
<path d="M5.62695 7.125C6.41431 7.125 7.16943 6.81222 7.72618 6.25547C8.28293 5.69872 8.5957 4.94361 8.5957 4.15625C8.5957 3.36889 8.28293 2.61378 7.72618 2.05703C7.16943 1.50028 6.41431 1.1875 5.62695 1.1875C4.83959 1.1875 4.08448 1.50028 3.52773 2.05703C2.97098 2.61378 2.6582 3.36889 2.6582 4.15625C2.6582 4.94361 2.97098 5.69872 3.52773 6.25547C4.08448 6.81222 4.83959 7.125 5.62695 7.125Z" fill="#123D59"/>
</svg>
