<svg width="26" height="21" viewBox="0 0 26 21" fill="none" xmlns="http://www.w3.org/2000/svg">
<path d="M5.57143 13V11.1429H7.42857V13H5.57143ZM0 3.71429C0 2.7292 0.391325 1.78445 1.08789 1.08789C1.78445 0.391325 2.7292 0 3.71429 0H16.7143C17.6994 0 18.6441 0.391325 19.3407 1.08789C20.0372 1.78445 20.4286 2.7292 20.4286 3.71429V15.7857C20.4286 16.032 20.5264 16.2682 20.7005 16.4423C20.8747 16.6165 21.1109 16.7143 21.3571 16.7143C21.6034 16.7143 21.8396 16.6165 22.0137 16.4423C22.1879 16.2682 22.2857 16.032 22.2857 15.7857V3.71429C23.2708 3.71429 24.2155 4.10561 24.9121 4.80217C25.6087 5.49874 26 6.44348 26 7.42857V15.7857C26 17.0171 25.5108 18.198 24.6401 19.0687C23.7694 19.9394 22.5885 20.4286 21.3571 20.4286H4.64286C3.41149 20.4286 2.23057 19.9394 1.35986 19.0687C0.489157 18.198 0 17.0171 0 15.7857V3.71429ZM4.64286 5.57143C4.39658 5.57143 4.1604 5.66926 3.98626 5.8434C3.81212 6.01754 3.71429 6.25373 3.71429 6.5C3.71429 6.74627 3.81212 6.98246 3.98626 7.1566C4.1604 7.33074 4.39658 7.42857 4.64286 7.42857H15.7857C16.032 7.42857 16.2682 7.33074 16.4423 7.1566C16.6165 6.98246 16.7143 6.74627 16.7143 6.5C16.7143 6.25373 16.6165 6.01754 16.4423 5.8434C16.2682 5.66926 16.032 5.57143 15.7857 5.57143H4.64286ZM4.64286 9.28571C4.39658 9.28571 4.1604 9.38354 3.98626 9.55769C3.81212 9.73183 3.71429 9.96801 3.71429 10.2143V13.9286C3.71429 14.1748 3.81212 14.411 3.98626 14.5852C4.1604 14.7593 4.39658 14.8571 4.64286 14.8571H8.35714C8.60342 14.8571 8.8396 14.7593 9.01374 14.5852C9.18788 14.411 9.28571 14.1748 9.28571 13.9286V10.2143C9.28571 9.96801 9.18788 9.73183 9.01374 9.55769C8.8396 9.38354 8.60342 9.28571 8.35714 9.28571H4.64286ZM12.0714 9.28571C11.8252 9.28571 11.589 9.38354 11.4148 9.55769C11.2407 9.73183 11.1429 9.96801 11.1429 10.2143C11.1429 10.4606 11.2407 10.6967 11.4148 10.8709C11.589 11.045 11.8252 11.1429 12.0714 11.1429H15.7857C16.032 11.1429 16.2682 11.045 16.4423 10.8709C16.6165 10.6967 16.7143 10.4606 16.7143 10.2143C16.7143 9.96801 16.6165 9.73183 16.4423 9.55769C16.2682 9.38354 16.032 9.28571 15.7857 9.28571H12.0714ZM12.0714 13C11.8252 13 11.589 13.0978 11.4148 13.272C11.2407 13.4461 11.1429 13.6823 11.1429 13.9286C11.1429 14.1748 11.2407 14.411 11.4148 14.5852C11.589 14.7593 11.8252 14.8571 12.0714 14.8571H15.7857C16.032 14.8571 16.2682 14.7593 16.4423 14.5852C16.6165 14.411 16.7143 14.1748 16.7143 13.9286C16.7143 13.6823 16.6165 13.4461 16.4423 13.272C16.2682 13.0978 16.032 13 15.7857 13H12.0714Z" fill="#C6C6C6"/>
</svg>
