<svg width="20" height="20" viewBox="0 0 20 20" fill="none" xmlns="http://www.w3.org/2000/svg">
<path d="M14.0625 8.4375C15.9578 8.4375 17.5 6.89531 17.5 5C17.5 3.10469 15.9578 1.5625 14.0625 1.5625C12.1672 1.5625 10.625 3.10469 10.625 5C10.625 6.89531 12.1672 8.4375 14.0625 8.4375ZM14.0625 2.1875C15.6131 2.1875 16.875 3.44938 16.875 5C16.875 6.55062 15.6131 7.8125 14.0625 7.8125C12.5119 7.8125 11.25 6.55062 11.25 5C11.25 3.44938 12.5119 2.1875 14.0625 2.1875Z" fill="#123D59"/>
<path d="M14.0625 5.9375C13.8903 5.9375 13.75 5.79719 13.75 5.625H13.125C13.125 6.03188 13.3872 6.37562 13.75 6.505V7.1875H14.375V6.505C14.7378 6.37562 15 6.03188 15 5.625C15 5.10812 14.5794 4.6875 14.0625 4.6875C13.8903 4.6875 13.75 4.54719 13.75 4.375C13.75 4.20281 13.8903 4.0625 14.0625 4.0625C14.2347 4.0625 14.375 4.20281 14.375 4.375H15C15 3.96812 14.7378 3.62437 14.375 3.495V2.8125H13.75V3.495C13.3872 3.62437 13.125 3.96812 13.125 4.375C13.125 4.89188 13.5456 5.3125 14.0625 5.3125C14.2347 5.3125 14.375 5.45281 14.375 5.625C14.375 5.79719 14.2347 5.9375 14.0625 5.9375Z" fill="#123D59"/>
<path d="M17.8131 7.79969C18.3988 7.01719 18.75 6.05 18.75 5C18.75 2.41531 16.6472 0.3125 14.0625 0.3125C11.4778 0.3125 9.375 2.41531 9.375 5C9.375 6.05 9.72625 7.01719 10.3119 7.79969C9.30125 8.20062 8.75 8.75125 8.75 9.375V9.84469L6.0575 5.71594C5.8925 5.46313 5.61406 5.3125 5.3125 5.3125C5.01094 5.3125 4.7325 5.46313 4.5675 5.71594L0.862812 11.3969C0.298437 12.2622 0 13.2656 0 14.2987V14.375C0 17.3044 2.38313 19.6875 5.3125 19.6875C6.85687 19.6875 8.28594 19.0281 9.29531 17.8781C10.2197 18.6519 12.1819 19.0625 14.0625 19.0625C16.6378 19.0625 19.375 18.2959 19.375 16.875V9.375C19.375 8.75125 18.8237 8.20062 17.8131 7.79969ZM14.0625 0.9375C16.3025 0.9375 18.125 2.76 18.125 5C18.125 7.24 16.3025 9.0625 14.0625 9.0625C11.8225 9.0625 10 7.24 10 5C10 2.76 11.8225 0.9375 14.0625 0.9375ZM10.7441 8.30719C11.5934 9.15906 12.7672 9.6875 14.0625 9.6875C15.3578 9.6875 16.5316 9.15906 17.3809 8.30719C18.2278 8.60656 18.75 9.0075 18.75 9.375C18.75 10.1125 16.7453 10.9375 14.0625 10.9375C11.3797 10.9375 9.375 10.1125 9.375 9.375C9.375 9.0075 9.89719 8.60656 10.7441 8.30719ZM5.3125 19.0625C2.72781 19.0625 0.625 16.9597 0.625 14.375V14.2987C0.625 13.3872 0.888125 12.5019 1.38625 11.7381L5.09094 6.05719C5.18875 5.90719 5.43594 5.90719 5.53406 6.05719L8.75 10.9888V16.875C8.75 17.0606 8.79906 17.2344 8.88594 17.3975C7.99219 18.455 6.70531 19.0625 5.3125 19.0625ZM14.0625 18.4375C11.3797 18.4375 9.375 17.6125 9.375 16.875V15.4416C10.3291 16.1741 12.2341 16.5625 14.0625 16.5625C15.8909 16.5625 17.7959 16.1741 18.75 15.4416V16.875C18.75 17.6125 16.7453 18.4375 14.0625 18.4375ZM14.0625 15.9375C11.3797 15.9375 9.375 15.1125 9.375 14.375V12.9416C10.3291 13.6741 12.2341 14.0625 14.0625 14.0625C15.8909 14.0625 17.7959 13.6741 18.75 12.9416V14.375C18.75 15.1125 16.7453 15.9375 14.0625 15.9375ZM14.0625 13.4375C11.3797 13.4375 9.375 12.6125 9.375 11.875V10.4416C10.3291 11.1741 12.2341 11.5625 14.0625 11.5625C15.8909 11.5625 17.7959 11.1741 18.75 10.4416V11.875C18.75 12.6125 16.7453 13.4375 14.0625 13.4375Z" fill="#123D59"/>
<path d="M2.04751 13.2228L1.45407 13.0269C1.38189 13.2462 1.32782 13.474 1.29376 13.704L1.9122 13.7956C1.94064 13.6009 1.98626 13.4084 2.04751 13.2228Z" fill="#123D59"/>
<path d="M1.875 14.375H1.25C1.25 16.615 3.0725 18.4375 5.3125 18.4375V17.8125C3.41719 17.8125 1.875 16.2703 1.875 14.375Z" fill="#123D59"/>
</svg>
