<svg width="20" height="20" viewBox="0 0 20 20" fill="none" xmlns="http://www.w3.org/2000/svg">
<path d="M9.98491 0C7.33674 0 4.79704 1.05198 2.92451 2.92451C1.05198 4.79704 0 7.33674 0 9.98491C0 12.6331 1.05198 15.1728 2.92451 17.0453C4.79704 18.9178 7.33674 19.9698 9.98491 19.9698C12.6331 19.9698 15.1728 18.9178 17.0453 17.0453C18.9178 15.1728 19.9698 12.6331 19.9698 9.98491C19.9698 7.33674 18.9178 4.79704 17.0453 2.92451C15.1728 1.05198 12.6331 0 9.98491 0ZM15.6775 13.6235L13.6223 15.6787L9.98491 12.0401L6.34636 15.6775L4.29113 13.6223L7.93087 9.98491L4.29232 6.34636L6.34755 4.29232L9.98491 7.92968L13.6235 4.29113L15.6787 6.34636L12.0389 9.98491L15.6775 13.6235Z" fill="#EC1C24" fill-opacity="0.75"/>
</svg>
