<svg width="7" height="5" viewBox="0 0 7 5" fill="none" xmlns="http://www.w3.org/2000/svg">
<path d="M6.32082 0.5C6.67246 0.5 6.95832 0.781005 6.96507 1.13021L6.9652 1.14286V1.78571C6.9652 3.56092 5.52272 5 3.74334 5C1.98175 5 0.550368 3.58955 0.521916 1.83887L0.521484 1.78571V1.14286C0.521484 0.787817 0.809979 0.5 1.16586 0.5C1.5175 0.5 1.80335 0.781005 1.8101 1.13021L1.81023 1.14286V1.78571C1.81023 2.85083 2.67571 3.71429 3.74334 3.71429C4.80029 3.71429 5.65912 2.86802 5.67619 1.81761L5.67645 1.78571V1.14286C5.67645 0.787817 5.96495 0.5 6.32082 0.5Z" fill="#F2B41C"/>
</svg>
