<svg width="26" height="25" viewBox="0 0 26 25" fill="none" xmlns="http://www.w3.org/2000/svg">
<path d="M13.4854 0C10.1701 0 6.99072 1.31696 4.64652 3.66117C2.30231 6.00537 0.985352 9.18479 0.985352 12.5C0.985352 15.8152 2.30231 18.9946 4.64652 21.3388C6.99072 23.683 10.1701 25 13.4854 25C16.8006 25 19.98 23.683 22.3242 21.3388C24.6684 18.9946 25.9854 15.8152 25.9854 12.5C25.9854 9.18479 24.6684 6.00537 22.3242 3.66117C19.98 1.31696 16.8006 0 13.4854 0ZM20.6118 17.0551L18.0389 19.628L13.4854 15.0729L8.93029 19.6265L6.35738 17.0536L10.9139 12.5L6.35886 7.94494L8.93178 5.37351L13.4854 9.92708L18.0404 5.37202L20.6133 7.94494L16.0568 12.5L20.6118 17.0551Z" fill="#F1B41C"/>
</svg>
