<svg width="24" height="28" viewBox="0 0 24 28" fill="none" xmlns="http://www.w3.org/2000/svg">
<path d="M15.4773 24.2545C15.8727 24.5765 15.9354 25.1621 15.6173 25.5624C15.3821 25.8583 15.1103 26.1233 14.8223 26.3404C13.8521 27.1016 12.6187 27.4468 11.3937 27.3009C10.1677 27.1549 9.04934 26.5286 8.28612 25.5589C7.96987 25.1571 8.03529 24.5718 8.43224 24.2517C8.82919 23.9316 9.40736 23.9978 9.72361 24.3996C10.1839 24.9844 10.8623 25.3643 11.6085 25.4532C12.3559 25.5422 13.1077 25.3318 13.7101 24.8593C13.8877 24.7253 14.0473 24.5697 14.1852 24.3962C14.5034 23.9959 15.0818 23.9324 15.4773 24.2545ZM2.8695 9.99998L2.88592 9.20554C2.89765 8.86573 2.91582 8.5503 2.94247 8.2416C3.34206 3.92641 7.46087 0.666992 11.9531 0.666992H12.0482C16.5379 0.666992 20.6579 3.92413 21.0712 8.24748C21.0949 8.5223 21.1051 8.76643 21.1081 9.10974L21.1093 10.1601C21.1103 10.2558 21.1119 10.3399 21.1144 10.4184L21.1267 10.68L21.1861 10.9295C21.3737 11.6244 21.7034 12.274 22.155 12.8379L22.3559 13.0743L22.4382 13.1799C22.9797 13.9892 23.2891 14.931 23.3333 15.9453L23.332 16.483C23.2942 17.6843 22.8532 18.8445 22.0451 19.8112C20.9748 20.9471 19.5245 21.6528 17.9831 21.7946C14.0027 22.2268 9.98666 22.2268 6.01729 21.7958C4.46529 21.6465 3.01925 20.9429 1.90218 19.7634C1.07843 18.7592 0.640556 17.4947 0.667875 16.2169L0.669003 15.8992C0.716594 14.9277 1.02405 13.9868 1.55915 13.1739L1.64872 13.0587C2.27366 12.3736 2.70093 11.5351 2.88631 10.6311L2.86625 10.7123L2.8695 9.99998ZM12.0482 2.52746H11.9531C8.35536 2.52746 5.07738 5.12148 4.7729 8.40936C4.75731 8.59003 4.74488 8.77642 4.73517 8.97259L4.71376 9.59445L4.70506 10.8201L4.68588 11.0092C4.43259 12.2443 3.84972 13.3882 2.99906 14.3208L3.06475 14.2447L2.94726 14.4391C2.72718 14.8357 2.5852 15.2663 2.5291 15.6913L2.50581 15.9453L2.50559 16.2369C2.48758 17.086 2.77449 17.9145 3.27159 18.5244C4.03842 19.3316 5.07577 19.8363 6.20224 19.9448C10.0524 20.3628 13.9369 20.3628 17.8018 19.9433C18.9161 19.8407 19.9527 19.3363 20.6779 18.5692C21.2266 17.911 21.5166 17.0799 21.4954 16.2051L21.4965 15.9872C21.4683 15.3584 21.268 14.7487 20.9165 14.2232L20.9368 14.2571L20.753 14.0415C20.1191 13.2591 19.6587 12.3517 19.4023 11.3789L19.3158 11.0112L19.2986 10.8877C19.2856 10.7072 19.2781 10.5467 19.274 10.3538L19.2704 9.14766C19.2679 8.84092 19.2596 8.63444 19.241 8.41801C18.9259 5.12133 15.6448 2.52746 12.0482 2.52746Z" fill="#666666"/>
</svg>
