<svg width="21" height="21" viewBox="0 0 21 21" fill="none" xmlns="http://www.w3.org/2000/svg">
<path d="M0.736712 20.2759C0.852123 20.3907 0.997929 20.4703 1.15699 20.5051C1.31606 20.5399 1.48176 20.5286 1.63463 20.4725L20.4481 13.6313C20.6104 13.5697 20.7501 13.4603 20.8486 13.3175C20.9472 13.1746 21 13.0052 21 12.8317C21 12.6582 20.9472 12.4887 20.8486 12.3459C20.7501 12.2031 20.6104 12.0937 20.4481 12.0321L13.1023 9.09892L7.6806 14.5377L6.47483 13.332L11.9222 7.8846L8.98044 0.53878C8.91707 0.379665 8.80738 0.243242 8.66558 0.147186C8.52379 0.0511303 8.35641 -0.000135422 8.18514 3.05176e-05C8.01233 0.00357437 7.84464 0.0594044 7.7042 0.16016C7.56375 0.260916 7.45713 0.401867 7.3984 0.564434L0.557125 19.3779C0.498863 19.5292 0.48481 19.694 0.516605 19.853C0.548401 20.0119 0.624739 20.1586 0.736712 20.2759Z" fill="#F2B41C"/>
</svg>
