<svg width="20" height="18" viewBox="0 0 20 18" fill="none" xmlns="http://www.w3.org/2000/svg">
<path d="M18.521 0.477845C18.3335 0.290374 18.0792 0.185059 17.814 0.185059C17.5488 0.185059 17.2945 0.290374 17.107 0.477845L1.48 16.1068C1.38449 16.1991 1.30831 16.3094 1.2559 16.4314C1.20349 16.5534 1.1759 16.6847 1.17475 16.8174C1.1736 16.9502 1.1989 17.0819 1.24918 17.2048C1.29946 17.3277 1.37371 17.4393 1.4676 17.5332C1.5615 17.6271 1.67315 17.7014 1.79605 17.7517C1.91894 17.8019 2.05062 17.8272 2.1834 17.8261C2.31618 17.8249 2.4474 17.7974 2.5694 17.7449C2.69141 17.6925 2.80175 17.6164 2.894 17.5208L18.52 1.89184C18.7075 1.70432 18.8128 1.45001 18.8128 1.18484C18.8128 0.919681 18.7075 0.665373 18.52 0.477845H18.521ZM3.108 12.4978L5.668 9.93785C5.59501 9.63045 5.5571 9.31578 5.555 8.99985C5.555 6.62085 7.545 4.69085 10 4.69085C10.286 4.69085 10.564 4.72284 10.835 4.77284L12.038 3.57085C11.3644 3.45925 10.6828 3.40239 10 3.40085C3.44 3.39985 0 8.23085 0 8.99985C0 9.42285 1.057 11.0898 3.108 12.4968V12.4978ZM16.895 5.50485L14.333 8.06484C14.402 8.36684 14.444 8.67785 14.444 8.99985C14.444 11.3788 12.455 13.3068 10 13.3068C9.716 13.3068 9.44 13.2748 9.171 13.2258L7.967 14.4288C8.609 14.5328 9.283 14.5988 10 14.5988C16.56 14.5988 20 9.76585 20 8.99985C20 8.57585 18.944 6.90985 16.895 5.50485V5.50485Z" fill="black"/>
</svg>
