<svg width="20" height="12" viewBox="0 0 20 12" fill="none" xmlns="http://www.w3.org/2000/svg">
<path d="M10 0C3.439 0 0 4.832 0 5.6C0 6.366 3.439 11.2 10 11.2C16.56 11.2 20 6.366 20 5.6C20 4.832 16.56 0 10 0ZM10 9.907C7.545 9.907 5.555 7.979 5.555 5.6C5.555 3.221 7.545 1.291 10 1.291C12.455 1.291 14.444 3.221 14.444 5.6C14.444 7.979 12.455 9.907 10 9.907ZM10 5.6C9.593 5.153 10.663 3.446 10 3.446C8.772 3.446 7.777 4.411 7.777 5.6C7.777 6.789 8.772 7.754 10 7.754C11.227 7.754 12.223 6.789 12.223 5.6C12.223 5.053 10.346 5.979 10 5.6Z" fill="black"/>
</svg>
