<svg width="33" height="25" viewBox="0 0 33 25" fill="none" xmlns="http://www.w3.org/2000/svg">
<path d="M30.375 24.3C30.375 24.3 32.4 24.3 32.4 22.275C32.4 20.25 30.375 14.175 22.275 14.175C14.175 14.175 12.15 20.25 12.15 22.275C12.15 24.3 14.175 24.3 14.175 24.3H30.375ZM14.2196 22.275C14.2046 22.2729 14.1897 22.2702 14.175 22.2669C14.177 21.7323 14.5132 20.1811 15.714 18.7839C16.8318 17.4737 18.7961 16.2 22.275 16.2C25.7519 16.2 27.7162 17.4757 28.836 18.7839C30.0368 20.1811 30.371 21.7343 30.375 22.2669L30.3588 22.2709C30.3494 22.2725 30.3399 22.2739 30.3305 22.275H14.2196V22.275ZM22.275 10.125C23.3491 10.125 24.3793 9.6983 25.1388 8.93878C25.8983 8.17926 26.325 7.14913 26.325 6.075C26.325 5.00087 25.8983 3.97074 25.1388 3.21122C24.3793 2.45169 23.3491 2.025 22.275 2.025C21.2009 2.025 20.1707 2.45169 19.4112 3.21122C18.6517 3.97074 18.225 5.00087 18.225 6.075C18.225 7.14913 18.6517 8.17926 19.4112 8.93878C20.1707 9.6983 21.2009 10.125 22.275 10.125ZM28.35 6.075C28.35 6.87278 28.1929 7.66275 27.8876 8.3998C27.5823 9.13685 27.1348 9.80656 26.5707 10.3707C26.0066 10.9348 25.3369 11.3823 24.5998 11.6876C23.8628 11.9929 23.0728 12.15 22.275 12.15C21.4772 12.15 20.6873 11.9929 19.9502 11.6876C19.2131 11.3823 18.5434 10.9348 17.9793 10.3707C17.4152 9.80656 16.9677 9.13685 16.6624 8.3998C16.3571 7.66275 16.2 6.87278 16.2 6.075C16.2 4.46381 16.84 2.91861 17.9793 1.77933C19.1186 0.640043 20.6638 0 22.275 0C23.8862 0 25.4314 0.640043 26.5707 1.77933C27.71 2.91861 28.35 4.46381 28.35 6.075V6.075ZM14.0454 14.742C13.2354 14.4869 12.4004 14.3192 11.5547 14.2418C11.0794 14.1966 10.6023 14.1743 10.125 14.175C2.025 14.175 0 20.25 0 22.275C0 23.6257 0.674325 24.3 2.025 24.3H10.5624C10.2622 23.6678 10.1125 22.9747 10.125 22.275C10.125 20.2297 10.8884 18.1399 12.3323 16.3944C12.8243 15.799 13.3974 15.2422 14.0454 14.742ZM9.963 16.2C8.76451 18.0008 8.11709 20.1119 8.1 22.275H2.025C2.025 21.7485 2.3571 20.1892 3.564 18.7839C4.66763 17.496 6.5853 16.2405 9.963 16.202V16.2ZM3.0375 7.0875C3.0375 5.47631 3.67754 3.93111 4.81683 2.79183C5.95611 1.65254 7.50131 1.0125 9.1125 1.0125C10.7237 1.0125 12.2689 1.65254 13.4082 2.79183C14.5475 3.93111 15.1875 5.47631 15.1875 7.0875C15.1875 8.69869 14.5475 10.2439 13.4082 11.3832C12.2689 12.5225 10.7237 13.1625 9.1125 13.1625C7.50131 13.1625 5.95611 12.5225 4.81683 11.3832C3.67754 10.2439 3.0375 8.69869 3.0375 7.0875V7.0875ZM9.1125 3.0375C8.03837 3.0375 7.00824 3.46419 6.24872 4.22372C5.4892 4.98324 5.0625 6.01337 5.0625 7.0875C5.0625 8.16163 5.4892 9.19176 6.24872 9.95128C7.00824 10.7108 8.03837 11.1375 9.1125 11.1375C10.1866 11.1375 11.2168 10.7108 11.9763 9.95128C12.7358 9.19176 13.1625 8.16163 13.1625 7.0875C13.1625 6.01337 12.7358 4.98324 11.9763 4.22372C11.2168 3.46419 10.1866 3.0375 9.1125 3.0375Z" fill="#9DA3AF"/>
</svg>
