<svg width="17" height="17" viewBox="0 0 17 17" fill="none" xmlns="http://www.w3.org/2000/svg">
<path d="M7.41564 4.18074L4.8784 1.252C4.5859 0.914505 4.04966 0.916005 3.70991 1.2565L1.62342 3.34674C1.00242 3.96849 0.824675 4.89173 1.18392 5.63198C3.33013 10.0757 6.91393 13.6645 11.3546 15.8169C12.0941 16.1762 13.0166 15.9984 13.6376 15.3767L15.7436 13.2669C16.0848 12.9257 16.0856 12.3864 15.7451 12.0939L12.8051 9.57021C12.4976 9.30621 12.0199 9.34071 11.7116 9.64971L10.6886 10.6742C10.6362 10.7291 10.5673 10.7653 10.4924 10.7772C10.4175 10.7891 10.3407 10.7761 10.2739 10.7402C8.60172 9.77728 7.21463 8.38839 6.2539 6.71497C6.21792 6.64804 6.20489 6.57114 6.21681 6.49609C6.22873 6.42104 6.26495 6.35197 6.3199 6.29948L7.33989 5.27873C7.64889 4.96823 7.68264 4.48824 7.41564 4.17999V4.18074Z" stroke="#123D59" stroke-linecap="round" stroke-linejoin="round"/>
</svg>
