<svg width="45" height="43" viewBox="0 0 45 43" fill="none" xmlns="http://www.w3.org/2000/svg">
<path d="M44.7194 21.3016C44.7236 19.1626 43.9425 17.0965 42.5243 15.4952C41.106 13.894 39.1493 12.869 37.0254 12.6149C37.5612 11.4445 37.8566 10.1786 37.8941 8.89199C37.9012 7.74925 37.6814 6.61648 37.2473 5.55935C36.8133 4.50223 36.1737 3.54179 35.3656 2.73374C34.5576 1.92568 33.5971 1.28609 32.54 0.852052C31.4829 0.418011 30.3501 0.198159 29.2074 0.205244C27.888 0.19742 26.5848 0.495973 25.4004 1.07739C24.2161 1.65882 23.1828 2.50723 22.3821 3.55585C21.5813 2.50723 20.5481 1.65882 19.3637 1.07739C18.1793 0.495973 16.8761 0.19742 15.5568 0.205244C14.414 0.198159 13.2813 0.418011 12.2241 0.852052C11.167 1.28609 10.2066 1.92568 9.39851 2.73374C8.59046 3.54179 7.95086 4.50223 7.51682 5.55935C7.08278 6.61648 6.86293 7.74925 6.87002 8.89199C6.89331 10.1804 7.18937 11.4492 7.73869 12.6149C5.61717 12.874 3.6638 13.9004 2.24707 15.5007C0.830342 17.101 0.0482025 19.1644 0.0482025 21.3016C0.0482025 23.4389 0.830342 25.5023 2.24707 27.1026C3.6638 28.7028 5.61717 29.7293 7.73869 29.9884C7.20293 31.1587 6.90754 32.4247 6.87002 33.7113C6.86293 34.854 7.08278 35.9868 7.51682 37.0439C7.95086 38.101 8.59046 39.0615 9.39851 39.8695C10.2066 40.6776 11.167 41.3172 12.2241 41.7512C13.2813 42.1852 14.414 42.4051 15.5568 42.398C16.8761 42.4058 18.1793 42.1073 19.3637 41.5259C20.5481 40.9444 21.5813 40.096 22.3821 39.0474C23.1641 40.1161 24.1936 40.9792 25.3824 41.5627C26.5711 42.1463 27.8836 42.4329 29.2074 42.398C30.3501 42.4051 31.4829 42.1852 32.54 41.7512C33.5971 41.3172 34.5576 40.6776 35.3656 39.8695C36.1737 39.0615 36.8133 38.101 37.2473 37.0439C37.6814 35.9868 37.9012 34.854 37.8941 33.7113C37.8708 32.4229 37.5748 31.154 37.0254 29.9884C39.1404 29.7129 41.0842 28.6817 42.4983 27.0851C43.9125 25.4885 44.7013 23.4343 44.7194 21.3016ZM29.2074 3.92814C30.1891 3.92814 31.1488 4.21926 31.9651 4.7647C32.7814 5.31013 33.4177 6.08538 33.7934 6.99241C34.1691 7.89943 34.2674 8.8975 34.0758 9.86039C33.8843 10.8233 33.4116 11.7078 32.7173 12.402C32.0231 13.0962 31.1387 13.5689 30.1758 13.7605C29.2129 13.952 28.2148 13.8537 27.3078 13.478C26.4008 13.1023 25.6255 12.4661 25.0801 11.6498C24.5346 10.8335 24.2435 9.87375 24.2435 8.89199C24.235 8.23777 24.3576 7.58847 24.604 6.98239C24.8505 6.37631 25.2158 5.82571 25.6784 5.36306C26.1411 4.90042 26.6917 4.53511 27.2978 4.28866C27.9039 4.04222 28.5532 3.91963 29.2074 3.92814ZM15.5568 3.92814C16.5385 3.92814 17.4982 4.21926 18.3145 4.7647C19.1308 5.31013 19.7671 6.08538 20.1428 6.99241C20.5185 7.89943 20.6168 8.8975 20.4252 9.86039C20.2337 10.8233 19.761 11.7078 19.0667 12.402C18.3725 13.0962 17.4881 13.5689 16.5252 13.7605C15.5623 13.952 14.5642 13.8537 13.6572 13.478C12.7501 13.1023 11.9749 12.4661 11.4295 11.6498C10.884 10.8335 10.5929 9.87375 10.5929 8.89199C10.5844 8.23777 10.707 7.58847 10.9534 6.98239C11.1999 6.37631 11.5652 5.82571 12.0278 5.36306C12.4905 4.90042 13.0411 4.53511 13.6472 4.28866C14.2532 4.04222 14.9025 3.91963 15.5568 3.92814ZM8.73147 26.2655C7.74971 26.2655 6.78999 25.9744 5.97369 25.4289C5.15739 24.8835 4.52116 24.1082 4.14546 23.2012C3.76976 22.2942 3.67146 21.2961 3.86299 20.3332C4.05452 19.3703 4.52728 18.4859 5.22149 17.7917C5.91569 17.0974 6.80017 16.6247 7.76306 16.4332C8.72595 16.2416 9.72402 16.3399 10.631 16.7156C11.5381 17.0913 12.3133 17.7276 12.8588 18.5439C13.4042 19.3602 13.6953 20.3199 13.6953 21.3016C13.6914 22.6169 13.1672 23.8772 12.2371 24.8073C11.307 25.7373 10.0468 26.2616 8.73147 26.2655ZM15.5568 38.6751C14.575 38.6751 13.6153 38.384 12.799 37.8386C11.9827 37.2931 11.3465 36.5179 10.9708 35.6109C10.5951 34.7038 10.4968 33.7058 10.6883 32.7429C10.8798 31.78 11.3526 30.8955 12.0468 30.2013C12.741 29.5071 13.6255 29.0343 14.5884 28.8428C15.5513 28.6513 16.5493 28.7496 17.4563 29.1253C18.3634 29.501 19.1386 30.1372 19.6841 30.9535C20.2295 31.7698 20.5206 32.7295 20.5206 33.7113C20.5167 35.0266 19.9924 36.2869 19.0624 37.2169C18.1323 38.147 16.8721 38.6712 15.5568 38.6751ZM22.3821 26.2655C21.4003 26.2655 20.4406 25.9744 19.6243 25.4289C18.808 24.8835 18.1718 24.1082 17.7961 23.2012C17.4204 22.2942 17.3221 21.2961 17.5136 20.3332C17.7051 19.3703 18.1779 18.4859 18.8721 17.7917C19.5663 17.0974 20.4508 16.6247 21.4137 16.4332C22.3766 16.2416 23.3746 16.3399 24.2816 16.7156C25.1887 17.0913 25.9639 17.7276 26.5094 18.5439C27.0548 19.3602 27.3459 20.3199 27.3459 21.3016C27.342 22.6169 26.8177 23.8772 25.8877 24.8073C24.9576 25.7373 23.6974 26.2616 22.3821 26.2655ZM29.2074 38.6751C28.2256 38.6751 27.2659 38.384 26.4496 37.8386C25.6333 37.2931 24.9971 36.5179 24.6214 35.6109C24.2457 34.7038 24.1474 33.7058 24.3389 32.7429C24.5304 31.78 25.0032 30.8955 25.6974 30.2013C26.3916 29.5071 27.2761 29.0343 28.239 28.8428C29.2019 28.6513 30.1999 28.7496 31.107 29.1253C32.014 29.501 32.7892 30.1372 33.3347 30.9535C33.8801 31.7698 34.1712 32.7295 34.1712 33.7113C34.1673 35.0266 33.643 36.2869 32.713 37.2169C31.7829 38.147 30.5227 38.6712 29.2074 38.6751ZM36.0327 26.2655C35.0509 26.2655 34.0912 25.9744 33.2749 25.4289C32.4586 24.8835 31.8224 24.1082 31.4467 23.2012C31.071 22.2942 30.9727 21.2961 31.1642 20.3332C31.3557 19.3703 31.8285 18.4859 32.5227 17.7917C33.2169 17.0974 34.1014 16.6247 35.0643 16.4332C36.0272 16.2416 37.0252 16.3399 37.9323 16.7156C38.8393 17.0913 39.6145 17.7276 40.16 18.5439C40.7054 19.3602 40.9965 20.3199 40.9965 21.3016C40.9926 22.6169 40.4683 23.8772 39.5383 24.8073C38.6082 25.7373 37.348 26.2616 36.0327 26.2655Z" fill="#123D59"/>
</svg>
