<svg width="21" height="21" viewBox="0 0 21 21" fill="none" xmlns="http://www.w3.org/2000/svg">
<path d="M20.2633 0.249052C20.1479 0.134181 20.0021 0.0546488 19.843 0.0198063C19.6839 -0.0150362 19.5182 -0.00374055 19.3654 0.0523652L0.551879 6.89364C0.389628 6.95518 0.249939 7.06463 0.151366 7.20744C0.0527928 7.35026 0 7.51968 0 7.69321C0 7.86674 0.0527928 8.03617 0.151366 8.17898C0.249939 8.3218 0.389628 8.43124 0.551879 8.49278L7.89769 11.426L13.3194 5.98717L14.5252 7.19294L9.07781 12.6403L12.0196 19.9861C12.0829 20.1452 12.1926 20.2817 12.3344 20.3777C12.4762 20.4738 12.6436 20.525 12.8149 20.5249C12.9877 20.5213 13.1554 20.4655 13.2958 20.3647C13.4363 20.264 13.5429 20.123 13.6016 19.9605L20.4429 1.14697C20.5011 0.995671 20.5152 0.830928 20.4834 0.671948C20.4516 0.512968 20.3753 0.366303 20.2633 0.249052Z" fill="#F2B41C"/>
</svg>
