<svg width="14" height="20" viewBox="0 0 14 20" fill="none" xmlns="http://www.w3.org/2000/svg">
<path d="M13.6668 19.1837V1.91837C13.6668 0.860387 12.8065 0 11.7485 0H2.15665C1.09867 0 0.238281 0.860387 0.238281 1.91837V19.1837L6.95256 14.7081L13.6668 19.1837ZM3.12159 5.80881C3.12159 5.264 3.33644 4.77002 3.68271 4.41224C4.02897 4.05543 4.50761 3.83386 5.03708 3.83386C5.03708 3.83386 5.99242 3.83098 6.95256 4.82086C7.91271 3.83098 8.86805 3.83386 8.86805 3.83386C9.39752 3.83386 9.87616 4.05447 10.2224 4.41224C10.5687 4.77002 10.7835 5.264 10.7835 5.80881C10.7835 6.35363 10.5687 6.84857 10.2224 7.20539L6.95256 10.7457L3.68271 7.20539C3.32078 6.8308 3.11943 6.32968 3.12159 5.80881Z" fill="#123D59" fill-opacity="0.85"/>
</svg>
