<svg width="23" height="21" viewBox="0 0 23 21" fill="none" xmlns="http://www.w3.org/2000/svg">
<path fill-rule="evenodd" clip-rule="evenodd" d="M3.45 3.45C2.535 3.45 1.65748 3.81348 1.01048 4.46048C0.363481 5.10748 0 5.985 0 6.9V17.25C0 18.165 0.363481 19.0425 1.01048 19.6895C1.65748 20.3365 2.535 20.7 3.45 20.7H19.55C20.465 20.7 21.3425 20.3365 21.9895 19.6895C22.6365 19.0425 23 18.165 23 17.25V6.9C23 5.985 22.6365 5.10748 21.9895 4.46048C21.3425 3.81348 20.465 3.45 19.55 3.45H3.45ZM11.5 0C11.805 0 12.0975 0.12116 12.3132 0.336827C12.5288 0.552494 12.65 0.845001 12.65 1.15V9.8739L14.1369 8.38695C14.243 8.27711 14.3699 8.1895 14.5102 8.12923C14.6505 8.06896 14.8014 8.03724 14.9541 8.03591C15.1068 8.03458 15.2583 8.06368 15.3996 8.12151C15.5409 8.17933 15.6693 8.26472 15.7773 8.3727C15.8853 8.48067 15.9707 8.60907 16.0285 8.7504C16.0863 8.89173 16.1154 9.04317 16.1141 9.19586C16.1128 9.34856 16.081 9.49946 16.0208 9.63977C15.9605 9.78007 15.8729 9.90697 15.763 10.0131L12.313 13.4631C12.0974 13.6786 11.8049 13.7998 11.5 13.7998C11.1951 13.7998 10.9026 13.6786 10.6869 13.4631L7.23695 10.0131C7.12711 9.90697 7.0395 9.78007 6.97923 9.63977C6.91896 9.49946 6.88724 9.34856 6.88591 9.19586C6.88458 9.04317 6.91368 8.89173 6.97151 8.7504C7.02933 8.60907 7.11472 8.48067 7.2227 8.3727C7.33067 8.26472 7.45907 8.17933 7.6004 8.12151C7.74173 8.06368 7.89316 8.03458 8.04586 8.03591C8.19856 8.03724 8.34946 8.06896 8.48977 8.12923C8.63007 8.1895 8.75697 8.27711 8.86305 8.38695L10.35 9.8739V1.15C10.35 0.845001 10.4712 0.552494 10.6868 0.336827C10.9025 0.12116 11.195 0 11.5 0Z" fill="#F2B41C"/>
</svg>
