<svg width="12" height="18" viewBox="0 0 12 18" fill="none" xmlns="http://www.w3.org/2000/svg">
<path d="M12 17.1429V1.71429C12 0.768857 11.2311 0 10.2857 0H1.71429C0.768857 0 0 0.768857 0 1.71429V17.1429L6 13.1434L12 17.1429ZM2.57657 5.19086C2.57657 4.704 2.76857 4.26257 3.078 3.94286C3.38743 3.624 3.81514 3.426 4.28829 3.426C4.28829 3.426 5.142 3.42343 6 4.308C6.858 3.42343 7.71171 3.426 7.71171 3.426C8.18486 3.426 8.61257 3.62314 8.922 3.94286C9.23143 4.26257 9.42343 4.704 9.42343 5.19086C9.42343 5.67771 9.23143 6.12 8.922 6.43886L6 9.60257L3.078 6.43886C2.75457 6.10412 2.57465 5.65631 2.57657 5.19086V5.19086Z" fill="#123D59" fill-opacity="0.85"/>
</svg>
