<svg width="14" height="15" viewBox="0 0 14 15" fill="none" xmlns="http://www.w3.org/2000/svg">
<path d="M13.8383 0.170084C13.7595 0.0916357 13.6599 0.0373211 13.5513 0.0135262C13.4427 -0.0102686 13.3295 -0.00255452 13.2251 0.0357616L0.376893 4.70785C0.266087 4.74988 0.17069 4.82462 0.103372 4.92215C0.0360536 5.01969 0 5.13539 0 5.2539C0 5.37241 0.0360536 5.48811 0.103372 5.58564C0.17069 5.68318 0.266087 5.75792 0.376893 5.79995L5.39355 7.80311L9.09618 4.0888L9.91963 4.91225L6.19948 8.6324L8.20848 13.6491C8.25176 13.7577 8.32667 13.8509 8.4235 13.9165C8.52034 13.9821 8.63464 14.0171 8.75161 14.017C8.86963 14.0146 8.98414 13.9764 9.08006 13.9076C9.17598 13.8388 9.24879 13.7426 9.2889 13.6315L13.961 0.783296C14.0008 0.67997 14.0104 0.567463 13.9887 0.458891C13.9669 0.35032 13.9148 0.250158 13.8383 0.170084Z" fill="#666666"/>
</svg>
