<svg width="25" height="25" viewBox="0 0 25 25" fill="none" xmlns="http://www.w3.org/2000/svg">
<path d="M22.9 9.2125H21.5375C21.3625 9.2125 21.2375 9.075 21.1625 8.8875C21.1178 8.81864 21.0941 8.73832 21.0941 8.65625C21.0941 8.57418 21.1178 8.49386 21.1625 8.425L22.175 7.5C22.3734 7.30913 22.5311 7.08001 22.6385 6.8265C22.746 6.57299 22.8009 6.30033 22.8 6.025C22.7997 5.74799 22.7443 5.47381 22.637 5.21843C22.5297 4.96304 22.3727 4.73157 22.175 4.5375L20.5 2.825C20.306 2.62961 20.0752 2.47453 19.821 2.36871C19.5668 2.26288 19.2941 2.2084 19.0187 2.2084C18.7434 2.2084 18.4707 2.26288 18.2165 2.36871C17.9623 2.47453 17.7315 2.62961 17.5375 2.825L16.575 3.75C16.4985 3.799 16.4096 3.82505 16.3188 3.82505C16.2279 3.82505 16.139 3.799 16.0625 3.75C15.987 3.72185 15.9211 3.67283 15.8724 3.60865C15.8237 3.54447 15.7943 3.46777 15.7875 3.3875V2.1C15.7877 1.55371 15.5751 1.02882 15.1947 0.636743C14.8143 0.244665 14.2961 0.0162587 13.75 3.24181e-10H11.325C10.7669 -9.77027e-06 10.2315 0.22084 9.83564 0.614311C9.43983 1.00778 9.2158 1.5419 9.2125 2.1V3.4625C9.2125 3.6375 9.075 3.7625 8.8875 3.8375C8.81864 3.88216 8.73832 3.90592 8.65625 3.90592C8.57418 3.90592 8.49386 3.88216 8.425 3.8375L7.5 2.825C7.1041 2.43146 6.57067 2.20733 6.0125 2.2C5.73738 2.20054 5.46516 2.25611 5.21184 2.36345C4.95853 2.47078 4.72925 2.62771 4.5375 2.825L2.825 4.5C2.62389 4.69464 2.46398 4.92774 2.35477 5.18542C2.24556 5.44311 2.18928 5.72013 2.18928 6C2.18928 6.27987 2.24556 6.55689 2.35477 6.81458C2.46398 7.07226 2.62389 7.30536 2.825 7.5L3.75 8.425C3.799 8.50148 3.82505 8.59041 3.82505 8.68125C3.82505 8.77209 3.799 8.86102 3.75 8.9375C3.72185 9.01298 3.67283 9.07891 3.60865 9.1276C3.54447 9.17629 3.46777 9.20573 3.3875 9.2125H2.1C1.54305 9.2125 1.0089 9.43375 0.615076 9.82758C0.221249 10.2214 3.24182e-10 10.7555 3.24181e-10 11.3125V13.675C-9.77027e-06 14.2331 0.22084 14.7685 0.614311 15.1644C1.00778 15.5602 1.5419 15.7842 2.1 15.7875H3.4625C3.6375 15.7875 3.7625 15.925 3.8375 16.1125C3.88216 16.1814 3.90592 16.2617 3.90592 16.3438C3.90592 16.4258 3.88216 16.5061 3.8375 16.575L2.825 17.5C2.43146 17.8959 2.20733 18.4293 2.2 18.9875C2.19957 19.2646 2.25466 19.539 2.362 19.7945C2.46934 20.05 2.62677 20.2814 2.825 20.475L4.5 22.175C4.69403 22.3704 4.9248 22.5255 5.17902 22.6313C5.43324 22.7371 5.70588 22.7916 5.98125 22.7916C6.25662 22.7916 6.52926 22.7371 6.78348 22.6313C7.0377 22.5255 7.26847 22.3704 7.4625 22.175L8.425 21.25C8.50148 21.201 8.59041 21.1749 8.68125 21.1749C8.77209 21.1749 8.86102 21.201 8.9375 21.25C9.01298 21.2781 9.07891 21.3272 9.1276 21.3913C9.17629 21.4555 9.20573 21.5322 9.2125 21.6125V22.975C9.23194 23.5189 9.46174 24.0339 9.85348 24.4117C10.2452 24.7894 10.7683 25.0003 11.3125 25H13.675C14.2331 25 14.7685 24.7792 15.1644 24.3857C15.5602 23.9922 15.7842 23.4581 15.7875 22.9V21.5375C15.7875 21.3625 15.925 21.2375 16.1125 21.1625C16.1814 21.1178 16.2617 21.0941 16.3438 21.0941C16.4258 21.0941 16.5061 21.1178 16.575 21.1625L17.525 22.125C17.9209 22.5185 18.4543 22.7427 19.0125 22.75C19.2876 22.7495 19.5598 22.6939 19.8132 22.5866C20.0665 22.4792 20.2958 22.3223 20.4875 22.125L22.1625 20.45C22.3579 20.256 22.513 20.0252 22.6188 19.771C22.7246 19.5168 22.7791 19.2441 22.7791 18.9688C22.7791 18.6934 22.7246 18.4207 22.6188 18.1665C22.513 17.9123 22.3579 17.6815 22.1625 17.4875L21.25 16.575C21.2053 16.5061 21.1816 16.4258 21.1816 16.3438C21.1816 16.2617 21.2053 16.1814 21.25 16.1125C21.2781 16.037 21.3272 15.9711 21.3913 15.9224C21.4555 15.8737 21.5322 15.8443 21.6125 15.8375H22.975C23.5167 15.8181 24.0299 15.5901 24.4073 15.201C24.7848 14.812 24.9971 14.292 25 13.75V11.325C25 10.7669 24.7792 10.2315 24.3857 9.83564C23.9922 9.43983 23.4581 9.2158 22.9 9.2125ZM12.5 16.875C11.6347 16.875 10.7888 16.6184 10.0694 16.1377C9.34991 15.6569 8.78916 14.9737 8.45803 14.1742C8.12689 13.3748 8.04025 12.4951 8.20906 11.6465C8.37787 10.7978 8.79455 10.0183 9.40641 9.40641C10.0183 8.79455 10.7978 8.37787 11.6465 8.20906C12.4951 8.04025 13.3748 8.12689 14.1742 8.45803C14.9737 8.78916 15.6569 9.34991 16.1377 10.0694C16.6184 10.7888 16.875 11.6347 16.875 12.5C16.875 13.6603 16.4141 14.7731 15.5936 15.5936C14.7731 16.4141 13.6603 16.875 12.5 16.875Z" fill="#F2B41C"/>
</svg>
