<svg width="22" height="24" viewBox="0 0 22 24" fill="none" xmlns="http://www.w3.org/2000/svg">
<path fill-rule="evenodd" clip-rule="evenodd" d="M0 11.9999C0 9.96072 1.64162 8.30762 3.66667 8.30762C5.69171 8.30762 7.33333 9.96072 7.33333 11.9999C7.33333 14.0391 5.69171 15.6922 3.66667 15.6922C1.64162 15.6922 0 14.0391 0 11.9999ZM5.5 11.9999C5.5 10.9803 4.67919 10.1538 3.66667 10.1538C2.65414 10.1538 1.83333 10.9803 1.83333 11.9999C1.83333 13.0195 2.65414 13.8461 3.66667 13.8461C4.67919 13.8461 5.5 13.0195 5.5 11.9999Z" fill="black"/>
<path fill-rule="evenodd" clip-rule="evenodd" d="M14.6665 3.69231C14.6665 1.6531 16.3081 0 18.3332 0C20.3582 0 21.9998 1.6531 21.9998 3.69231C21.9998 5.73151 20.3582 7.38462 18.3332 7.38462C16.3081 7.38462 14.6665 5.73151 14.6665 3.69231ZM20.1665 3.69231C20.1665 2.67271 19.3457 1.84615 18.3332 1.84615C17.3206 1.84615 16.4998 2.67271 16.4998 3.69231C16.4998 4.71191 17.3206 5.53846 18.3332 5.53846C19.3457 5.53846 20.1665 4.71191 20.1665 3.69231Z" fill="black"/>
<path fill-rule="evenodd" clip-rule="evenodd" d="M14.6665 20.3078C14.6665 18.2686 16.3081 16.6155 18.3332 16.6155C20.3582 16.6155 21.9998 18.2686 21.9998 20.3078C21.9998 22.347 20.3582 24.0001 18.3332 24.0001C16.3081 24.0001 14.6665 22.347 14.6665 20.3078ZM20.1665 20.3078C20.1665 19.2882 19.3457 18.4616 18.3332 18.4616C17.3206 18.4616 16.4998 19.2882 16.4998 20.3078C16.4998 21.3274 17.3206 22.1539 18.3332 22.1539C19.3457 22.1539 20.1665 21.3274 20.1665 20.3078Z" fill="black"/>
<path d="M5.26437 12.905C5.50938 12.4664 6.05719 12.3072 6.49569 12.5436L6.51272 12.553L16.3864 18.1457C16.8276 18.3957 16.9841 18.9585 16.7359 19.4028C16.4909 19.8414 15.9431 20.0006 15.5046 19.7642L15.4876 19.7548L5.61391 14.1621C5.17267 13.9122 5.01617 13.3494 5.26437 12.905Z" fill="black"/>
<path d="M15.4876 4.24517C15.9288 3.99524 16.4877 4.15283 16.7359 4.59716C16.9809 5.0358 16.8316 5.58989 16.4032 5.84447L16.3864 5.85424L6.51272 11.4469C6.07147 11.6969 5.51256 11.5393 5.26437 11.0949C5.01935 10.6563 5.16872 10.1022 5.59708 9.84763L5.61391 9.83786L15.4876 4.24517Z" fill="black"/>
</svg>
