<svg width="14" height="12" viewBox="0 0 14 12" fill="none" xmlns="http://www.w3.org/2000/svg">
<path d="M7.7017 3.03382V0.749091C7.7017 0.55042 7.77546 0.359886 7.90676 0.219404C8.03807 0.0789219 8.21615 0 8.40184 0C8.58551 0.000827462 8.76152 0.0788462 8.89193 0.217236L13.7929 5.46088C13.8585 5.53051 13.9106 5.61336 13.9462 5.70465C13.9817 5.79593 14 5.89384 14 5.99273C14 6.09162 13.9817 6.18953 13.9462 6.28081C13.9106 6.3721 13.8585 6.45495 13.7929 6.52458L8.89193 11.7682C8.79365 11.8713 8.66914 11.9411 8.53398 11.9689C8.39882 11.9967 8.25901 11.9813 8.13201 11.9245C8.00501 11.8678 7.89645 11.7722 7.81992 11.6498C7.74339 11.5274 7.70227 11.3836 7.7017 11.2364L7.7017 8.91419H7.10658C6.00042 8.89653 4.90391 9.13664 3.89318 9.61784C2.88244 10.099 1.98168 10.8098 1.25343 11.7008C1.16566 11.8258 1.04354 11.9183 0.904171 11.9653C0.764805 12.0123 0.615182 12.0115 0.476272 11.963C0.33491 11.9119 0.212483 11.8139 0.126842 11.6832C0.0411998 11.5525 -0.00317904 11.396 0.000177383 11.2364C0.000177383 4.40466 5.65729 3.23607 7.7017 3.03382ZM7.10658 7.40102C7.57486 7.39945 8.0427 7.43199 8.50686 7.4984C8.67261 7.52531 8.82383 7.61495 8.93304 7.75105C9.04225 7.88714 9.10219 8.06063 9.10197 8.24V9.43106L12.3086 5.99273L9.10197 2.5544V3.74546C9.10197 3.94413 9.02821 4.13466 8.89691 4.27514C8.76561 4.41563 8.58752 4.49455 8.40184 4.49455C7.76471 4.49455 2.72371 4.64437 1.6315 9.3112C3.21683 8.06064 5.13697 7.39073 7.10658 7.40102Z" fill="#666666"/>
</svg>
