<svg width="16" height="14" viewBox="0 0 16 14" fill="none" xmlns="http://www.w3.org/2000/svg">
<path d="M8.80194 3.46722V0.856104C8.80194 0.629051 8.88624 0.411298 9.0363 0.250747C9.18636 0.0901964 9.38988 0 9.6021 0C9.81201 0.000945671 10.0132 0.0901099 10.1622 0.24827L15.7633 6.241C15.8383 6.32059 15.8978 6.41527 15.9385 6.5196C15.9791 6.62392 16 6.73582 16 6.84883C16 6.96185 15.9791 7.07375 15.9385 7.17807C15.8978 7.2824 15.8383 7.37708 15.7633 7.45667L10.1622 13.4494C10.0499 13.5672 9.90759 13.647 9.75312 13.6787C9.59866 13.7105 9.43887 13.6929 9.29372 13.628C9.14858 13.5631 9.02452 13.454 8.93705 13.3141C8.84959 13.1742 8.80259 13.0099 8.80194 12.8416L8.80194 10.1876L8.12181 10.1876C6.85762 10.1675 5.60447 10.4419 4.44935 10.9918C3.29422 11.5418 2.26478 12.3541 1.43249 13.3723C1.33218 13.5152 1.19261 13.6209 1.03334 13.6747C0.874063 13.7284 0.703064 13.7275 0.54431 13.672C0.382753 13.6137 0.242837 13.5016 0.144961 13.3523C0.0470848 13.2029 -0.0036335 13.0239 0.000202179 12.8416C0.000202179 5.03389 6.46548 3.69837 8.80194 3.46722ZM8.12181 8.45831C8.65699 8.45652 9.19166 8.4937 9.72212 8.5696C9.91155 8.60035 10.0844 8.70281 10.2092 8.85834C10.334 9.01387 10.4025 9.21215 10.4023 9.41715V10.7784L14.067 6.84883L10.4023 2.91932V4.28052C10.4023 4.50757 10.318 4.72533 10.1679 4.88588C10.0178 5.04643 9.81431 5.13663 9.6021 5.13663C8.87395 5.13663 3.11282 5.30785 1.86457 10.6414C3.67637 9.21216 5.87083 8.44654 8.12181 8.45831Z" fill="#666666"/>
</svg>
