<svg width="18" height="22" viewBox="0 0 18 22" fill="none" xmlns="http://www.w3.org/2000/svg">
<path d="M17.7596 4.0718C17.6794 3.98021 17.5812 3.90616 17.471 3.85428C17.3609 3.8024 17.2412 3.77381 17.1196 3.7703C15.229 3.72087 12.8367 1.6993 11.255 0.905999C10.278 0.417495 9.63301 0.0953954 9.14862 0.0105456C9.05027 -0.00378611 8.95033 -0.00350852 8.85206 0.0113694C8.36767 0.0962192 7.72265 0.418319 6.74647 0.906823C5.1648 1.6993 2.77253 3.72087 0.881947 3.7703C0.760167 3.77399 0.640443 3.80266 0.530198 3.85452C0.419952 3.90639 0.321534 3.98034 0.241043 4.0718C0.0742039 4.26056 -0.0118763 4.50726 0.00132131 4.75884C0.407447 13.0156 3.36895 18.1256 8.56538 21.0953C8.70048 21.1719 8.85041 21.2115 8.99951 21.2115C9.14862 21.2115 9.29855 21.1719 9.43447 21.0953C14.6309 18.1256 17.5916 13.0156 17.9985 4.75884C18.0125 4.5073 17.9266 4.26041 17.7596 4.0718V4.0718ZM13.6275 7.31916L9.24253 13.79C9.08519 14.0223 8.83805 14.1763 8.59339 14.1763C8.3479 14.1763 8.07523 14.0421 7.90306 13.8699L4.81222 10.7782C4.71131 10.6769 4.65465 10.5398 4.65465 10.3968C4.65465 10.2538 4.71131 10.1167 4.81222 10.0154L5.57587 9.25011C5.67737 9.1496 5.81444 9.09321 5.95728 9.09321C6.10012 9.09321 6.23719 9.1496 6.33869 9.25011L8.34873 11.2601L11.8407 6.10572C11.9215 5.98777 12.0457 5.90658 12.1862 5.87988C12.3266 5.85318 12.4719 5.88314 12.5904 5.96321L13.4842 6.56952C13.6023 6.65018 13.6836 6.77431 13.7105 6.91477C13.7374 7.05523 13.7075 7.20062 13.6275 7.31916V7.31916Z" fill="#123D59"/>
</svg>
