<svg width="18" height="19" viewBox="0 0 18 19" fill="none" xmlns="http://www.w3.org/2000/svg">
<path d="M9 18.0176C8.01563 17.5249 7.125 17.0029 6.32813 16.4516C5.53125 15.9003 4.83399 15.3724 4.23633 14.868C3.63867 14.3636 3.11426 13.7654 2.66309 13.0733C2.21191 12.3812 1.83691 11.78 1.53809 11.2698C1.23926 10.7595 0.990235 10.088 0.791016 9.25513C0.591797 8.42228 0.439453 7.739 0.333984 7.20527C0.228516 6.67155 0.149414 5.90615 0.0966797 4.90909C0.0439453 3.91202 0.0146484 3.13196 0.00878907 2.56891C0.00292969 2.00586 0 1.14956 0 0C0 0.304985 0.439453 0.568915 1.31836 0.791788C2.19727 1.01466 3.25781 1.1261 4.5 1.1261C5.74219 1.1261 6.80274 1.01466 7.68164 0.791788C8.56055 0.568915 9 0.304985 9 0C9 0.304985 9.43946 0.568915 10.3184 0.791788C11.1973 1.01466 12.2578 1.1261 13.5 1.1261C14.7422 1.1261 15.8027 1.01466 16.6816 0.791788C17.5606 0.568915 18 0.304985 18 0C18 1.14956 17.9971 2.00586 17.9912 2.56891C17.9854 3.13196 17.9561 3.91202 17.9033 4.90909C17.8506 5.90615 17.7715 6.67155 17.666 7.20527C17.5606 7.739 17.4082 8.42228 17.209 9.25513C17.0098 10.088 16.7607 10.7595 16.4619 11.2698C16.1631 11.78 15.7881 12.3812 15.3369 13.0733C14.8857 13.7654 14.3613 14.3636 13.7637 14.868C13.166 15.3724 12.4688 15.9003 11.6719 16.4516C10.875 17.0029 9.98438 17.5249 9 18.0176ZM9 2.2522C9 2.55718 8.66895 2.82111 8.00684 3.04399C7.34473 3.26686 6.55078 3.3783 5.625 3.3783C4.99219 3.3783 4.36524 3.32551 3.74414 3.21994C3.12305 3.11437 2.625 2.9736 2.25 2.79765C2.25 3.72434 2.26172 4.4692 2.28516 5.03225C2.30859 5.5953 2.36426 6.26686 2.45215 7.04692C2.54004 7.82697 2.67188 8.4692 2.84766 8.9736C3.02344 9.478 3.27539 10.0469 3.60352 10.6803C3.93164 11.3138 4.33301 11.8651 4.80762 12.3343C5.28223 12.8035 5.8711 13.2903 6.57422 13.7947C7.27735 14.2991 8.08594 14.7683 9 15.2023V2.2522Z" fill="#123D59"/>
</svg>
