<svg width="51" height="51" viewBox="0 0 51 51" fill="none" xmlns="http://www.w3.org/2000/svg">
<path d="M43 25.301C43 28.7371 41.9811 32.0961 40.0721 34.9532C38.1631 37.8102 35.4497 40.037 32.2751 41.352C29.1005 42.667 25.6073 43.011 22.2371 42.3406C18.867 41.6703 15.7714 40.0156 13.3416 37.5859C10.9119 35.1562 9.25724 32.0605 8.58688 28.6904C7.91652 25.3203 8.26057 21.827 9.57553 18.6524C10.8905 15.4778 13.1173 12.7645 15.9743 10.8554C18.8314 8.94642 22.1904 7.92749 25.6265 7.92749C28.6802 7.92732 31.6788 8.74121 34.3133 10.2853L34.9338 9.16845C32.0961 7.55542 28.8906 6.70064 25.6265 6.68652C20.7006 6.72193 15.9865 8.69446 12.5033 12.1777C9.02003 15.6609 7.0475 20.3751 7.01208 25.301C7.0475 30.2269 9.02003 34.941 12.5033 38.4243C15.9865 41.9075 20.7006 43.88 25.6265 43.9154C30.5525 43.88 35.2666 41.9075 38.7498 38.4243C42.2331 34.941 44.2056 30.2269 44.241 25.301H43Z" fill="#123D59"/>
<path d="M25.6265 0.481445C20.7178 0.481445 15.9192 1.93707 11.8377 4.66425C7.75618 7.39142 4.57503 11.2677 2.69652 15.8028C0.818005 20.3379 0.3265 25.3283 1.28416 30.1427C2.24182 34.9572 4.60562 39.3796 8.07666 42.8506C11.5477 46.3216 15.9701 48.6854 20.7845 49.6431C25.599 50.6008 30.5893 50.1093 35.1245 48.2307C39.6596 46.3522 43.5358 43.1711 46.263 39.0896C48.9902 35.0081 50.4458 30.2095 50.4458 25.3007C50.4265 18.7242 47.8054 12.4225 43.1551 7.77218C38.5047 3.12184 32.2031 0.500761 25.6265 0.481445ZM25.6265 46.3971C21.4541 46.3971 17.3753 45.1598 13.906 42.8417C10.4367 40.5236 7.73276 37.2288 6.13602 33.374C4.53929 29.5191 4.12151 25.2773 4.93551 21.185C5.74952 17.0927 7.75876 13.3337 10.7091 10.3833C13.6595 7.43294 17.4185 5.42371 21.5108 4.6097C25.6031 3.79569 29.8449 4.21347 33.6998 5.8102C37.5546 7.40694 40.8494 10.1109 43.1675 13.5802C45.4856 17.0495 46.7229 21.1283 46.7229 25.3007C46.7252 28.0718 46.1811 30.8161 45.1217 33.3767C44.0623 35.9372 42.5085 38.2638 40.549 40.2232C38.5896 42.1826 36.263 43.7365 33.7025 44.7959C31.1419 45.8553 28.3976 46.3994 25.6265 46.3971Z" fill="#123D59"/>
<path d="M25.6265 15.373C23.663 15.373 21.7436 15.9553 20.111 17.0462C18.4784 18.137 17.2059 19.6875 16.4545 21.5016C15.7031 23.3156 15.5065 25.3118 15.8896 27.2376C16.2726 29.1633 17.2181 30.9323 18.6066 32.3207C19.995 33.7091 21.7639 34.6546 23.6897 35.0377C25.6155 35.4208 27.6116 35.2242 29.4257 34.4728C31.2397 33.7214 32.7902 32.4489 33.8811 30.8163C34.972 29.1837 35.5542 27.2643 35.5542 25.3008C35.5464 22.6702 34.4979 20.1496 32.6378 18.2895C30.7777 16.4294 28.2571 15.3809 25.6265 15.373ZM25.6265 31.5056C24.3993 31.5056 23.1997 31.1417 22.1793 30.4599C21.1589 29.7781 20.3636 28.809 19.894 27.6752C19.4244 26.5415 19.3015 25.2939 19.5409 24.0903C19.7803 22.8866 20.3713 21.781 21.239 20.9133C22.1068 20.0455 23.2124 19.4546 24.416 19.2152C25.6196 18.9757 26.8672 19.0986 28.001 19.5683C29.1348 20.0379 30.1038 20.8332 30.7856 21.8535C31.4674 22.8739 31.8313 24.0736 31.8313 25.3008C31.8395 26.1178 31.6845 26.9283 31.3756 27.6848C31.0666 28.4413 30.6099 29.1285 30.0321 29.7063C29.4543 30.2841 28.767 30.7409 28.0106 31.0498C27.2541 31.3588 26.4436 31.5137 25.6265 31.5056Z" fill="#123D59"/>
<path d="M25.6266 10.4092C22.6813 10.4092 19.8022 11.2826 17.3532 12.9189C14.9043 14.5552 12.9957 16.8809 11.8685 19.602C10.7414 22.3231 10.4465 25.3173 11.0211 28.2059C11.5957 31.0946 13.014 33.7481 15.0966 35.8307C17.1793 37.9133 19.8327 39.3316 22.7214 39.9062C25.61 40.4808 28.6042 40.1859 31.3253 39.0588C34.0464 37.9317 36.3721 36.023 38.0084 33.5741C39.6448 31.1252 40.5181 28.246 40.5181 25.3007C40.5067 21.3548 38.9341 17.5737 36.1438 14.7835C33.3536 11.9932 29.5725 10.4206 25.6266 10.4092ZM25.6266 38.9514C22.9267 38.9514 20.2875 38.1508 18.0427 36.6508C15.7979 35.1509 14.0482 33.0189 13.015 30.5246C11.9819 28.0303 11.7115 25.2856 12.2382 22.6376C12.765 19.9897 14.0651 17.5574 15.9741 15.6483C17.8832 13.7392 20.3155 12.4391 22.9635 11.9124C25.6114 11.3857 28.3561 11.6561 30.8504 12.6892C33.3447 13.7224 35.4767 15.472 36.9766 17.7169C38.4766 19.9617 39.2772 22.6009 39.2772 25.3007C39.2824 27.0948 38.9329 28.8723 38.2487 30.5308C37.5646 32.1893 36.5593 33.6962 35.2907 34.9649C34.0221 36.2335 32.5151 37.2388 30.8566 37.9229C29.1981 38.6071 27.4207 38.9566 25.6266 38.9514Z" fill="#123D59"/>
</svg>
