<svg width="12" height="12" viewBox="0 0 12 12" fill="none" xmlns="http://www.w3.org/2000/svg">
<path d="M4.81595 7.55748C4.81595 7.73993 4.88842 7.91491 5.01743 8.04392C5.14644 8.17293 5.32142 8.2454 5.50386 8.2454C5.68631 8.2454 5.86129 8.17293 5.9903 8.04392C6.11931 7.91491 6.19178 7.73993 6.19178 7.55748V2.63336L8.42271 4.86428L9.39542 3.89156L5.50386 0L1.6123 3.89156L2.58502 4.86428L4.81595 2.63473V7.55817V7.55748Z" fill="#7D7D7D"/>
<path d="M0 6.87915H1.37584V9.63083H9.63087V6.87915H11.0067V9.63083C11.0067 9.99572 10.8618 10.3457 10.6037 10.6037C10.3457 10.8617 9.99577 11.0067 9.63087 11.0067H1.37584C1.01094 11.0067 0.660994 10.8617 0.402974 10.6037C0.144954 10.3457 0 9.99572 0 9.63083V6.87915Z" fill="#7D7D7D"/>
</svg>
