<svg width="11" height="16" viewBox="0 0 11 16" fill="none" xmlns="http://www.w3.org/2000/svg">
<path fill-rule="evenodd" clip-rule="evenodd" d="M8 16H3.00006C1.3432 16 0 14.6569 0 12.9999V11.0001C0 9.68662 0.849407 8.58242 2.02471 8.17612C1.38455 7.31246 1.00006 6.20611 1.00006 5.00007C1.00006 2.23864 3.01469 0 5.50003 0C7.98525 0 10 2.23864 10 5.00007C10 6.20611 9.61552 7.31246 8.97536 8.17612C10.1506 8.58242 11.0001 9.68662 11.0001 11.0001V12.9999C11.0001 14.6569 9.65685 16 8 16ZM9.00007 5.00007C9.00007 2.79092 7.4331 1.00005 5.50003 1.00005C3.56697 1.00005 2 2.79092 2 5.00007C2 7.20921 3.56697 9.00008 5.50003 9.00008C7.4331 9.00008 9.00007 7.20921 9.00007 5.00007ZM10 11.2501C10 10.1871 9.19333 9.3015 8.1122 9.06626C7.37523 9.65183 6.47513 10 5.50003 10C4.52492 10 3.62483 9.65183 2.88786 9.06626C1.80674 9.3015 1.00006 10.1871 1.00006 11.2501V12.75C1.00006 13.9927 2.09895 15.0001 3.45452 15.0001H7.54554C8.90111 15.0001 10 13.9927 10 12.75V11.2501Z" fill="white"/>
</svg>
