<svg width="24" height="24" viewBox="0 0 24 24" fill="none" xmlns="http://www.w3.org/2000/svg">
<path d="M12.5732 4.5C14.9954 4.5 16.6817 6.03397 16.8613 8.28433L19.5085 7.20209C20.6539 6.73473 21.9036 7.52881 21.9946 8.73549L21.9999 8.8765V15.5155C21.9999 16.7527 20.7925 17.6089 19.6407 17.2371L19.5081 17.1888L16.8613 16.1064C16.6813 18.3553 14.9915 19.891 12.5732 19.891H6.3042C3.73909 19.891 2.0002 18.1719 2.0002 15.703V8.688C2.0002 6.21909 3.73909 4.5 6.3042 4.5H12.5732ZM12.5732 6H6.3042C4.5637 6 3.5002 7.05139 3.5002 8.688V15.703C3.5002 17.3396 4.5637 18.391 6.3042 18.391H12.5732C14.3094 18.391 15.3772 17.3369 15.3772 15.703L15.377 15.0174C15.3767 15.0068 15.3766 14.9961 15.3768 14.9854L15.3772 8.688C15.3772 7.05178 14.3131 6 12.5732 6ZM20.1435 8.57159L20.0757 8.59075L16.8772 9.897V14.493L20.0753 15.8001C20.2558 15.8737 20.4509 15.7644 20.492 15.5856L20.4999 15.5155V8.8765C20.4999 8.68171 20.3245 8.54221 20.1435 8.57159Z" fill="#666666"/>
</svg>
