<svg width="20" height="12" viewBox="0 0 20 12" fill="none" xmlns="http://www.w3.org/2000/svg">
<path d="M11.6654 1.43588e-05H3.05893C2.51157 0.00146094 1.98708 0.21969 1.60025 0.606936C1.21341 0.994181 0.995739 1.5189 0.994873 2.06626V9.02122C0.996317 9.5682 1.21424 10.0924 1.60102 10.4791C1.98779 10.8659 2.51195 11.0838 3.05893 11.0853H11.6654C12.2123 11.0838 12.7365 10.8659 13.1233 10.4791C13.51 10.0924 13.728 9.5682 13.7294 9.02122V2.06626C13.7307 1.79474 13.6782 1.52564 13.575 1.27451C13.4718 1.02338 13.3198 0.79517 13.1279 0.60307C12.936 0.41097 12.708 0.258783 12.4569 0.155277C12.2059 0.0517704 11.9369 -0.0010003 11.6654 1.43588e-05Z" fill="#F31954"/>
<path d="M18.3313 1.13557C18.2064 1.162 18.0874 1.21096 17.98 1.28004L14.7603 3.14053V7.92858L18.0008 9.78907C18.1413 9.87195 18.2969 9.92596 18.4586 9.94797C18.6202 9.96997 18.7846 9.95953 18.9421 9.91724C19.0997 9.87495 19.2472 9.80166 19.3761 9.70167C19.505 9.60167 19.6127 9.47698 19.6928 9.33488C19.8003 9.14609 19.8572 8.93272 19.858 8.71545V2.33833C19.8571 2.15155 19.814 1.9674 19.732 1.79956C19.6501 1.63173 19.5313 1.48455 19.3846 1.36896C19.2379 1.25338 19.0669 1.17236 18.8846 1.13196C18.7022 1.09155 18.5131 1.09278 18.3313 1.13557Z" fill="#F31954"/>
<path d="M5.06078 5.81101C6.02363 5.81101 6.80417 5.03046 6.80417 4.06761C6.80417 3.10476 6.02363 2.32422 5.06078 2.32422C4.09793 2.32422 3.31738 3.10476 3.31738 4.06761C3.31738 5.03046 4.09793 5.81101 5.06078 5.81101Z" fill="white"/>
</svg>
