<svg width="22" height="14" viewBox="0 0 22 14" fill="none" xmlns="http://www.w3.org/2000/svg">
<path d="M10.6402 3.42505C9.9628 3.42505 9.30064 3.6259 8.73743 4.00223C8.17422 4.37855 7.73525 4.91345 7.47604 5.53926C7.21682 6.16506 7.14899 6.85368 7.28114 7.51803C7.41329 8.18238 7.73948 8.79262 8.21845 9.27159C8.69742 9.75056 9.30766 10.0768 9.97201 10.2089C10.6364 10.3411 11.325 10.2732 11.9508 10.014C12.5766 9.75479 13.1115 9.31582 13.4878 8.75261C13.8641 8.1894 14.065 7.52724 14.065 6.84987C14.0643 5.94177 13.7032 5.07107 13.0611 4.42895C12.419 3.78682 11.5483 3.42577 10.6402 3.42505ZM10.3805 5.83407C10.1744 5.83584 9.97723 5.91849 9.8315 6.06422C9.68577 6.20995 9.60312 6.40708 9.60135 6.61316H8.46786C8.47383 6.10776 8.67726 5.62475 9.03466 5.26736C9.39205 4.90996 9.87506 4.70653 10.3805 4.70056V5.83407Z" fill="#666666" fill-opacity="0.9"/>
<path d="M21.0312 6.14089C19.8733 4.70035 15.7411 0 10.639 0C5.53691 0 1.40601 4.70035 0.248173 6.14089C0.0875064 6.34219 0 6.5921 0 6.84965C0 7.10721 0.0875064 7.35713 0.248173 7.55843C1.40601 8.99897 5.53826 13.6993 10.6403 13.6993C15.7424 13.6993 19.8747 8.99897 21.0325 7.55843C21.193 7.35697 21.2802 7.10697 21.28 6.84941C21.2798 6.59186 21.192 6.34203 21.0312 6.14089ZM10.639 11.8084C9.65798 11.8084 8.69901 11.5175 7.88333 10.9724C7.06765 10.4274 6.43191 9.65277 6.0565 8.74644C5.68108 7.84011 5.58286 6.8428 5.77424 5.88065C5.96563 4.91849 6.43802 4.0347 7.1317 3.34102C7.82538 2.64734 8.70917 2.17495 9.67133 1.98356C10.6335 1.79218 11.6308 1.8904 12.5371 2.26582C13.4434 2.64123 14.2181 3.27697 14.7631 4.09264C15.3081 4.90832 15.599 5.8673 15.599 6.8483C15.5992 7.4996 15.4711 8.14456 15.222 8.74633C14.9728 9.34811 14.6076 9.89491 14.1471 10.3555C13.6867 10.8161 13.14 11.1815 12.5383 11.4308C11.9366 11.68 11.2916 11.8084 10.6403 11.8084H10.639Z" fill="#666666" fill-opacity="0.9"/>
</svg>
