<svg width="51" height="51" viewBox="0 0 51 51" fill="none" xmlns="http://www.w3.org/2000/svg">
<path d="M46.3494 25.3007C46.3494 29.4732 45.1121 33.552 42.794 37.0212C40.4759 40.4905 37.1811 43.1945 33.3263 44.7912C29.4714 46.388 25.2296 46.8058 21.1373 45.9917C17.045 45.1777 13.286 43.1685 10.3356 40.2181C7.38526 37.2677 5.37602 33.5087 4.56201 29.4164C3.748 25.3241 4.16578 21.0823 5.76252 17.2275C7.35925 13.3726 10.0632 10.0778 13.5325 7.75972C17.0018 5.44162 21.0806 4.20434 25.253 4.20434C29.2025 4.20434 32.9903 5.77326 35.783 8.56598C38.5757 11.3587 40.1446 15.1464 40.1446 19.0959C40.1446 23.0454 38.5757 26.8331 35.783 29.6258C32.9903 32.4185 29.2025 33.9875 25.253 33.9875C22.62 33.9875 20.0949 32.9415 18.2331 31.0797C16.3713 29.2179 15.3253 26.6928 15.3253 24.0598C15.3253 21.4268 16.3713 18.9016 18.2331 17.0398C20.0949 15.178 22.62 14.132 25.253 14.132H26.494C27.3168 14.132 28.1059 14.4589 28.6877 15.0407C29.2696 15.6225 29.5964 16.4116 29.5964 17.2345C29.5964 18.0573 29.2696 18.8464 28.6877 19.4282C28.1059 20.01 27.3168 20.3369 26.494 20.3369H25.253C23.9365 20.3369 22.674 20.8598 21.7431 21.7907C20.8122 22.7217 20.2892 23.9842 20.2892 25.3007C20.2892 26.6172 20.8122 27.8798 21.7431 28.8107C22.674 29.7416 23.9365 30.2646 25.253 30.2646C28.2059 30.2348 31.0295 29.0486 33.1176 26.9605C35.2057 24.8724 36.392 22.0488 36.4217 19.0959C36.392 16.143 35.2057 13.3194 33.1176 11.2313C31.0295 9.1432 28.2059 7.95696 25.253 7.92723C22.396 7.92743 19.5832 8.63221 17.0636 9.97913C14.544 11.3261 12.3955 13.2736 10.8084 15.6491C9.22119 18.0247 8.24437 20.755 7.96441 23.5983C7.68445 26.4415 8.10999 29.3099 9.20334 31.9494C10.2967 34.5889 12.0241 36.9181 14.2326 38.7306C16.4411 40.543 19.0625 41.7829 21.8645 42.3403C24.6666 42.8977 27.563 42.7555 30.297 41.9263C33.031 41.097 35.5183 39.6064 37.5386 37.5863L36.6699 36.7176C33.6208 39.7121 29.5266 41.4032 25.253 41.4333C20.9744 41.4333 16.871 39.7336 13.8456 36.7081C10.8202 33.6827 9.12051 29.5793 9.12051 25.3007C9.12051 21.0221 10.8202 16.9187 13.8456 13.8933C16.871 10.8679 20.9744 9.16819 25.253 9.16819C27.886 9.16819 30.4112 10.2141 32.273 12.076C34.1348 13.9378 35.1807 16.4629 35.1807 19.0959C35.1807 21.7289 34.1348 24.254 32.273 26.1159C30.4112 27.9777 27.886 29.0236 25.253 29.0236C24.2657 29.0236 23.3187 28.6314 22.6206 27.9332C21.9224 27.235 21.5301 26.2881 21.5301 25.3007C21.5301 24.3133 21.9224 23.3664 22.6206 22.6682C23.3187 21.9701 24.2657 21.5778 25.253 21.5778H26.494C27.6459 21.5778 28.7507 21.1202 29.5652 20.3057C30.3798 19.4911 30.8374 18.3864 30.8374 17.2345C30.8374 16.0825 30.3798 14.9778 29.5652 14.1632C28.7507 13.3487 27.6459 12.8911 26.494 12.8911H25.253C21.9618 12.8911 18.8054 14.1985 16.4781 16.5258C14.1508 18.853 12.8434 22.0095 12.8434 25.3007C12.8434 28.592 14.1508 31.7484 16.4781 34.0757C18.8054 36.4029 21.9618 37.7104 25.253 37.7104C30.179 37.6749 34.8931 35.7024 38.3763 32.2192C41.8596 28.7359 43.8321 24.0218 43.8675 19.0959C43.8321 14.17 41.8596 9.45587 38.3763 5.97263C34.8931 2.48939 30.179 0.516856 25.253 0.481445C20.3442 0.481445 15.5457 1.93707 11.4642 4.66425C7.38267 7.39142 4.20153 11.2677 2.32301 15.8028C0.4445 20.3379 -0.0470043 25.3283 0.910653 30.1427C1.86831 34.9572 4.23212 39.3796 7.70316 42.8506C11.1742 46.3216 15.5966 48.6854 20.411 49.6431C25.2255 50.6008 30.2158 50.1093 34.751 48.2307C39.2861 46.3522 43.1623 43.1711 45.8895 39.0896C48.6167 35.0081 50.0723 30.2095 50.0723 25.3007H46.3494Z" fill="#123D59"/>
</svg>
